<svg width="36" height="29" viewBox="0 0 36 29" fill="none" xmlns="http://www.w3.org/2000/svg">
<mask id="path-1-outside-1_436_233" maskUnits="userSpaceOnUse" x="0" y="-0.350098" width="36" height="30" fill="black">
<rect fill="white" y="-0.350098" width="36" height="30"/>
<path d="M30.1432 18.0945C32.4504 15.542 32.2532 11.6 29.7022 9.29102C28.5564 8.253 27.0647 7.67929 25.5197 7.68026H25.0427C25.032 3.79606 21.8831 0.649902 18.0002 0.649902C14.1169 0.649902 10.969 3.79606 10.9583 7.68026H10.4813C8.93526 7.67881 7.44459 8.253 6.29829 9.29102C3.74778 11.5995 3.55009 15.542 5.85726 18.0945C2.85697 19.6902 0.986954 22.8184 1.00007 26.2188V27.8962C1.00007 28.2988 1.32599 28.6255 1.72865 28.6255C2.13131 28.6255 2.45723 28.2988 2.45723 27.8962V26.2188C2.45625 23.15 4.27187 20.3728 7.08127 19.1447C7.25662 19.2595 7.43828 19.365 7.62528 19.4607C7.75497 18.9818 7.9172 18.5122 8.111 18.0552C6.63927 17.199 5.73194 15.6261 5.72612 13.923V13.8987C5.72854 11.2562 7.87105 9.11697 10.5105 9.1194C10.6945 9.11843 10.8786 9.13009 11.0617 9.15294C11.0627 9.15975 11.0632 9.16656 11.0642 9.17336C11.3012 10.5454 11.9399 11.8168 12.9002 12.8247C10.7387 13.9575 9.04406 15.8138 8.111 18.0707C7.9172 18.5272 7.75497 18.9969 7.62528 19.4758C7.41448 20.3218 7.31005 21.1906 7.31442 22.0624V27.8967C7.31442 28.2993 7.64034 28.626 8.043 28.626C8.44566 28.626 8.77158 28.2993 8.77158 27.8967V22.0624C8.76672 18.5044 10.8626 15.279 14.1145 13.8408C16.4071 15.367 19.3807 15.4049 21.7116 13.9381C22.6136 14.3858 23.435 14.9829 24.1402 15.7029C25.8232 17.3886 26.7612 19.679 26.7432 22.0624V27.8967C26.7432 28.2993 27.0696 28.626 27.4718 28.626C27.8739 28.626 28.2003 28.2993 28.2003 27.8967V22.0624C28.2003 21.2543 28.111 20.4492 27.9332 19.6611C27.9317 19.6533 27.9288 19.6465 27.9274 19.6392C28.2659 19.4938 28.5894 19.3173 28.8944 19.1112C31.7252 20.3369 33.5535 23.1325 33.5428 26.2193V27.8967C33.5428 28.2993 33.8692 28.626 34.2713 28.626C34.6735 28.626 34.9999 28.2993 34.9999 27.8967V26.2193C35.0135 22.8184 33.1435 19.6902 30.1432 18.0945ZM21.4391 12.338C21.2371 12.3735 21.0608 12.4936 20.9534 12.6686C18.3514 14.3173 14.9067 13.5423 13.2596 10.9378C12.7982 10.2075 12.5121 9.38097 12.4242 8.52138C12.4266 8.48103 12.4266 8.44018 12.4242 8.39934V7.94281C12.4242 4.85499 14.9252 2.35158 18.01 2.35158C21.0948 2.35158 23.5957 4.85499 23.5957 7.94281V8.39934C23.5933 8.44018 23.5933 8.48103 23.5957 8.52138C23.4277 10.0354 22.6486 11.4142 21.4391 12.338ZM27.5024 18.2302C26.9943 16.9019 26.2142 15.6879 25.2039 14.6717C24.539 14.0018 23.7876 13.4232 22.9696 12.9506C24.0008 11.9262 24.6881 10.6062 24.9363 9.17288C24.9378 9.16607 24.9378 9.15927 24.9392 9.15246C25.1219 9.12961 25.3064 9.11794 25.4905 9.11891C28.128 9.12231 30.2622 11.2645 30.2593 13.9045C30.2559 15.7598 29.182 17.4464 27.5024 18.2302Z"/>
</mask>
<path d="M30.1432 18.0945C32.4504 15.542 32.2532 11.6 29.7022 9.29102C28.5564 8.253 27.0647 7.67929 25.5197 7.68026H25.0427C25.032 3.79606 21.8831 0.649902 18.0002 0.649902C14.1169 0.649902 10.969 3.79606 10.9583 7.68026H10.4813C8.93526 7.67881 7.44459 8.253 6.29829 9.29102C3.74778 11.5995 3.55009 15.542 5.85726 18.0945C2.85697 19.6902 0.986954 22.8184 1.00007 26.2188V27.8962C1.00007 28.2988 1.32599 28.6255 1.72865 28.6255C2.13131 28.6255 2.45723 28.2988 2.45723 27.8962V26.2188C2.45625 23.15 4.27187 20.3728 7.08127 19.1447C7.25662 19.2595 7.43828 19.365 7.62528 19.4607C7.75497 18.9818 7.9172 18.5122 8.111 18.0552C6.63927 17.199 5.73194 15.6261 5.72612 13.923V13.8987C5.72854 11.2562 7.87105 9.11697 10.5105 9.1194C10.6945 9.11843 10.8786 9.13009 11.0617 9.15294C11.0627 9.15975 11.0632 9.16656 11.0642 9.17336C11.3012 10.5454 11.9399 11.8168 12.9002 12.8247C10.7387 13.9575 9.04406 15.8138 8.111 18.0707C7.9172 18.5272 7.75497 18.9969 7.62528 19.4758C7.41448 20.3218 7.31005 21.1906 7.31442 22.0624V27.8967C7.31442 28.2993 7.64034 28.626 8.043 28.626C8.44566 28.626 8.77158 28.2993 8.77158 27.8967V22.0624C8.76672 18.5044 10.8626 15.279 14.1145 13.8408C16.4071 15.367 19.3807 15.4049 21.7116 13.9381C22.6136 14.3858 23.435 14.9829 24.1402 15.7029C25.8232 17.3886 26.7612 19.679 26.7432 22.0624V27.8967C26.7432 28.2993 27.0696 28.626 27.4718 28.626C27.8739 28.626 28.2003 28.2993 28.2003 27.8967V22.0624C28.2003 21.2543 28.111 20.4492 27.9332 19.6611C27.9317 19.6533 27.9288 19.6465 27.9274 19.6392C28.2659 19.4938 28.5894 19.3173 28.8944 19.1112C31.7252 20.3369 33.5535 23.1325 33.5428 26.2193V27.8967C33.5428 28.2993 33.8692 28.626 34.2713 28.626C34.6735 28.626 34.9999 28.2993 34.9999 27.8967V26.2193C35.0135 22.8184 33.1435 19.6902 30.1432 18.0945ZM21.4391 12.338C21.2371 12.3735 21.0608 12.4936 20.9534 12.6686C18.3514 14.3173 14.9067 13.5423 13.2596 10.9378C12.7982 10.2075 12.5121 9.38097 12.4242 8.52138C12.4266 8.48103 12.4266 8.44018 12.4242 8.39934V7.94281C12.4242 4.85499 14.9252 2.35158 18.01 2.35158C21.0948 2.35158 23.5957 4.85499 23.5957 7.94281V8.39934C23.5933 8.44018 23.5933 8.48103 23.5957 8.52138C23.4277 10.0354 22.6486 11.4142 21.4391 12.338ZM27.5024 18.2302C26.9943 16.9019 26.2142 15.6879 25.2039 14.6717C24.539 14.0018 23.7876 13.4232 22.9696 12.9506C24.0008 11.9262 24.6881 10.6062 24.9363 9.17288C24.9378 9.16607 24.9378 9.15927 24.9392 9.15246C25.1219 9.12961 25.3064 9.11794 25.4905 9.11891C28.128 9.12231 30.2622 11.2645 30.2593 13.9045C30.2559 15.7598 29.182 17.4464 27.5024 18.2302Z" fill="black"/>
<path d="M30.1432 18.0945C32.4504 15.542 32.2532 11.6 29.7022 9.29102C28.5564 8.253 27.0647 7.67929 25.5197 7.68026H25.0427C25.032 3.79606 21.8831 0.649902 18.0002 0.649902C14.1169 0.649902 10.969 3.79606 10.9583 7.68026H10.4813C8.93526 7.67881 7.44459 8.253 6.29829 9.29102C3.74778 11.5995 3.55009 15.542 5.85726 18.0945C2.85697 19.6902 0.986954 22.8184 1.00007 26.2188V27.8962C1.00007 28.2988 1.32599 28.6255 1.72865 28.6255C2.13131 28.6255 2.45723 28.2988 2.45723 27.8962V26.2188C2.45625 23.15 4.27187 20.3728 7.08127 19.1447C7.25662 19.2595 7.43828 19.365 7.62528 19.4607C7.75497 18.9818 7.9172 18.5122 8.111 18.0552C6.63927 17.199 5.73194 15.6261 5.72612 13.923V13.8987C5.72854 11.2562 7.87105 9.11697 10.5105 9.1194C10.6945 9.11843 10.8786 9.13009 11.0617 9.15294C11.0627 9.15975 11.0632 9.16656 11.0642 9.17336C11.3012 10.5454 11.9399 11.8168 12.9002 12.8247C10.7387 13.9575 9.04406 15.8138 8.111 18.0707C7.9172 18.5272 7.75497 18.9969 7.62528 19.4758C7.41448 20.3218 7.31005 21.1906 7.31442 22.0624V27.8967C7.31442 28.2993 7.64034 28.626 8.043 28.626C8.44566 28.626 8.77158 28.2993 8.77158 27.8967V22.0624C8.76672 18.5044 10.8626 15.279 14.1145 13.8408C16.4071 15.367 19.3807 15.4049 21.7116 13.9381C22.6136 14.3858 23.435 14.9829 24.1402 15.7029C25.8232 17.3886 26.7612 19.679 26.7432 22.0624V27.8967C26.7432 28.2993 27.0696 28.626 27.4718 28.626C27.8739 28.626 28.2003 28.2993 28.2003 27.8967V22.0624C28.2003 21.2543 28.111 20.4492 27.9332 19.6611C27.9317 19.6533 27.9288 19.6465 27.9274 19.6392C28.2659 19.4938 28.5894 19.3173 28.8944 19.1112C31.7252 20.3369 33.5535 23.1325 33.5428 26.2193V27.8967C33.5428 28.2993 33.8692 28.626 34.2713 28.626C34.6735 28.626 34.9999 28.2993 34.9999 27.8967V26.2193C35.0135 22.8184 33.1435 19.6902 30.1432 18.0945ZM21.4391 12.338C21.2371 12.3735 21.0608 12.4936 20.9534 12.6686C18.3514 14.3173 14.9067 13.5423 13.2596 10.9378C12.7982 10.2075 12.5121 9.38097 12.4242 8.52138C12.4266 8.48103 12.4266 8.44018 12.4242 8.39934V7.94281C12.4242 4.85499 14.9252 2.35158 18.01 2.35158C21.0948 2.35158 23.5957 4.85499 23.5957 7.94281V8.39934C23.5933 8.44018 23.5933 8.48103 23.5957 8.52138C23.4277 10.0354 22.6486 11.4142 21.4391 12.338ZM27.5024 18.2302C26.9943 16.9019 26.2142 15.6879 25.2039 14.6717C24.539 14.0018 23.7876 13.4232 22.9696 12.9506C24.0008 11.9262 24.6881 10.6062 24.9363 9.17288C24.9378 9.16607 24.9378 9.15927 24.9392 9.15246C25.1219 9.12961 25.3064 9.11794 25.4905 9.11891C28.128 9.12231 30.2622 11.2645 30.2593 13.9045C30.2559 15.7598 29.182 17.4464 27.5024 18.2302Z" stroke="black" stroke-width="0.6" mask="url(#path-1-outside-1_436_233)"/>
</svg>
