<svg width="0" height="0" class="hidden">
  <symbol fill="none" xmlns="http://www.w3.org/2000/svg" viewBox="0 0 6 10" id="arrow_left">
    <path d="M6 8.57143L2.35417 5L6 1.42857L5.27083 -3.18729e-08L0.166667 5L5.27083 10L6 8.57143Z" fill="#242627"></path>
  </symbol>
  <symbol fill="none" xmlns="http://www.w3.org/2000/svg" viewBox="0 0 30 35" id="brain">
    <path fill-rule="evenodd" clip-rule="evenodd" d="M0 17.6353C0 19.6706 0.88151 21.5047 2.28464 22.7796C2.09583 23.3649 2 23.975 2 24.6019C2 28.0018 4.85729 30.7117 8.25391 30.5679C9.09583 33.5699 11.8674 34.6206 15 34.6206C18.131 34.6206 20.9057 33.5712 21.7466 30.5681C25.1586 30.7086 28 27.9893 28 24.6019C28 23.975 27.9042 23.3649 27.7154 22.7796C29.1185 21.5047 30 19.6706 30 17.6353C30 15.5836 29.1039 13.7365 27.6813 12.4603C27.893 11.8847 28 11.2847 28 10.6686C28 7.59348 25.2607 5.05356 21.7544 4.73166C20.9255 1.71589 18.1557 0.649902 15 0.649902C11.8565 0.649902 9.07318 1.70034 8.24427 4.73166C4.73854 5.05408 2 7.59348 2 10.6686C2 11.2847 2.10703 11.8847 2.31875 12.4603C0.896094 13.7365 0 15.5836 0 17.6353ZM19.9443 5.83938C20.0172 6.35929 20.4953 6.76101 21.0711 6.68818C23.7956 6.71851 26 8.49231 26 10.6686C26 10.8858 25.9776 11.1001 25.9344 11.3111C25.0414 10.899 24.0474 10.6686 23 10.6686C21.9206 10.6686 20.9208 11.012 20.1029 11.5931C19.8487 11.4067 19.7586 11.1468 19.7292 11.0226C19.6906 10.8604 19.6396 10.4444 19.9953 10.0901C20.3859 9.70162 20.3859 9.07156 19.9953 8.6828C19.6049 8.29404 18.9716 8.29404 18.5813 8.6828C17.8406 9.4199 17.5422 10.4654 17.7826 11.4801C17.9307 12.1042 18.2672 12.6474 18.7352 13.0504C18.2693 13.8062 18 14.6949 18 15.6448C18 16.1945 18.4477 16.64 19 16.64C19.5523 16.64 20 16.1945 20 15.6448C20 13.9985 21.3458 12.6591 23 12.6591C25.757 12.6591 28 14.8914 28 17.6353C28 20.3791 25.757 22.6114 23 22.6114C22.4477 22.6114 22 23.057 22 23.6067C22 24.1564 22.4477 24.6019 23 24.6019C24.0523 24.6019 25.051 24.3692 25.9474 23.9532C25.9823 24.1657 26 24.3821 26 24.6019C26 27.1478 23.6198 29.031 21.1622 28.4947C20.5872 28.369 20.0273 28.7635 19.9555 29.3451C19.7385 31.0992 18.7086 32.3375 16 32.5861V2.68417C18.6669 2.92935 19.7047 4.1353 19.9443 5.83938ZM4 10.6686C4 8.47339 6.24297 6.68766 9 6.68766C9.01797 6.68766 9.03568 6.68766 9.05365 6.68792L9.06058 6.68815L9.06693 6.68818C9.56484 6.68818 9.98802 6.32274 10.057 5.83083C10.2948 4.13919 11.3177 2.92884 14 2.68391V32.5863C11.7826 32.3826 10.3112 31.4986 10.044 29.3417C9.97161 28.7565 9.40677 28.3628 8.83021 28.4929C6.43151 29.0356 4 27.1807 4 24.6019C4 24.3821 4.01771 24.1657 4.0526 23.9532C4.94896 24.3692 5.94766 24.6019 7 24.6019C7.55234 24.6019 8 24.1564 8 23.6067C8 23.057 7.55234 22.6114 7 22.6114C4.24297 22.6114 2 20.3791 2 17.6353C2 14.8914 4.24297 12.6591 7 12.6591C8.65417 12.6591 10 13.9985 10 15.6448C10 16.1945 10.4477 16.64 11 16.64C11.5523 16.64 12 16.1945 12 15.6448C12 14.6205 11.6872 13.6675 11.1518 12.8752C11.5281 12.4898 11.7987 12.0044 11.924 11.4583C12.1549 10.4512 11.8547 9.41342 11.1203 8.6828C10.7299 8.2943 10.0966 8.2943 9.70625 8.6828C9.31563 9.07156 9.31563 9.70162 9.70625 10.0904C10.0589 10.4413 10.0109 10.8542 9.97396 11.0154C9.95078 11.1165 9.88828 11.3088 9.72917 11.4785C8.94375 10.9672 8.00651 10.6686 7 10.6686C5.9526 10.6686 4.95859 10.899 4.06563 11.3111C4.0224 11.1001 4 10.8858 4 10.6686ZM21 26.6274C21.5523 26.6274 22 26.1802 22 25.6283C22 25.0765 21.5523 24.6292 21 24.6292C20.4487 24.6292 20 24.1809 20 23.6301V21.6318C20 21.081 20.4487 20.6327 21 20.6327C22.6542 20.6327 24 19.2881 24 17.6354C24 17.0835 23.5523 16.6362 23 16.6362C22.4477 16.6362 22 17.0835 22 17.6354C22 18.1862 21.5513 18.6345 21 18.6345C19.3458 18.6345 18 19.9791 18 21.6318V23.6301C18 25.2828 19.3458 26.6274 21 26.6274ZM8 17.6354C8 18.1862 8.4487 18.6345 9 18.6345C10.6542 18.6345 12 19.9791 12 21.6318V23.6301C12 25.2828 10.6542 26.6274 9 26.6274C8.44766 26.6274 8 26.1802 8 25.6283C8 25.0765 8.44766 24.6292 9 24.6292C9.5513 24.6292 10 24.1809 10 23.6301V21.6318C10 21.081 9.5513 20.6327 9 20.6327C7.34583 20.6327 6 19.2881 6 17.6354C6 17.0835 6.44766 16.6362 7 16.6362C7.55234 16.6362 8 17.0835 8 17.6354Z" fill="black"></path>
  </symbol>
  <symbol fill="none" xmlns="http://www.w3.org/2000/svg" viewBox="0 0 6 10" id="arrow_right">
    <path d="M-6.24448e-08 8.57143L3.64583 5L-3.74669e-07 1.42857L0.729166 -3.18729e-08L5.83333 5L0.729167 10L-6.24448e-08 8.57143Z" fill="#242627"></path>
  </symbol>
  <symbol xmlns="http://www.w3.org/2000/svg" viewBox="0 0 30 30" id="calc">
    <path d="M0 14.4835H14.4829V0H0V14.4835ZM4.13749 6.20739H6.20657V4.13804C6.20657 3.56739 6.66998 3.1037 7.24145 3.1037C7.81291 3.1037 8.27632 3.56674 8.27632 4.13804V6.20739H10.3454C10.9155 6.20739 11.3796 6.67044 11.3796 7.24174C11.3796 7.81239 10.9162 8.27609 10.3454 8.27609H8.27632V10.3441C8.27632 10.9154 7.81291 11.3791 7.24145 11.3791C6.66998 11.3791 6.20657 10.9154 6.20657 10.3441V8.27609H4.13749C3.56669 8.27609 3.10262 7.81305 3.10262 7.24174C3.10328 6.67109 3.56669 6.20739 4.13749 6.20739ZM15.5171 0V14.4835H30V0H15.5171ZM25.8625 8.27609H19.6553C19.0845 8.27609 18.6204 7.81305 18.6204 7.24174C18.6204 6.67044 19.0838 6.20739 19.6553 6.20739H25.8625C26.4333 6.20739 26.8967 6.67044 26.8967 7.24174C26.896 7.81305 26.4333 8.27609 25.8625 8.27609ZM15.5171 30H30V15.5172H15.5171V30ZM19.6546 20.1737H25.8618C26.4326 20.1737 26.896 20.6374 26.896 21.2074C26.896 21.778 26.4333 22.2417 25.8618 22.2417H19.6546C19.0838 22.2417 18.6197 21.778 18.6197 21.2074C18.6204 20.6374 19.0838 20.1737 19.6546 20.1737ZM19.6546 23.2754H25.8618C26.4326 23.2754 26.896 23.7391 26.896 24.3104C26.896 24.8811 26.4333 25.3448 25.8618 25.3448H19.6546C19.0838 25.3448 18.6197 24.8811 18.6197 24.3104C18.6204 23.7391 19.0838 23.2754 19.6546 23.2754ZM0 30H14.4829V15.5172H0V30ZM3.92336 20.9041C3.52028 20.5004 3.52028 19.8463 3.92336 19.4426C4.32644 19.0383 4.98342 19.0383 5.3865 19.4426L7.24145 21.2967L9.0964 19.4426C9.49947 19.0383 10.1558 19.0383 10.5589 19.4426C10.9626 19.8463 10.9626 20.5004 10.5589 20.9041L8.70392 22.7596L10.5589 24.6143C10.9626 25.018 10.9626 25.6735 10.5589 26.0772C10.3573 26.2794 10.0928 26.3804 9.82696 26.3804C9.56245 26.3804 9.29727 26.2794 9.09573 26.0772L7.24078 24.223L5.38583 26.0772C5.18363 26.2794 4.91913 26.3804 4.65395 26.3804C4.38877 26.3804 4.12425 26.2794 3.92205 26.0772C3.51897 25.6735 3.51897 25.018 3.92205 24.6143L5.77699 22.7596L3.92336 20.9041Z"></path>
  </symbol>
  <symbol fill="none" xmlns="http://www.w3.org/2000/svg" viewBox="0 0 26 30" id="calc2">
    <path fill-rule="evenodd" clip-rule="evenodd" d="M21.924 29.596H3.67398C1.64798 29.596 0 27.976 0 25.985V3.612C0 1.62 1.64798 0 3.67398 0H21.924C23.95 0 25.599 1.62 25.599 3.612V25.985C25.599 27.976 23.95 29.596 21.924 29.596ZM3.673 1.599C2.529 1.599 1.59799 2.502 1.59799 3.612V7.2959H23.998V3.612C23.998 2.503 23.067 1.599 21.923 1.599H3.673ZM23.998 9.2959V25.985C23.998 27.095 23.068 27.997 21.923 27.997H3.673C2.529 27.997 1.59799 27.094 1.59799 25.985V9.2959H23.998ZM18.0156 17.3018H20.2446V23.7628H18.0156V17.3018ZM7.58835 13.061H5.35938V15.29H7.58835V13.061ZM9.59375 13.061H11.8238V15.29H9.59375V13.061ZM16.0024 13.061H13.7734V15.29H16.0024V13.061ZM5.35938 17.2969H7.58835V19.5259H5.35938V17.2969ZM11.8238 17.2969H9.59375V19.5259H11.8238V17.2969ZM13.7734 17.2969H16.0024V19.5259H13.7734V17.2969ZM20.2446 13.061H18.0156V15.29H20.2446V13.061ZM5.35938 21.533H7.58835V23.762H5.35938V21.533ZM11.8238 21.5332H9.59375V23.7622H11.8238V21.5332ZM13.7734 21.5332H16.0024V23.7622H13.7734V21.5332Z" fill="#242627"></path>
  </symbol>
  <symbol fill="none" xmlns="http://www.w3.org/2000/svg" viewBox="0 0 39 25" id="coins">
    <path d="M28.202 0C23.192 0 17.859 1.615 17.859 4.686V5.33301C15.516 4.36301 12.93 3.87799 10.343 3.87799C5.33399 3.87799 0 5.494 0 8.565V20.12C0 23.191 5.33399 24.808 10.343 24.808C14.142 24.808 17.455 23.919 19.233 22.545C21.09 23.999 24.727 24.808 28.121 24.808C33.131 24.808 38.464 23.192 38.464 20.12V4.60599C38.545 1.61499 33.212 0 28.202 0ZM10.426 5.414C13.496 5.414 16.323 6.05999 17.941 7.02899V9.93799C16.324 10.908 13.497 11.554 10.426 11.554C5.01199 11.554 1.698 9.776 1.698 8.483C1.698 7.191 5.01199 5.414 10.426 5.414ZM1.77798 11.069C3.63698 12.443 7.11199 13.17 10.425 13.17C13.01 13.251 15.596 12.767 17.94 11.716V13.737C16.323 14.707 13.496 15.352 10.425 15.352C5.01099 15.352 1.69699 13.576 1.69699 12.283V11.07H1.77798V11.069ZM1.77798 14.948C3.71698 16.321 7.19199 17.049 10.507 17.049C13.093 17.13 15.597 16.646 18.021 15.595V17.615C16.406 18.586 13.578 19.231 10.507 19.231C5.09199 19.231 1.77798 17.455 1.77798 16.161V14.948ZM10.426 23.109C5.01199 23.109 1.698 21.331 1.698 20.039V18.827C3.637 20.2 7.11199 20.928 10.426 20.928C13.011 21.009 15.597 20.524 17.941 19.474V20.12C17.941 20.524 18.021 20.929 18.263 21.332C16.971 22.221 14.143 23.109 10.426 23.109ZM36.929 20.119C36.929 21.413 33.616 23.19 28.202 23.19C22.788 23.19 19.474 21.413 19.474 20.119V18.827C21.414 20.2 24.889 20.928 28.202 20.928C31.515 20.928 34.909 20.2 36.929 18.827V20.119ZM36.929 16.242C36.929 17.534 33.616 19.311 28.202 19.311C22.788 19.311 19.474 17.534 19.474 16.242V14.948C21.414 16.321 24.889 17.049 28.202 17.049C31.515 17.049 34.909 16.321 36.929 14.948V16.242ZM36.929 12.362C36.929 13.655 33.616 15.432 28.202 15.432C22.788 15.432 19.556 13.655 19.556 12.362V11.069C21.494 12.443 24.969 13.17 28.202 13.17C31.435 13.17 34.909 12.443 36.929 11.069V12.362ZM36.929 8.483C36.929 9.776 33.616 11.554 28.202 11.554C22.788 11.554 19.474 9.776 19.474 8.483V7.19101C21.414 8.56401 24.889 9.29199 28.202 9.29199C31.515 9.29199 34.909 8.56401 36.929 7.19101V8.483ZM28.202 7.67599C22.788 7.67599 19.474 5.89799 19.474 4.60599C19.474 3.31299 22.787 1.53601 28.202 1.53601C33.615 1.53601 36.929 3.31299 36.929 4.60599C36.929 5.89699 33.615 7.67599 28.202 7.67599Z" fill="#242627"></path>
  </symbol>
  <symbol xmlns="http://www.w3.org/2000/svg" viewBox="0 0 72 72" id="comfort">
    <path d="M71.2869 51.01C71.234 50.9639 71.1696 50.9102 71.0975 50.8406C67.0637 47.0064 62.902 45.5319 58.725 46.464C58.0396 46.6166 57.557 46.8171 56.9417 47.2051L42.4379 56.362C42.0139 52.4469 39.1328 48.399 36.1286 47.1514L17.7409 42.2278L17.515 42.1628C16.8286 41.9604 16.1826 41.8427 15.2059 42.4576L0.829893 51.5345C0.633778 51.656 0.176181 51.9413 0.0367859 52.5524C-0.102609 53.1625 0.187715 53.6088 0.348259 53.8565L9.85116 68.9502C9.94537 69.1027 10.2328 69.5669 10.8625 69.7035C11.4893 69.84 11.9546 69.5368 12.119 69.4285C12.7669 69.0218 13.4158 68.6131 14.0619 68.2007C18.3696 68.5585 23.0331 69.3268 27.5438 70.0697C31.8881 70.7854 36.3795 71.5254 40.6219 71.9134L41.6304 71.9972C41.6678 71.9991 41.7044 72 41.7399 72C42.0764 72 42.3571 71.9171 42.6705 71.7232L70.9649 53.8574C71.3042 53.6437 71.9348 53.2454 71.9954 52.446C72.054 51.671 71.5359 51.2247 71.2869 51.01ZM2.3344 53.945L1.53648 52.768L2.44111 53.8649C2.40842 53.8941 2.37189 53.9205 2.3344 53.945ZM41.4294 69.146C41.2401 69.13 41.0535 69.115 40.8738 69.0999C36.7515 68.7242 32.313 67.9926 28.0206 67.2855C23.3859 66.5209 18.5936 65.7318 14.1147 65.3712C14.0224 65.3637 13.9359 65.3599 13.8542 65.3599C13.288 65.3599 12.9602 65.535 12.59 65.7685C12.268 65.9738 11.9459 66.1791 11.622 66.3834L3.3765 53.2868L16.7007 44.8737L35.0836 49.7878C37.3081 50.7765 39.5942 54.4318 39.6019 57.3507L22.0439 53.3885C21.2671 53.2134 20.4942 53.687 20.3144 54.4468C20.1347 55.2067 20.6192 55.9656 21.395 56.1408L40.4729 60.4457C40.8709 60.538 41.2718 60.4599 41.5919 60.2555L58.501 49.5798C58.8317 49.3717 59.0086 49.2973 59.3624 49.2182C62.3243 48.5572 65.2593 49.5242 68.3154 52.1691L41.4294 69.146Z"></path>
    <path d="M27.2323 38.8692C27.6291 38.8692 28.0232 38.6995 28.2973 38.3713C32.4465 33.3939 39.6365 30.422 47.5306 30.422C55.4313 30.422 62.6222 33.3939 66.7668 38.3703C67.255 38.9568 68.128 39.0379 68.7159 38.5483C69.3038 38.0596 69.384 37.1873 68.894 36.6009C65.6141 32.6627 60.6879 29.8467 55.0261 28.518C59.7198 25.9315 62.9102 20.9311 62.9102 15.1958C62.9102 6.8169 56.105 0 47.7401 0C39.3725 0 32.5655 6.8169 32.5655 15.1958C32.5655 20.885 35.7079 25.8467 40.3416 28.4506C34.5543 29.7489 29.509 32.5926 26.1682 36.6009C25.6791 37.1882 25.7585 38.0605 26.3463 38.5492C26.6057 38.7641 26.9194 38.8692 27.2323 38.8692ZM35.335 15.1958C35.335 8.34202 40.9008 2.76623 47.7411 2.76623C54.5795 2.76623 60.1425 8.34202 60.1425 15.1958C60.1425 22.0496 54.5795 27.6254 47.7411 27.6254C40.9008 27.6263 35.335 22.0496 35.335 15.1958Z"></path>
  </symbol>
  <symbol xmlns="http://www.w3.org/2000/svg" viewBox="0 0 74 74" id="education">
    <path d="M37.0064 45.2287C36.2762 45.2287 35.727 44.9027 34.897 44.4092L30.111 41.5746L1.74778 24.7786C0.68504 24.1497 -0.0166396 23.7345 0.000300072 22.7796C0.0172398 21.8549 0.739417 21.4612 1.37778 21.1138C1.56857 21.0096 1.80037 20.884 2.06873 20.7236C7.48943 17.4945 12.9806 14.1361 18.2916 10.8892C23.8755 7.47472 29.6474 3.94537 35.3579 0.55319C35.8474 0.261898 36.3359 0 36.919 0C37.5208 0 37.9398 0.26012 38.3838 0.534487L38.6888 0.720664C44.2887 4.04781 49.9804 7.50946 55.4849 10.8562C61.1133 14.2787 66.9335 17.8187 72.6546 21.2145L72.8847 21.349C73.3572 21.6251 74.0044 22.0019 74 22.8589C73.9955 23.7123 73.3429 24.0846 72.9096 24.3305L72.6261 24.4944C66.9147 27.8786 61.2302 31.2627 55.5456 34.6469C50.1275 37.8733 44.7086 41.0989 39.2656 44.3254C38.292 44.9045 37.7446 45.2287 37.0064 45.2287ZM3.73062 22.8455L36.2646 42.1118C36.5517 42.2828 36.8486 42.4592 37.0082 42.5331C37.1811 42.4548 37.511 42.2579 37.8338 42.0681C43.3418 38.8025 48.759 35.5778 54.1761 32.3522C59.4987 29.1827 64.8205 26.0141 70.1663 22.8455C64.7973 19.6484 59.3614 16.3435 54.0941 13.1393C48.5958 9.79526 42.9103 6.33807 37.3211 3.01715L36.9743 2.80604C36.9458 2.78733 36.9181 2.7704 36.8914 2.75347C36.8459 2.77931 36.7915 2.81049 36.7256 2.84968C31.0294 6.23295 25.2645 9.75874 19.6887 13.1678C14.4668 16.3623 9.07018 19.6627 3.73062 22.8455Z"></path>
    <path d="M36.9932 62.0226C36.8719 62.0226 36.7515 62.0066 36.632 61.9728C36.5063 61.9371 36.3887 61.8845 36.2799 61.8159L8.52734 44.9281V28.7129C8.52734 27.9744 9.12647 27.3767 9.86469 27.3767C10.6029 27.3767 11.202 27.9744 11.202 28.7129V43.4271L35.6567 58.308V45.3263C35.6567 44.5878 36.2558 43.9901 36.994 43.9901C37.7322 43.9901 38.3314 44.5878 38.3314 45.3263V58.2964L62.7985 43.4066V28.6933C62.7985 27.9548 63.3977 27.3571 64.1359 27.3571C64.8741 27.3571 65.4732 27.9548 65.4732 28.6933V44.9085L37.8259 61.7331C37.7706 61.7768 37.7126 61.816 37.6529 61.8498C37.4906 61.9416 37.3079 62.0004 37.1135 62.0173C37.0734 62.0208 37.0333 62.0226 36.9932 62.0226Z"></path>
    <path d="M60.684 73.9381H48.2227V60.9787C48.2227 57.8208 51.0186 55.2509 54.4538 55.2509C57.889 55.2509 60.6831 57.8199 60.6831 60.9787V73.9381H60.684ZM50.8973 71.2657H58.0094V60.9787C58.0094 59.2942 56.4143 57.9233 54.4547 57.9233C52.4942 57.9233 50.8982 59.2942 50.8982 60.9787V71.2657H50.8973Z"></path>
    <path d="M54.3355 57.0378C53.5973 57.0378 52.9981 56.4401 52.9981 55.7016V34.4729L35.6483 23.8064C35.0198 23.4198 34.8228 22.5967 35.2106 21.9687C35.5984 21.3389 36.4222 21.1456 37.0499 21.5313L55.6728 32.9799V55.7025C55.6728 56.4401 55.0746 57.0378 54.3355 57.0378Z"></path>
  </symbol>
  <symbol fill="none" xmlns="http://www.w3.org/2000/svg" viewBox="0 0 95 59" id="dynamics">
    <path d="M2 56.9999L34.811 24.6774C35.1945 24.2996 35.8082 24.2932 36.1995 24.6629L52.5049 40.0683C52.8894 40.4316 53.4903 40.4326 53.876 40.0706L71 23.9999" stroke-width="3"></path>
    <path d="M64.0626 17.2238L82.2372 11.7468L77.8931 30.2249L64.0626 17.2238Z" stroke-width="3"></path>
  </symbol>
  <symbol xmlns="http://www.w3.org/2000/svg" viewBox="0 0 16 17" id="inst">
    <path fill-rule="evenodd" clip-rule="evenodd" d="M15.8894 4.10684C15.6951 2.5137 14.8326 1.50204 13.3246 1.17785C12.6995 1.04303 12.0447 1.00495 11.4022 0.99775C9.47262 0.975108 7.54408 0.983341 5.61554 0.994662C5.11901 0.996721 4.62146 1.03583 4.12802 1.09346C3.13291 1.21079 2.28172 1.60598 1.69884 2.46224C1.26091 3.10444 1.09951 3.83823 1.07278 4.59878C1.02652 5.89346 1.01213 7.18917 0.984375 8.48386C0.994655 8.48386 1.00494 8.48489 1.01419 8.48489C1.01419 9.28146 1.00082 10.0791 1.0183 10.8746C1.03269 11.5477 1.04914 12.2249 1.12624 12.8917C1.31025 14.4859 2.17892 15.4965 3.68803 15.8218C4.31408 15.9566 4.96892 15.9947 5.61143 16.0029C7.53071 16.0245 9.45103 16.0173 11.3724 16.005C11.8761 16.0029 12.3839 15.9679 12.8866 15.9062C14.4739 15.7127 15.4813 14.8471 15.8051 13.3333C15.9398 12.7065 15.9778 12.0489 15.985 11.4046C16.0076 9.47802 16.0004 7.55247 15.9891 5.62588C15.984 5.11953 15.9501 4.6101 15.8894 4.10684ZM8.50321 13.2211C5.92497 13.219 3.80317 11.0897 3.80111 8.50341C3.79905 5.91713 5.91777 3.78574 8.49704 3.77957C11.0753 3.77442 13.2022 5.89655 13.2115 8.48386C13.2207 11.0804 11.0907 13.2231 8.50321 13.2211ZM13.3996 4.70272C12.8085 4.70787 12.2965 4.20152 12.2914 3.60461C12.2852 3.00461 12.7838 2.50238 13.3852 2.50032C13.9938 2.49724 14.4831 2.98197 14.4862 3.59123C14.4903 4.19741 14 4.69758 13.3996 4.70272ZM8.53919 5.44475C6.84915 5.42725 5.48087 6.76928 5.46031 8.46121C5.44078 10.1573 6.7741 11.5322 8.46003 11.5559C10.1604 11.5785 11.5379 10.2303 11.5523 8.52708C11.5667 6.83206 10.2251 5.46121 8.53919 5.44475Z"></path>
  </symbol>
  <symbol xmlns="http://www.w3.org/2000/svg" viewBox="0 0 10 17" id="fb">
    <path d="M9.66125 0.127603L7.50108 0.125122C5.0732 0.125122 3.50519 1.74366 3.50519 4.24649V6.14781H1.33268C1.14516 6.14781 0.992188 6.30036 0.992188 6.49136V9.24473C0.992188 9.432 1.14516 9.5858 1.33268 9.5858H3.50519V16.5362C3.50519 16.726 3.65693 16.8748 3.84445 16.8748H6.67945C6.86697 16.8748 7.01871 16.726 7.01871 16.5362V9.5858H9.56009C9.74637 9.5858 9.89935 9.432 9.89935 9.24473V6.49136C9.89935 6.39834 9.86357 6.31276 9.80065 6.24951C9.73527 6.18377 9.65015 6.14781 9.56009 6.14781H7.01871V4.53795C7.01871 3.76279 7.20253 3.37087 8.20551 3.37087H9.66125C9.84877 3.37087 10.0005 3.21708 10.0005 3.02856V0.469913C10.0005 0.280154 9.84877 0.127603 9.66125 0.127603Z"></path>
  </symbol>
  <symbol fill="none" xmlns="http://www.w3.org/2000/svg" viewBox="0 0 115 25" id="logo">
    <path d="M24.922 9.84247C23.6633 9.84247 22.6562 10.7775 22.6562 12.0078C22.6562 13.2381 23.6633 14.1732 24.922 14.1732C26.1808 14.1732 27.1878 13.2381 27.1878 12.0078C27.1374 10.8267 26.1304 9.84247 24.922 9.84247Z" fill="#7D7D7D"></path>
    <path d="M52.0626 7.18491C51.3073 4.28137 49.4947 2.26365 46.6751 1.13176C45.4667 0.639636 44.1576 0.491998 42.8988 0.442786C40.9352 0.393573 38.9212 0.393573 36.9575 0.442786C36.5547 0.442786 36.5547 0.442786 36.5547 0.836486C36.5547 3.83845 36.5547 6.79121 36.5547 9.79318C36.5547 12.7951 36.5547 15.7971 36.5547 18.7991C36.5547 18.8975 36.5547 18.9467 36.5547 19.0451C36.5547 19.1436 36.605 19.1436 36.6554 19.1436C36.7561 19.1436 36.8064 19.1436 36.9071 19.1436C37.2596 19.1436 37.5617 19.1436 37.9141 19.1436H40.8345C40.8848 19.1436 40.9352 19.1436 40.9855 19.1436C42.2443 19.1436 43.8555 19.0944 44.359 19.0451C45.6681 18.8975 46.9268 18.553 48.0345 17.864C50.9045 16.1416 52.3143 13.5333 52.5157 10.2853C52.5157 9.25184 52.3647 8.21838 52.0626 7.18491ZM47.1282 13.2381C46.2723 14.4192 45.0639 15.1574 43.6037 15.3542C43.2513 15.4034 41.7408 15.4034 40.6331 15.4034C40.6331 11.8109 40.6331 8.21838 40.6331 4.57664C40.6331 4.52743 40.6331 4.42901 40.6331 4.37979C40.6331 4.08452 40.6331 4.08452 40.9352 4.08452C41.338 4.08452 41.7408 4.13373 42.1436 4.13373C42.7478 4.18294 43.352 4.18294 43.9562 4.33058C46.6247 4.87192 48.0849 6.88964 48.2863 9.15341C48.4373 10.7282 48.0345 12.057 47.1282 13.2381Z" fill="#7D7D7D"></path>
    <path d="M12.5374 15.4036H10.1709C10.0702 15.4036 10.0199 15.4036 9.91917 15.4036C9.61707 15.4036 9.26462 15.4036 8.96252 15.3544C6.0422 14.8623 4.33029 12.6477 4.12889 10.3347C4.02819 8.75992 4.43099 7.38197 5.48835 6.20087C6.49535 5.06898 7.80446 4.47843 9.36532 4.33079C10.0199 4.28158 10.7248 4.28158 11.3793 4.18315C12.5374 4.03551 13.3933 3.44496 13.8465 2.4115C14.0982 1.87016 14.2493 1.2304 14.4003 0.689057C14.4507 0.541419 14.4003 0.492207 14.2493 0.492207C14.1989 0.492207 14.1486 0.492207 14.0982 0.492207C12.5877 0.492207 11.1276 0.492207 9.61707 0.492207C8.66042 0.492207 7.65341 0.639844 6.64641 0.984333C4.22959 1.77173 2.36663 3.14969 1.15823 5.41347C0.604374 6.49614 0.201571 7.62803 0.0505206 8.80914C-0.05018 9.69496 -0.05018 10.63 0.151221 11.5158C0.604374 13.632 1.61138 15.4528 3.27294 16.88C5.08555 18.4056 7.20026 19.1438 9.56672 19.2422C10.5234 19.2914 11.48 19.2914 12.4367 19.2914H12.5374C13.5947 19.2914 14.501 18.4056 14.501 17.3721C14.501 16.2402 13.6451 15.4036 12.5374 15.4036Z" fill="#7D7D7D"></path>
    <path d="M33.0288 7.08649C33.0288 6.39752 32.9281 5.70854 32.777 5.01956C32.2735 3.00185 31.1155 1.52547 29.2022 0.688856C28.3462 0.295155 27.4399 0.147517 26.4832 0.0983047C26.4329 0.0983047 26.3825 0.0983047 26.3322 0.0983047H23.4622C23.4119 0.0983047 23.3615 0.0983047 23.3112 0.0983047C22.3545 0.0983047 21.4482 0.295155 20.5922 0.688856C18.6789 1.57468 17.4705 3.05106 17.0174 5.01956C16.8663 5.70854 16.7656 6.39752 16.7656 7.08649C16.7656 11.0235 16.7656 14.9605 16.7656 18.8483C16.7656 18.8975 16.7656 18.9467 16.7656 18.9959C16.7656 19.0944 16.816 19.1928 16.9167 19.1928C16.967 19.1928 17.0174 19.1928 17.0677 19.1928C18.2258 19.1928 19.3838 19.1928 20.5419 19.1928C20.5922 19.1928 20.6426 19.1928 20.6929 19.1928C20.7936 19.1928 20.844 19.1436 20.844 19.0452V6.44673C20.844 4.97035 22.1028 3.74004 23.6133 3.74004H26.0804C26.7853 3.74004 27.4399 3.9861 27.893 4.42901C27.9434 4.42901 27.9434 4.47823 27.9937 4.47823C28.0441 4.52744 28.0944 4.57665 28.1448 4.62586C28.1951 4.67508 28.1951 4.72429 28.2455 4.7735C28.5979 5.21641 28.8497 5.80697 28.8497 6.44673V12.7459C28.8497 14.7637 28.8497 16.7814 28.8497 18.7991V19.0452C28.8497 19.1436 28.9 19.242 29.0007 19.242C29.0511 19.242 29.1014 19.242 29.1518 19.242C30.3099 19.242 31.4679 19.242 32.626 19.242C32.6763 19.242 32.7267 19.242 32.777 19.242C32.9281 19.242 32.9281 19.1928 32.9281 19.0452C32.9281 18.9959 32.9281 18.9467 32.9281 18.8975C33.0288 14.9605 33.0288 11.0235 33.0288 7.08649Z" fill="#7D7D7D"></path>
    <path d="M66.6115 7.13579C66.108 6.74209 65.5541 6.44682 64.9499 6.24997C62.3317 5.31493 59.9149 5.65941 57.8002 7.38186C55.9372 8.90745 55.182 10.9252 55.4337 13.2874C55.6351 15.3543 56.5918 16.9783 58.3037 18.1594C59.8646 19.2421 61.5765 19.5866 63.4394 19.3405C65.2017 19.0945 66.7122 18.3563 67.9206 17.0767C68.122 16.8307 68.122 16.8799 67.9206 16.6338C67.115 15.6496 65.6548 15.2559 64.4464 15.6496C64.245 15.6988 64.0436 15.7972 63.7919 15.8464C62.231 16.3386 60.9219 15.9448 59.7639 14.813C59.7135 14.7637 59.6128 14.6653 59.6128 14.5177C59.6632 14.5177 59.7135 14.5177 59.7135 14.4685C62.6842 13.7795 65.7052 13.1397 68.6758 12.4508C68.978 12.4015 68.978 12.4015 68.978 12.0571C68.978 11.5157 68.9276 11.0236 68.7766 10.4822C68.4745 9.15351 67.8199 7.97241 66.6115 7.13579ZM65.252 11.1712C64.0436 11.4665 62.8856 11.7126 61.6772 12.0078C60.8212 12.2047 59.9149 12.4015 59.0589 12.5984C59.0086 12.5984 58.9582 12.6476 58.9079 12.5984C58.8575 12.2539 58.9079 11.9586 59.0086 11.6141C59.3107 10.433 60.0156 9.54721 61.224 9.20272C61.8786 9.00587 62.6338 8.95666 63.2884 9.1043C64.3457 9.30115 65.0003 9.99012 65.3527 10.9744C65.5038 11.122 65.4031 11.122 65.252 11.1712Z" fill="#464646"></path>
    <path d="M114.998 12.3032C114.998 11.6634 114.998 11.0237 114.947 10.3839C114.796 8.56305 113.89 7.18509 112.178 6.34848C110.919 5.70872 109.509 5.61029 108.15 5.85635C105.733 6.29927 103.971 8.16935 103.921 10.5808C103.87 11.9095 103.87 13.2382 103.921 14.567C103.921 15.9942 103.921 17.3721 103.921 18.7993C103.921 19.0453 103.921 19.0453 104.172 19.0453C105.129 19.0453 106.086 19.0453 107.042 19.0453C107.445 19.0453 107.395 19.0945 107.395 18.7008C107.395 16.3879 107.395 14.0749 107.395 11.7619C107.395 11.2697 107.445 10.7776 107.596 10.2855C107.798 9.64572 108.2 9.20281 108.905 9.05517C109.157 9.00596 109.409 9.00596 109.661 9.00596C110.466 9.05517 110.97 9.49809 111.171 10.2363C111.322 10.7284 111.372 11.1713 111.372 11.6634C111.372 13.9764 111.372 16.2894 111.372 18.6516C111.372 19.0453 111.322 18.9961 111.725 18.9961C112.682 18.9961 113.689 18.9961 114.645 18.9961C114.947 18.9961 114.947 19.0453 114.947 18.7008C114.947 18.6516 114.947 18.6516 114.947 18.6024C114.998 16.5847 114.998 14.4193 114.998 12.3032Z" fill="#464646"></path>
    <path d="M78.9459 12.5494C78.5431 12.2541 78.1402 12.0081 77.7374 11.762C77.2339 11.5159 76.6801 11.2699 76.1766 11.0238C75.8745 10.8762 75.5724 10.7285 75.2703 10.5809C75.0689 10.4825 74.8675 10.3348 74.7164 10.138C74.4647 9.7935 74.5654 9.35059 74.9178 9.15374C75.1696 9.0061 75.4213 8.95689 75.6731 9.0061C75.9248 9.05531 76.1262 9.15374 76.3276 9.25216C76.8311 9.54744 77.385 9.7935 77.8885 10.0396C78.4423 10.2856 79.0466 10.3841 79.6508 10.2364C80.2046 10.0888 80.1543 10.1872 80.0536 9.64586C80.0536 9.59665 80.0536 9.59665 80.0536 9.54744C79.7011 8.07106 78.8955 7.0376 77.4353 6.49626C76.2269 6.05334 74.9682 5.95492 73.7094 6.29941C72.4506 6.59468 71.5443 7.33287 71.1415 8.56319C70.9401 9.15374 70.9401 9.7935 71.0408 10.4333C71.1415 11.2207 71.5443 11.762 72.1989 12.2541C72.4003 12.4018 72.6521 12.5494 72.9038 12.6478C73.5584 12.9431 74.2129 13.2876 74.8675 13.5829C75.3206 13.7797 75.7234 14.0258 76.1262 14.3211C76.4787 14.5671 76.5794 14.9116 76.4787 15.3053C76.378 15.7482 76.1262 16.0435 75.6731 16.1419C75.0689 16.2896 74.515 16.1911 74.0619 15.8467C73.8101 15.699 73.6087 15.5022 73.357 15.4037C72.501 14.8624 71.2422 15.0592 70.5373 15.7974C70.3359 15.9943 70.2856 16.1911 70.3863 16.4372C70.638 16.9785 70.9401 17.4215 71.3933 17.8152C72.5514 18.7502 73.8605 19.2915 75.371 19.2915C76.4787 19.2915 77.4857 18.9963 78.4424 18.5533C79.0466 18.2581 79.4997 17.8152 79.8522 17.2246C80.255 16.4864 80.406 15.699 80.3053 14.9116C80.1543 13.8781 79.7515 13.0907 78.9459 12.5494Z" fill="#464646"></path>
    <path d="M86.2975 7.52978C86.2975 7.13608 86.2975 6.69316 86.2975 6.29946C86.2975 6.10261 86.2975 6.0534 86.0458 6.0534C85.4416 6.0534 84.8877 6.0534 84.2835 6.0534C83.8304 6.0534 83.4276 6.0534 82.9744 6.0534C82.7227 6.0534 82.7227 6.0534 82.7227 6.29946C82.7227 6.34867 82.7227 6.39789 82.7227 6.4471C82.7227 8.46482 82.7227 10.5317 82.7227 12.5495C82.7227 14.6164 82.7227 16.6833 82.7227 18.7995C82.7227 19.0947 82.7227 19.0947 83.0248 19.0947C83.9814 19.0947 84.9381 19.0947 85.8947 19.0947C86.2975 19.0947 86.2472 19.144 86.2472 18.701C86.2975 14.9609 86.2975 11.2699 86.2975 7.52978Z" fill="#464646"></path>
    <path d="M84.485 0.000136262C83.2262 0.0493489 82.2695 0.984388 82.2695 2.16549C82.2695 3.39581 83.2765 4.33085 84.485 4.33085C85.7437 4.33085 86.7507 3.34659 86.7507 2.16549C86.8011 0.984388 85.7437 -0.0490763 84.485 0.000136262Z" fill="#464646"></path>
    <path d="M101.756 15.7481C101.756 15.0591 101.756 14.3701 101.756 13.6811C101.756 13.4843 101.756 13.2382 101.756 13.0414C101.756 12.5984 101.706 12.2047 101.706 11.7618C101.706 11.565 101.655 11.3189 101.605 11.1221C101.303 9.25199 100.397 7.82483 98.9364 6.88979C98.4329 6.59451 97.9294 6.29924 97.3252 6.10238C97.0231 6.00396 96.721 5.90553 96.4189 5.85632C95.5126 5.65947 94.5559 5.70868 93.5993 5.85632C92.9951 5.95475 92.4412 6.10238 91.9377 6.34845C91.7867 6.44687 91.5853 6.49609 91.4342 6.59451C90.7797 6.98821 90.2258 7.48034 89.7727 8.07089C88.7657 9.39963 88.3125 10.8268 88.3125 12.3524C88.3125 12.8445 88.3629 13.3858 88.4636 13.878C88.5643 14.5177 88.7657 15.1083 89.0174 15.6496C89.4202 16.437 89.9237 17.126 90.6286 17.6673C91.3335 18.2087 92.1391 18.6024 93.1461 18.8977C93.4482 18.9961 93.8007 19.0453 94.1028 19.0945C94.3545 19.1437 94.6063 19.1437 94.9084 19.1437C96.3685 19.1437 97.6273 18.6024 98.2818 17.815C98.2818 18.1103 98.2818 18.4055 98.2818 18.7008C98.2818 18.8484 98.2819 18.9961 98.2315 19.1437C98.1308 19.7343 97.879 20.2264 97.5266 20.6201C97.3252 20.817 97.1238 20.9646 96.9224 21.1122C96.6706 21.2599 96.4189 21.3583 96.1168 21.4567C95.9154 21.5059 95.714 21.5551 95.5126 21.6044C95.1098 21.7028 94.707 21.7028 94.3042 21.7028C94.1028 21.7028 93.9014 21.7028 93.7 21.6536C93.2972 21.6044 92.844 21.5551 92.4412 21.5059C92.0384 21.4567 91.6356 21.3583 91.1825 21.3091C91.1321 21.3091 91.0314 21.3091 91.0314 21.3091C90.9811 21.3091 90.9811 21.3583 90.9307 21.4567C90.83 21.752 90.7797 22.0473 90.679 22.3918C90.5783 22.8347 90.4272 23.2284 90.3265 23.6713C90.2762 23.8189 90.2258 24.0158 90.1755 24.1634C90.1755 24.2126 90.1755 24.2618 90.1755 24.2618C90.1755 24.3603 90.2258 24.4095 90.3265 24.4095C90.3769 24.4095 90.3769 24.4095 90.4272 24.4587C91.2328 24.7047 91.9881 24.9016 92.7937 25C94.1028 25.1477 95.4622 25.1477 96.7713 24.8524C97.7783 24.6555 98.735 24.311 99.591 23.6713C99.9434 23.376 100.246 23.0807 100.497 22.7855C101.303 21.8504 101.706 20.6693 101.806 19.3898V19.3406C101.756 18.1103 101.706 16.9292 101.756 15.7481ZM95.0594 15.7973C94.707 15.7973 94.4049 15.7481 94.1028 15.6988C93.0958 15.4528 92.3405 14.813 92.0384 13.7796C91.8874 13.2382 91.837 12.6969 91.837 12.2047C91.837 12.0079 91.8874 11.8603 91.8874 11.6634C91.9377 11.4666 91.9377 11.2697 92.0384 11.1221C92.3909 9.99018 93.3475 9.20278 94.5056 9.10435C94.707 9.10435 94.9587 9.10435 95.1601 9.10435H95.2105C95.4119 9.10435 95.6133 9.15357 95.8147 9.20278H95.865C96.0664 9.25199 96.2175 9.35042 96.4189 9.39963C96.4189 9.39963 96.4692 9.39963 96.4692 9.44884C96.6203 9.54727 96.7713 9.64569 96.9224 9.74412L96.9727 9.79333C97.1238 9.89176 97.2748 10.0394 97.3755 10.187C97.3755 10.187 97.3755 10.2362 97.4259 10.2362C97.5266 10.3839 97.6777 10.5315 97.728 10.7284C97.728 10.7284 97.728 10.7284 97.728 10.7776C97.8287 10.9744 97.8791 11.1221 97.9798 11.3189C98.0301 11.5158 98.0804 11.7126 98.1308 11.9587C98.1308 12.0571 98.1308 12.1555 98.1308 12.254C98.1308 13.0414 98.1308 13.7796 98.1812 14.567C97.5266 15.3051 96.3685 15.7973 95.0594 15.7973Z" fill="#464646"></path>
  </symbol>
  <symbol fill="none" xmlns="http://www.w3.org/2000/svg" viewBox="0 0 36 29" id="persons">
    <mask id="path-1-outside-1_436_233" maskUnits="userSpaceOnUse" x="0" y="-0.350098" width="36" height="30" fill="black">
      <rect fill="white" y="-0.350098" width="36" height="30"></rect>
      <path d="M30.1432 18.0945C32.4504 15.542 32.2532 11.6 29.7022 9.29102C28.5564 8.253 27.0647 7.67929 25.5197 7.68026H25.0427C25.032 3.79606 21.8831 0.649902 18.0002 0.649902C14.1169 0.649902 10.969 3.79606 10.9583 7.68026H10.4813C8.93526 7.67881 7.44459 8.253 6.29829 9.29102C3.74778 11.5995 3.55009 15.542 5.85726 18.0945C2.85697 19.6902 0.986954 22.8184 1.00007 26.2188V27.8962C1.00007 28.2988 1.32599 28.6255 1.72865 28.6255C2.13131 28.6255 2.45723 28.2988 2.45723 27.8962V26.2188C2.45625 23.15 4.27187 20.3728 7.08127 19.1447C7.25662 19.2595 7.43828 19.365 7.62528 19.4607C7.75497 18.9818 7.9172 18.5122 8.111 18.0552C6.63927 17.199 5.73194 15.6261 5.72612 13.923V13.8987C5.72854 11.2562 7.87105 9.11697 10.5105 9.1194C10.6945 9.11843 10.8786 9.13009 11.0617 9.15294C11.0627 9.15975 11.0632 9.16656 11.0642 9.17336C11.3012 10.5454 11.9399 11.8168 12.9002 12.8247C10.7387 13.9575 9.04406 15.8138 8.111 18.0707C7.9172 18.5272 7.75497 18.9969 7.62528 19.4758C7.41448 20.3218 7.31005 21.1906 7.31442 22.0624V27.8967C7.31442 28.2993 7.64034 28.626 8.043 28.626C8.44566 28.626 8.77158 28.2993 8.77158 27.8967V22.0624C8.76672 18.5044 10.8626 15.279 14.1145 13.8408C16.4071 15.367 19.3807 15.4049 21.7116 13.9381C22.6136 14.3858 23.435 14.9829 24.1402 15.7029C25.8232 17.3886 26.7612 19.679 26.7432 22.0624V27.8967C26.7432 28.2993 27.0696 28.626 27.4718 28.626C27.8739 28.626 28.2003 28.2993 28.2003 27.8967V22.0624C28.2003 21.2543 28.111 20.4492 27.9332 19.6611C27.9317 19.6533 27.9288 19.6465 27.9274 19.6392C28.2659 19.4938 28.5894 19.3173 28.8944 19.1112C31.7252 20.3369 33.5535 23.1325 33.5428 26.2193V27.8967C33.5428 28.2993 33.8692 28.626 34.2713 28.626C34.6735 28.626 34.9999 28.2993 34.9999 27.8967V26.2193C35.0135 22.8184 33.1435 19.6902 30.1432 18.0945ZM21.4391 12.338C21.2371 12.3735 21.0608 12.4936 20.9534 12.6686C18.3514 14.3173 14.9067 13.5423 13.2596 10.9378C12.7982 10.2075 12.5121 9.38097 12.4242 8.52138C12.4266 8.48103 12.4266 8.44018 12.4242 8.39934V7.94281C12.4242 4.85499 14.9252 2.35158 18.01 2.35158C21.0948 2.35158 23.5957 4.85499 23.5957 7.94281V8.39934C23.5933 8.44018 23.5933 8.48103 23.5957 8.52138C23.4277 10.0354 22.6486 11.4142 21.4391 12.338ZM27.5024 18.2302C26.9943 16.9019 26.2142 15.6879 25.2039 14.6717C24.539 14.0018 23.7876 13.4232 22.9696 12.9506C24.0008 11.9262 24.6881 10.6062 24.9363 9.17288C24.9378 9.16607 24.9378 9.15927 24.9392 9.15246C25.1219 9.12961 25.3064 9.11794 25.4905 9.11891C28.128 9.12231 30.2622 11.2645 30.2593 13.9045C30.2559 15.7598 29.182 17.4464 27.5024 18.2302Z"></path>
    </mask>
    <path d="M30.1432 18.0945C32.4504 15.542 32.2532 11.6 29.7022 9.29102C28.5564 8.253 27.0647 7.67929 25.5197 7.68026H25.0427C25.032 3.79606 21.8831 0.649902 18.0002 0.649902C14.1169 0.649902 10.969 3.79606 10.9583 7.68026H10.4813C8.93526 7.67881 7.44459 8.253 6.29829 9.29102C3.74778 11.5995 3.55009 15.542 5.85726 18.0945C2.85697 19.6902 0.986954 22.8184 1.00007 26.2188V27.8962C1.00007 28.2988 1.32599 28.6255 1.72865 28.6255C2.13131 28.6255 2.45723 28.2988 2.45723 27.8962V26.2188C2.45625 23.15 4.27187 20.3728 7.08127 19.1447C7.25662 19.2595 7.43828 19.365 7.62528 19.4607C7.75497 18.9818 7.9172 18.5122 8.111 18.0552C6.63927 17.199 5.73194 15.6261 5.72612 13.923V13.8987C5.72854 11.2562 7.87105 9.11697 10.5105 9.1194C10.6945 9.11843 10.8786 9.13009 11.0617 9.15294C11.0627 9.15975 11.0632 9.16656 11.0642 9.17336C11.3012 10.5454 11.9399 11.8168 12.9002 12.8247C10.7387 13.9575 9.04406 15.8138 8.111 18.0707C7.9172 18.5272 7.75497 18.9969 7.62528 19.4758C7.41448 20.3218 7.31005 21.1906 7.31442 22.0624V27.8967C7.31442 28.2993 7.64034 28.626 8.043 28.626C8.44566 28.626 8.77158 28.2993 8.77158 27.8967V22.0624C8.76672 18.5044 10.8626 15.279 14.1145 13.8408C16.4071 15.367 19.3807 15.4049 21.7116 13.9381C22.6136 14.3858 23.435 14.9829 24.1402 15.7029C25.8232 17.3886 26.7612 19.679 26.7432 22.0624V27.8967C26.7432 28.2993 27.0696 28.626 27.4718 28.626C27.8739 28.626 28.2003 28.2993 28.2003 27.8967V22.0624C28.2003 21.2543 28.111 20.4492 27.9332 19.6611C27.9317 19.6533 27.9288 19.6465 27.9274 19.6392C28.2659 19.4938 28.5894 19.3173 28.8944 19.1112C31.7252 20.3369 33.5535 23.1325 33.5428 26.2193V27.8967C33.5428 28.2993 33.8692 28.626 34.2713 28.626C34.6735 28.626 34.9999 28.2993 34.9999 27.8967V26.2193C35.0135 22.8184 33.1435 19.6902 30.1432 18.0945ZM21.4391 12.338C21.2371 12.3735 21.0608 12.4936 20.9534 12.6686C18.3514 14.3173 14.9067 13.5423 13.2596 10.9378C12.7982 10.2075 12.5121 9.38097 12.4242 8.52138C12.4266 8.48103 12.4266 8.44018 12.4242 8.39934V7.94281C12.4242 4.85499 14.9252 2.35158 18.01 2.35158C21.0948 2.35158 23.5957 4.85499 23.5957 7.94281V8.39934C23.5933 8.44018 23.5933 8.48103 23.5957 8.52138C23.4277 10.0354 22.6486 11.4142 21.4391 12.338ZM27.5024 18.2302C26.9943 16.9019 26.2142 15.6879 25.2039 14.6717C24.539 14.0018 23.7876 13.4232 22.9696 12.9506C24.0008 11.9262 24.6881 10.6062 24.9363 9.17288C24.9378 9.16607 24.9378 9.15927 24.9392 9.15246C25.1219 9.12961 25.3064 9.11794 25.4905 9.11891C28.128 9.12231 30.2622 11.2645 30.2593 13.9045C30.2559 15.7598 29.182 17.4464 27.5024 18.2302Z" fill="black"></path>
    <path d="M30.1432 18.0945C32.4504 15.542 32.2532 11.6 29.7022 9.29102C28.5564 8.253 27.0647 7.67929 25.5197 7.68026H25.0427C25.032 3.79606 21.8831 0.649902 18.0002 0.649902C14.1169 0.649902 10.969 3.79606 10.9583 7.68026H10.4813C8.93526 7.67881 7.44459 8.253 6.29829 9.29102C3.74778 11.5995 3.55009 15.542 5.85726 18.0945C2.85697 19.6902 0.986954 22.8184 1.00007 26.2188V27.8962C1.00007 28.2988 1.32599 28.6255 1.72865 28.6255C2.13131 28.6255 2.45723 28.2988 2.45723 27.8962V26.2188C2.45625 23.15 4.27187 20.3728 7.08127 19.1447C7.25662 19.2595 7.43828 19.365 7.62528 19.4607C7.75497 18.9818 7.9172 18.5122 8.111 18.0552C6.63927 17.199 5.73194 15.6261 5.72612 13.923V13.8987C5.72854 11.2562 7.87105 9.11697 10.5105 9.1194C10.6945 9.11843 10.8786 9.13009 11.0617 9.15294C11.0627 9.15975 11.0632 9.16656 11.0642 9.17336C11.3012 10.5454 11.9399 11.8168 12.9002 12.8247C10.7387 13.9575 9.04406 15.8138 8.111 18.0707C7.9172 18.5272 7.75497 18.9969 7.62528 19.4758C7.41448 20.3218 7.31005 21.1906 7.31442 22.0624V27.8967C7.31442 28.2993 7.64034 28.626 8.043 28.626C8.44566 28.626 8.77158 28.2993 8.77158 27.8967V22.0624C8.76672 18.5044 10.8626 15.279 14.1145 13.8408C16.4071 15.367 19.3807 15.4049 21.7116 13.9381C22.6136 14.3858 23.435 14.9829 24.1402 15.7029C25.8232 17.3886 26.7612 19.679 26.7432 22.0624V27.8967C26.7432 28.2993 27.0696 28.626 27.4718 28.626C27.8739 28.626 28.2003 28.2993 28.2003 27.8967V22.0624C28.2003 21.2543 28.111 20.4492 27.9332 19.6611C27.9317 19.6533 27.9288 19.6465 27.9274 19.6392C28.2659 19.4938 28.5894 19.3173 28.8944 19.1112C31.7252 20.3369 33.5535 23.1325 33.5428 26.2193V27.8967C33.5428 28.2993 33.8692 28.626 34.2713 28.626C34.6735 28.626 34.9999 28.2993 34.9999 27.8967V26.2193C35.0135 22.8184 33.1435 19.6902 30.1432 18.0945ZM21.4391 12.338C21.2371 12.3735 21.0608 12.4936 20.9534 12.6686C18.3514 14.3173 14.9067 13.5423 13.2596 10.9378C12.7982 10.2075 12.5121 9.38097 12.4242 8.52138C12.4266 8.48103 12.4266 8.44018 12.4242 8.39934V7.94281C12.4242 4.85499 14.9252 2.35158 18.01 2.35158C21.0948 2.35158 23.5957 4.85499 23.5957 7.94281V8.39934C23.5933 8.44018 23.5933 8.48103 23.5957 8.52138C23.4277 10.0354 22.6486 11.4142 21.4391 12.338ZM27.5024 18.2302C26.9943 16.9019 26.2142 15.6879 25.2039 14.6717C24.539 14.0018 23.7876 13.4232 22.9696 12.9506C24.0008 11.9262 24.6881 10.6062 24.9363 9.17288C24.9378 9.16607 24.9378 9.15927 24.9392 9.15246C25.1219 9.12961 25.3064 9.11794 25.4905 9.11891C28.128 9.12231 30.2622 11.2645 30.2593 13.9045C30.2559 15.7598 29.182 17.4464 27.5024 18.2302Z" stroke="black" stroke-width="0.6" mask="url(#path-1-outside-1_436_233)"></path>
  </symbol>
  <symbol xmlns="http://www.w3.org/2000/svg" viewBox="0 0 11 18" id="ok">
    <path d="M4.59836 12.7964C3.1782 12.6541 1.89771 12.3181 0.801413 11.4943C0.665383 11.3918 0.52494 11.293 0.400806 11.1786C-0.0790409 10.7358 -0.12739 10.2287 0.252304 9.70612C0.577127 9.25893 1.1224 9.1393 1.68916 9.39607C1.7989 9.44584 1.90347 9.50796 2.00362 9.57469C4.04676 10.9234 6.8535 10.9607 8.90431 9.63533C9.1075 9.48566 9.32468 9.36363 9.57641 9.30133C10.0658 9.18059 10.5223 9.35331 10.7849 9.76473C11.085 10.2346 11.0812 10.6932 10.7115 11.058C10.1443 11.6173 9.46225 12.0219 8.7044 12.3043C7.98779 12.5712 7.20288 12.7055 6.42604 12.7948C6.54326 12.9173 6.59852 12.9776 6.67181 13.0484C7.72667 14.0666 8.78613 15.0806 9.83753 16.102C10.1957 16.45 10.2706 16.8816 10.0733 17.2863C9.85768 17.7287 9.37495 18.0198 8.90163 17.9886C8.60175 17.9687 8.36787 17.8253 8.16008 17.6242C7.36405 16.8546 6.55305 16.0993 5.77313 15.3151C5.54616 15.0871 5.43699 15.1302 5.23668 15.3282C4.43585 16.1203 3.62197 16.9002 2.8033 17.6757C2.43569 18.0239 1.99825 18.0865 1.57193 17.8876C1.11875 17.6766 0.830384 17.2322 0.85264 16.7855C0.867989 16.4834 1.02263 16.2526 1.23847 16.0456C2.28239 15.0441 3.32344 14.0401 4.36486 13.037C4.43374 12.9702 4.49802 12.8995 4.59836 12.7964Z"></path>
    <path d="M5.46351 9.30843C2.92997 9.30014 0.852492 7.28227 0.867266 4.84431C0.881847 2.37945 2.96067 0.3931 5.51915 0.39992C8.08281 0.406556 10.1405 2.42147 10.1277 4.91196C10.1146 7.34494 8.02275 9.31691 5.46351 9.30843ZM7.76604 4.85021C7.76163 3.63971 6.75819 2.67603 5.50073 2.67493C4.23271 2.67364 3.22026 3.65483 3.23005 4.87639C3.23945 6.08228 4.25152 7.03914 5.51243 7.03471C6.76951 7.03047 7.77026 6.06053 7.76604 4.85021Z"></path>
  </symbol>
  <symbol xmlns="http://www.w3.org/2000/svg" viewBox="0 0 66 62" id="progress">
    <path d="M65.6287 11.4774L61.9707 6.81041L65.7422 1.90268C66.0255 1.5339 66.0616 1.05079 65.8337 0.651403C65.6067 0.251216 65.1554 0 64.6628 0H50.5417C49.0988 0 47.9243 1.13935 47.9243 2.5388V3.0324C47.9235 3.0485 47.9191 3.06301 47.9191 3.07911V21.5473H43.8449C40.3073 21.5473 37.4305 24.3325 37.4305 27.7554V33.1366C36.0581 31.8499 34.1938 31.0535 32.1378 31.0535C27.937 31.0535 24.5191 34.3678 24.5191 38.4413V43.192C23.1915 42.0253 21.4364 41.307 19.507 41.307C15.3845 41.307 12.0308 44.5592 12.0308 48.5571V51.5871C10.8704 50.7086 9.41436 50.1796 7.83167 50.1796H6.84017C3.06774 50.1796 0 53.1508 0 56.804V60.7922C0 61.4597 0.590323 62 1.31965 62H13.3513C13.3575 62 13.3628 61.9984 13.3689 61.9984H25.6671C25.7032 61.9984 25.7367 61.9911 25.771 61.9887C25.7947 61.9895 25.8167 61.9952 25.8405 61.9952H38.4405C38.4862 61.9952 38.5302 61.9871 38.5742 61.9831C38.6323 61.9903 38.6903 61.9992 38.751 61.9992H61.8211C62.5496 61.9992 63.1408 61.4589 63.1408 60.7914V27.7554C63.1408 24.3325 60.2639 21.5473 56.7281 21.5473H50.5592V13.525H64.6628C64.6689 13.525 64.6742 13.525 64.6804 13.525C65.4097 13.525 66 12.9847 66 12.3172C66 11.9911 65.8592 11.6948 65.6287 11.4774ZM2.6393 56.8048C2.6393 54.4842 4.52375 52.596 6.84017 52.596H7.83167C10.1472 52.596 12.0308 54.4842 12.0308 56.8048V59.5852H2.63841L2.6393 56.8048ZM24.3466 59.5836H14.671V56.8048V48.5579C14.671 45.8919 16.8405 43.7234 19.5079 43.7234C22.1763 43.7234 24.3466 45.8919 24.3466 48.5563V59.5836ZM37.1208 59.5804H27.1601V38.4413C27.1601 35.6996 29.3939 33.4691 32.1396 33.4691C34.8862 33.4691 37.1208 35.6996 37.1208 38.4413V59.5804ZM60.5015 27.7562V59.5844H40.0707V27.7562C40.0707 25.6651 41.7642 23.9637 43.8458 23.9637H48.8991C49.0082 23.9903 49.1208 24.0096 49.2396 24.0096C49.3584 24.0096 49.471 23.9911 49.5801 23.9637H56.7281C58.8088 23.9637 60.5015 25.6651 60.5015 27.7562ZM50.5645 11.1102V2.5388C50.5645 2.46794 50.5918 2.42286 50.5663 2.41562H62.122L59.5311 5.78621C59.0455 6.42152 58.8554 7.00931 59.5091 7.81613L62.0938 11.111L50.5645 11.1102Z"></path>
  </symbol>
  <symbol xmlns="http://www.w3.org/2000/svg" viewBox="0 0 68 67" id="responsibility">
    <path d="M67.0007 36.464L51.5418 27.6248C51.541 24.8642 51.5384 22.1793 51.5341 19.5038C51.5306 16.6056 51.5272 13.7074 51.5272 10.7025C51.5272 10.7008 51.5272 10.6991 51.5272 10.6965C51.5272 10.6776 51.5272 10.6587 51.5272 10.6389C51.5272 10.0291 51.1037 9.51745 50.5339 9.38329L34.4192 0.170924C34.0232 -0.0561168 33.5369 -0.0569688 33.141 0.168352L16.904 9.3661C16.8283 9.40738 16.756 9.45638 16.6906 9.51142C16.6363 9.55614 16.5881 9.60517 16.5425 9.65677C16.3471 9.88123 16.2301 10.1745 16.2283 10.4953C16.2283 10.4953 16.2283 10.4961 16.2283 10.4979C16.2283 10.4987 16.2283 10.4996 16.2283 10.5004C16.2283 13.6377 16.237 16.5385 16.2456 19.4393C16.2524 22.1027 16.2602 24.7748 16.2611 27.6214L0.676523 36.4476C0.598196 36.4898 0.525035 36.5396 0.457897 36.5964C0.407114 36.6385 0.360639 36.685 0.317602 36.734C0.120493 36.9593 0.00172148 37.2535 0 37.576C0 37.576 0 37.5768 0 37.5785C0 37.5794 0 37.5802 0 37.5811V55.5784C0 56.0428 0.249602 56.4719 0.65501 56.7007L17.1468 66.0404C17.3396 66.1539 17.5633 66.2193 17.8035 66.2193C18.0436 66.2193 18.2666 66.1539 18.4594 66.0412L34.1756 57.1643L49.8453 66.0404C50.0381 66.1539 50.2619 66.2193 50.502 66.2193C50.7422 66.2193 50.9651 66.1539 51.158 66.0404L67.3441 56.8985C67.7495 56.6698 68 56.2406 68 55.7754V37.7178C67.9974 37.109 67.5714 36.5973 67.0007 36.464ZM48.9527 19.5064C48.9562 22.1862 48.9596 24.8659 48.9605 27.6317L35.3204 35.6005V20.6038L48.9467 12.9093C48.9476 15.1393 48.9501 17.3228 48.9527 19.5064ZM33.7762 2.77503L47.6255 10.6931L34.0301 18.3703L20.137 10.5022L33.7762 2.77503ZM32.7381 20.6038V35.5696L18.8433 27.6257C18.8416 24.7714 18.8338 22.1028 18.826 19.4333C18.82 17.2291 18.814 15.0249 18.8114 12.7158L32.7381 20.6038ZM16.5107 62.7165L2.58048 54.8276V39.7956L16.5107 47.6844V62.7165ZM17.8026 45.451L3.90773 37.5828L17.5487 29.8583L31.3532 37.7995L17.8026 45.451ZM19.0929 47.6862L32.7003 40.002V55.0349L19.0929 62.7199V47.6862ZM49.2084 62.7165L35.2988 54.838V39.6245L49.2084 47.6775V62.7165ZM50.5072 45.4476L37.0186 37.6379L50.2593 29.8643L64.094 37.7746L50.5072 45.4476ZM65.4152 55.0254L51.7914 62.7199V47.6862L65.4152 39.9926V55.0254Z"></path>
  </symbol>
  <symbol xmlns="http://www.w3.org/2000/svg" viewBox="0 0 54 69" id="shield">
    <path d="M53.4441 9.26234C52.9077 8.73639 52.2067 8.7364 51.8314 8.7364L51.0928 8.74359L50.7368 8.74C43.8138 8.58563 36.4781 5.93885 28.9346 0.872384L28.6682 0.69198C28.0999 0.305151 27.6523 0 27.0034 0C26.3554 0 25.9161 0.30067 25.3587 0.681216L25.0594 0.884942C17.3877 6.03129 9.93486 8.67627 2.90572 8.74448L2.50484 8.74627C1.68752 8.74807 1.04135 8.74987 0.504093 9.28928C-0.0230917 9.81881 -0.0093538 10.4614 0.00437497 11.0834C0.00712073 11.2234 0.0107712 11.3859 0.0107712 11.5725V42.1957C0.0107712 43.9584 0.099561 44.9035 0.945254 46.5577C6.08348 56.591 14.577 64.1418 26.1879 69H27.2661C39.1314 64.0332 47.7476 56.6026 52.8757 46.9131C53.6674 45.4151 53.9996 44.5032 53.9996 42.7316V11.3993C54.0024 10.4794 54.0033 9.81251 53.4441 9.26234ZM51.2548 42.7333C51.2548 43.9593 51.0809 44.462 50.4402 45.6745C45.691 54.6478 37.7146 61.5838 26.7279 66.2967C16.0066 61.6888 8.15927 54.6443 3.40087 45.3514C2.78948 44.155 2.75836 43.6075 2.75836 42.1966V11.5734C2.75836 11.5268 2.75836 11.481 2.75836 11.4379L2.93501 11.437C10.517 11.3634 18.4824 8.56049 26.6107 3.1072L26.9302 2.89C26.9576 2.87115 26.9833 2.85409 27.0071 2.83704C27.0373 2.85768 27.0693 2.88012 27.1041 2.90346L27.385 3.09374C35.3743 8.45908 43.2107 11.2638 50.6755 11.4307C50.8256 11.4343 50.9647 11.4352 51.0937 11.4352L51.2557 11.4334V42.7333H51.2548Z"></path>
  </symbol>
  <symbol xmlns="http://www.w3.org/2000/svg" viewBox="0 0 30 30" id="safe">
    <path fill-rule="evenodd" clip-rule="evenodd" d="M4.39453 0H25.6055C28.0286 0 30 1.97139 30 4.39453V23.8477C30 26.2708 28.0286 28.2422 25.6055 28.2422V30H22.0898V28.2422H7.91016V30H4.39453V28.2422C1.97139 28.2422 0 26.2708 0 23.8477V4.39453C0 1.97139 1.97139 0 4.39453 0ZM3.51562 24.7266H26.4844V3.51562H3.51562V24.7266ZM5.27344 5.27344V22.9688H24.7266V5.27344H5.27344ZM10.0195 20.2734H8.26172V7.96875H10.0195V20.2734ZM18.2812 18.8086C15.6966 18.8086 13.5938 16.7058 13.5938 14.1211C13.5938 11.5364 15.6966 9.43359 18.2812 9.43359C20.8659 9.43359 22.9688 11.5364 22.9688 14.1211C22.9688 16.7058 20.8659 18.8086 18.2812 18.8086ZM18.2812 11.1914C16.6658 11.1914 15.3516 12.5057 15.3516 14.1211C15.3516 15.7365 16.6658 17.0508 18.2812 17.0508C19.8967 17.0508 21.2109 15.7365 21.2109 14.1211C21.2109 12.5057 19.8967 11.1914 18.2812 11.1914ZM18.2812 15.293C17.6351 15.293 17.1094 14.7673 17.1094 14.1211C17.1094 13.4749 17.6351 12.9492 18.2812 12.9492C18.9274 12.9492 19.4531 13.4749 19.4531 14.1211C19.4531 14.7673 18.9274 15.293 18.2812 15.293Z"></path>
  </symbol>
  <symbol xmlns="http://www.w3.org/2000/svg" viewBox="0 0 21 12" id="vk">
    <path d="M18.2106 7.361C18.8733 7.93628 19.5757 8.47514 20.1712 9.10625C20.4332 9.38418 20.6829 9.67667 20.8736 10.0007C21.1439 10.4631 20.901 10.9729 20.4318 11.0008L17.5136 10.9996C16.7618 11.0554 16.1622 10.7872 15.656 10.3321C15.2526 9.96795 14.878 9.58201 14.4898 9.20456C14.3306 9.05285 14.1646 8.906 13.9657 8.79312C13.5678 8.56496 13.2221 8.63413 12.9943 9.00309C12.7624 9.37568 12.7103 9.78833 12.687 10.2058C12.6554 10.8127 12.4483 10.9729 11.7582 10.9996C10.2846 11.0627 8.88522 10.8649 7.58595 10.207C6.44034 9.62691 5.5513 8.80769 4.7775 7.88045C3.27106 6.07694 2.11859 4.09381 1.08137 2.05486C0.848136 1.59609 1.01963 1.34729 1.59175 1.34001C2.54391 1.32302 3.49469 1.32544 4.44685 1.34001C4.83512 1.34243 5.09031 1.53905 5.23986 1.8631C5.75435 2.9821 6.38409 4.04769 7.17435 5.0344C7.38427 5.29777 7.59967 5.56113 7.90562 5.74561C8.24313 5.95072 8.50106 5.88154 8.66021 5.55021C8.76174 5.33782 8.80564 5.11086 8.82896 4.88391C8.90442 4.10474 8.91403 3.32678 8.78232 2.55246C8.7 2.06821 8.3913 1.75387 7.84525 1.66163C7.56674 1.61672 7.60927 1.52327 7.74373 1.38249C7.97833 1.14097 8.19785 0.989258 8.63826 0.989258H11.9338C12.4524 1.07907 12.5676 1.28539 12.639 1.7478L12.6417 4.98586C12.6362 5.16548 12.7432 5.69585 13.1068 5.81479C13.399 5.89853 13.5911 5.69221 13.7654 5.52958C14.5529 4.78803 15.1154 3.91298 15.6203 3.00637C15.8439 2.60707 16.036 2.19443 16.2212 1.77935C16.3598 1.47351 16.5766 1.3218 16.9662 1.32787L20.1396 1.3303C20.2329 1.3303 20.3289 1.33151 20.4195 1.34608C20.9546 1.42496 21.1 1.62886 20.9353 2.09127C20.676 2.81704 20.1698 3.42023 19.6745 4.02585C19.1449 4.67273 18.5797 5.29898 18.0542 5.95072C17.574 6.54542 17.611 6.84519 18.2106 7.361Z"></path>
  </symbol>
  <symbol fill="none" xmlns="http://www.w3.org/2000/svg" viewBox="0 0 17 20" id="triangle_play">
    <path d="M17 10L0.499999 19.5263L0.5 0.47372L17 10Z" fill="white"></path>
  </symbol>
  <symbol xmlns="http://www.w3.org/2000/svg" viewBox="0 0 38 38" id="staff">
    <path d="M7.17285 8.51272C9.49686 8.51272 11.3808 6.6071 11.3808 4.25637C11.3808 1.90565 9.49686 0 7.17285 0C4.84884 0 2.96484 1.90565 2.96484 4.25637C2.96484 6.6071 4.84884 8.51272 7.17285 8.51272Z"></path>
    <path d="M30.8291 0C33.1529 0 35.0371 1.90516 35.0371 4.25637C35.0371 6.60759 33.1536 8.512 30.8291 8.512C28.5046 8.512 26.6211 6.60687 26.6211 4.25637C26.6211 1.90588 28.5046 0 30.8291 0Z"></path>
    <path d="M33.9855 8.06665C33.1568 8.84871 32.0486 9.33219 30.8281 9.33219C29.6068 9.33219 28.4993 8.84871 27.6706 8.06665C25.8768 8.54581 24.4499 9.93797 23.9015 11.7187C22.3516 11.4294 20.705 11.2733 19 11.2733C17.295 11.2733 15.6491 11.4294 14.0985 11.7187C13.5508 9.93797 12.1232 8.54581 10.3301 8.06665C9.50143 8.84871 8.39322 9.33147 7.17264 9.33147C5.95207 9.33147 4.84388 8.84871 4.01523 8.06665C1.70851 8.68323 0 10.8064 0 13.3295V17.7471L0.0113744 17.8154L0.312253 17.9111C1.25116 18.2075 2.14526 18.4334 2.99952 18.6104C2.60547 19.4652 2.39064 20.3638 2.39064 21.2926C2.39064 25.3036 6.31981 28.77 11.9774 30.3687C11.7683 30.9478 11.6524 31.5716 11.6524 32.2234V36.641L11.6638 36.71L11.9646 36.8057C14.7991 37.7007 17.2623 38 19.2895 38C23.2492 38 25.5439 36.8582 25.6854 36.7856L25.9671 36.641H25.997V32.2234C25.997 31.604 25.8931 31.009 25.7039 30.4557C31.5322 28.8981 35.6101 25.3777 35.6101 21.2926C35.6101 20.4084 35.4166 19.55 35.0581 18.7327C36.6848 18.3924 37.601 17.937 37.6884 17.8917L37.9701 17.7471H38V13.3295C38.0007 10.8064 36.2929 8.68323 33.9855 8.06665ZM34.462 21.2926C34.462 24.9115 30.6516 28.0289 25.2103 29.4017C24.494 28.216 23.3446 27.3239 21.9832 26.9605C21.1538 27.7426 20.0456 28.2247 18.825 28.2247C17.6052 28.2247 16.4963 27.7426 15.6676 26.9605C14.3361 27.316 13.2065 28.1757 12.4874 29.3233C7.20822 27.9117 3.53868 24.8424 3.53868 21.2919C3.53868 20.435 3.75633 19.6069 4.15465 18.8227C5.42573 19.0227 6.59082 19.1054 7.63713 19.1054C11.5962 19.1054 13.8915 17.9636 14.0331 17.891L14.3147 17.7464L14.3446 17.7471V13.3288C14.3446 13.1669 14.3368 13.0065 14.3233 12.8489C15.7999 12.5791 17.3704 12.4331 19 12.4331C20.6303 12.4331 22.2008 12.5791 23.6774 12.8489C23.6639 13.0072 23.6561 13.1669 23.6561 13.3288V17.7464L23.6675 17.8147L23.9691 17.9097C26.8029 18.8047 29.2661 19.104 31.2932 19.104C32.2663 19.104 33.1362 19.0356 33.9008 18.9299C34.2636 19.6839 34.462 20.4746 34.462 21.2926Z"></path>
    <path d="M18.8245 27.4061C21.1481 27.4061 23.0318 25.5007 23.0318 23.1504C23.0318 20.8001 21.1481 18.8948 18.8245 18.8948C16.5009 18.8948 14.6172 20.8001 14.6172 23.1504C14.6172 25.5007 16.5009 27.4061 18.8245 27.4061Z"></path>
  </symbol>
  <symbol xmlns="http://www.w3.org/2000/svg" viewBox="0 0 24 27" id="board">
    <path fill-rule="evenodd" clip-rule="evenodd" d="M12.5071 0H10.9437C10.512 0 10.162 0.341394 10.162 0.762721V3.10173H0.781693C0.349625 3.10173 0 3.44287 0 3.86445V19.1697C0 19.5913 0.349625 19.9324 0.781693 19.9324H22.6691C23.1012 19.9324 23.4508 19.5913 23.4508 19.1697V3.86445C23.4508 3.44287 23.1012 3.10173 22.6691 3.10173H13.2888V0.762721C13.2888 0.341394 12.9388 0 12.5071 0ZM14.0705 6.91534V7.67806H17.9789C18.411 7.67806 18.7606 8.0192 18.7606 8.44078V12.2544H19.5423C19.9744 12.2544 20.324 12.5955 20.324 13.0171V16.068C20.324 16.4896 19.9744 16.8307 19.5423 16.8307H16.4156C15.9835 16.8307 15.6339 16.4896 15.6339 16.068V13.0171C15.6339 12.5955 15.9835 12.2544 16.4156 12.2544H17.1973V9.2035H14.0705V9.96622C14.0705 10.3878 13.7209 10.7289 13.2888 10.7289H12.5071V12.2544H13.2888C13.7209 12.2544 14.0705 12.5955 14.0705 13.0171V16.068C14.0705 16.4896 13.7209 16.8307 13.2888 16.8307H10.162C9.72995 16.8307 9.38032 16.4896 9.38032 16.068V13.0171C9.38032 12.5955 9.72995 12.2544 10.162 12.2544H10.9437V10.7289H10.162C9.72995 10.7289 9.38032 10.3878 9.38032 9.96622V9.2035H6.25355V12.2544H7.03524C7.46731 12.2544 7.81693 12.5955 7.81693 13.0171V16.068C7.81693 16.4896 7.46731 16.8307 7.03524 16.8307H3.90847C3.4764 16.8307 3.12677 16.4896 3.12677 16.068V13.0171C3.12677 12.5955 3.4764 12.2544 3.90847 12.2544H4.69016V8.44078C4.69016 8.0192 5.03979 7.67806 5.47185 7.67806H9.38032V6.91534C9.38032 6.49376 9.72995 6.15262 10.162 6.15262H13.2888C13.7209 6.15262 14.0705 6.49376 14.0705 6.91534ZM4.50831 21.4578L3.25755 24.5087H2.34406C1.91199 24.5087 1.56237 24.8499 1.56237 25.2714C1.56237 25.693 1.91199 26.0342 2.34406 26.0342H5.59143C5.9113 26.0342 6.19833 25.8443 6.31741 25.5545L6.74614 24.5087H16.7026L17.1314 25.5545C17.2504 25.8442 17.5375 26.0342 17.8573 26.0342H21.1047C21.5368 26.0342 21.8864 25.693 21.8864 25.2714C21.8864 24.8499 21.5368 24.5087 21.1047 24.5087H20.1912L18.9405 21.4578H15.4519L16.0773 22.9832H7.37155L7.99696 21.4578H4.50831ZM12.5048 7.67822H10.9414V9.2037H12.5048V7.67822ZM6.25187 13.7798H4.68849V15.3053H6.25187V13.7798ZM10.9414 13.7798H12.5048V15.3053H10.9414V13.7798ZM18.7585 13.7798H17.1951V15.3053H18.7585V13.7798Z"></path>
  </symbol>
  <symbol fill="none" xmlns="http://www.w3.org/2000/svg" viewBox="0 0 12 12" id="close">
    <path d="M11.2929 1.04335L6.6898 5.64645L6.33624 6L6.6898 6.35355L11.2929 10.9566L10.9566 11.2929L6.35355 6.6898L6 6.33624L5.64645 6.6898L1.04335 11.2929L0.707107 10.9566L5.3102 6.35355L5.66376 6L5.3102 5.64645L0.707107 1.04335L1.04335 0.707107L5.64645 5.3102L6 5.66376L6.35355 5.3102L10.9566 0.707107L11.2929 1.04335Z" fill="white" stroke="white"></path>
  </symbol>
  <symbol fill="none" xmlns="http://www.w3.org/2000/svg" viewBox="0 0 28 18" id="burger-menu">
    <mask id="path-1-inside-1_382_1809" fill="white">
      <path fill-rule="evenodd" clip-rule="evenodd" d="M0 0H28V2H0V0ZM0 8H28V10H0V8ZM28 16H0V18H28V16Z"></path>
    </mask>
    <path fill-rule="evenodd" clip-rule="evenodd" d="M0 0H28V2H0V0ZM0 8H28V10H0V8ZM28 16H0V18H28V16Z" fill="#003264"></path>
    <path d="M28 0H29V-1H28V0ZM0 0V-1H-1V0H0ZM28 2V3H29V2H28ZM0 2H-1V3H0V2ZM28 8H29V7H28V8ZM0 8V7H-1V8H0ZM28 10V11H29V10H28ZM0 10H-1V11H0V10ZM0 16V15H-1V16H0ZM28 16H29V15H28V16ZM0 18H-1V19H0V18ZM28 18V19H29V18H28ZM28 -1H0V1H28V-1ZM29 2V0H27V2H29ZM0 3H28V1H0V3ZM-1 0V2H1V0H-1ZM28 7H0V9H28V7ZM29 10V8H27V10H29ZM0 11H28V9H0V11ZM-1 8V10H1V8H-1ZM0 17H28V15H0V17ZM1 18V16H-1V18H1ZM28 17H0V19H28V17ZM27 16V18H29V16H27Z" fill="#003264" mask="url(#path-1-inside-1_382_1809)"></path>
  </symbol>
</svg>