<svg width="70" height="75" viewBox="0 0 70 75" fill="none" xmlns="http://www.w3.org/2000/svg">
<mask id="path-1-inside-1_3235_3" fill="white">
<path fill-rule="evenodd" clip-rule="evenodd" d="M40.7512 69.5297C57.3449 66.7865 70 52.3711 70 35C70 15.67 54.33 0 35 0C15.67 0 0 15.67 0 35C0 52.6625 13.0831 67.2692 30.087 69.6579L35.355 74.926L40.7512 69.5297Z"/>
</mask>
<path fill-rule="evenodd" clip-rule="evenodd" d="M40.7512 69.5297C57.3449 66.7865 70 52.3711 70 35C70 15.67 54.33 0 35 0C15.67 0 0 15.67 0 35C0 52.6625 13.0831 67.2692 30.087 69.6579L35.355 74.926L40.7512 69.5297Z" fill="white"/>
<path d="M40.7512 69.5297L34.064 29.0788L21.0716 31.2266L11.7599 40.5384L40.7512 69.5297ZM30.087 69.6579L59.0783 40.6665L49.3769 30.9651L35.7905 29.0565L30.087 69.6579ZM35.355 74.926L6.36365 103.917L35.355 132.909L64.3464 103.917L35.355 74.926ZM29 35C29 31.9819 31.1874 29.5543 34.064 29.0788L47.4385 109.981C83.5024 104.019 111 72.7604 111 35H29ZM35 41C31.6863 41 29 38.3137 29 35H111C111 -6.97364 76.9736 -41 35 -41V41ZM41 35C41 38.3137 38.3137 41 35 41V-41C-6.97364 -41 -41 -6.97364 -41 35H41ZM35.7905 29.0565C38.7444 29.4715 41 31.9375 41 35H-41C-41 73.3875 -12.5782 105.067 24.3834 110.259L35.7905 29.0565ZM64.3464 45.9346L59.0783 40.6665L1.09558 98.6493L6.36365 103.917L64.3464 45.9346ZM11.7599 40.5384L6.36365 45.9346L64.3464 103.917L69.7426 98.5211L11.7599 40.5384Z" fill="#E9862A" mask="url(#path-1-inside-1_3235_3)"/>
<path d="M51.2692 35.8115C50.6301 35.3194 49.8476 34.9814 49.1375 34.6048C48.806 34.4326 48.0575 33.8627 47.8346 33.6664C47.1252 33.0391 46.701 32.3755 45.8577 31.89C45.8577 31.89 46.0438 31.7584 46.2269 31.6792C46.8523 31.408 47.5551 31.4058 48.1632 31.1209C47.3887 29.9557 46.0249 30.1156 45.1469 29.2797C45.6688 29.3779 46.3557 29.3175 46.8842 29.2681C47.8585 29.1758 48.009 28.8298 48.4665 28.1429C48.5982 27.9415 48.7806 27.7445 48.9392 27.6362C49.6652 27.1514 51.5327 27.3869 52.3507 27.3869C51.6268 26.9966 50.4976 26.2704 49.6652 26.1934C46.444 25.798 45.2099 26.9239 43.0781 25.8488C42.8451 25.758 44.1133 24.989 44.8813 24.9613C44.7271 24.8574 43.7701 24.523 43.4184 24.5296C42.5772 24.5506 42.1661 24.8428 41.5248 25.3066C41.5248 24.6909 41.5639 24.2432 42.1661 23.8536C42.5338 23.6173 43.2671 23.4451 43.5421 23.2444C43.8179 23.0453 44.1002 22.4994 44.2001 22.1912C44.3015 21.8844 44.2848 21.1009 44.2848 21.1009C43.865 21.6206 43.5479 22.0182 42.8603 22.1519C42.8603 22.1519 40.1147 22.6753 39.456 22.9079C38.798 23.1398 38.08 23.8543 38.08 23.8543C38.08 23.8543 37.9808 23.7293 37.9736 23.4225C37.9656 23.1165 39.4198 20.4539 39.2265 20.5768C39.0369 20.6996 38.1487 20.9628 37.6196 21.1467C37.0933 21.3313 36.1842 21.5225 35.1078 22.008C34.0271 22.4921 33.4075 23.5541 33.3076 23.408C33.2085 23.2597 32.9623 22.9639 32.9175 22.4914C32.8711 22.0233 33.3141 21.2448 33.4922 20.8225C33.8672 19.9161 34.0286 18.8199 33.3539 18C33.1078 18.1904 30.7322 20.6967 30.2472 21.5377C29.7615 22.3802 29.0695 24.2454 29.0695 24.2454L28.2588 26.7306C28.2588 26.7306 28.0148 26.5169 27.8672 26.2944C27.7224 26.0698 27.7977 25.1932 27.7977 25.1932C27.9953 23.8746 28.0221 22.2726 26.8205 21.3531C26.4687 21.082 26.0025 21.1154 26.0025 21.1154C26.0025 21.1154 26.3196 21.5566 26.2921 22.1221C26.2667 22.6826 26.1097 23.267 26.1097 23.267L25.4973 25.7565C24.9783 27.7693 25.1846 28.9308 25.1144 28.9243C24.182 28.8269 23.4683 27.9953 23.2787 27.1318C23.1867 26.7073 23.1867 25.2608 23.1867 25.2608C22.1466 26.8047 21.5689 27.8034 21.8874 29.6781C22.1089 30.9726 22.8313 32.3326 23.485 33.4695C23.8223 34.0553 24.0655 35.1042 24.0655 35.1042C23.6725 34.7066 23.3033 34.3664 22.6909 34.3664C21.7948 34.3664 20.5309 35.1544 19.7521 34.6826C19.6877 34.6441 19.4625 34.5511 19.4625 34.5511C19.4625 34.5511 19.5805 34.8171 19.6457 34.9232C20.4824 36.2745 21.5393 36.0354 22.8082 36.6467C23.4944 36.9701 23.8816 37.21 24.3637 37.838C24.0156 37.6621 23.0898 37.7915 22.7409 37.9165C22.1647 38.1222 21.6826 38.5671 21.055 38.7757C20.0583 39.1122 18.6439 38.9785 17.684 38.5271C17.4604 38.4217 17 38.1411 17 38.1411C17 38.1411 17.0782 38.3824 17.1846 38.5809C17.2895 38.7757 18.0279 39.8122 18.2638 40.0499C19.1151 40.904 20.0112 41.2558 21.1592 41.3968C23.1129 41.4855 24.8096 41.101 26.6808 41.4542C27.3127 41.5756 28.0496 41.998 28.0496 41.998C26.0496 42.594 26.8045 43.7214 24.3348 44.1844C26.0228 44.9469 27.3315 44.6809 28.9464 44.1844C30.0648 43.8406 31.2903 43.8261 31.2903 43.8261C30.5606 44.1662 29.6131 44.803 29.1846 45.4826C28.1393 47.1363 26.9406 48.0441 24.9949 48.276C25.7246 49.4267 28.0025 48.9229 28.9993 48.6344C30.1733 48.2985 31.2808 47.7229 32.1458 46.8484C32.3181 46.6769 32.8306 46.1448 33.0152 45.9456C33.1998 45.7479 33.4922 45.4833 33.7788 45.2849C34.0706 45.0857 34.5953 44.8582 34.8726 44.7964C35.1469 44.7252 35.81 44.8204 35.81 44.8204L35.755 44.8582C35.7007 44.9011 35.532 45.2049 35.3988 45.4027C34.9674 46.0561 34.7901 46.9407 34.7408 47.709C34.7133 48.1197 34.5953 48.8088 34.5953 48.8088C35.6362 47.821 36.3167 45.9856 37.6268 45.3249C37.8353 45.2195 38.0872 45.2326 38.0872 45.2326C38.0199 46.5337 37.1911 47.6393 37.1911 48.9418C37.1911 51.5957 39.7072 52.082 39.6927 51.9897C39.5972 51.2729 39.6283 49.9616 39.7991 49.2609C40.1118 48.0151 40.7734 46.7728 41.157 45.5117C41.3431 44.8931 41.3177 44.0776 41.2374 43.4444C41.5885 43.3965 42.4976 45.0865 42.4477 45.2994C42.4477 44.843 42.7307 44.0296 42.7763 43.4822C42.8234 42.9153 42.7032 42.1891 42.5389 41.6432C43.2178 41.8882 43.7007 42.24 44.1466 42.8077C44.3427 43.0607 44.6482 43.4953 44.8176 43.7752C45.2063 44.4032 45.5306 45.3089 46.1617 45.7101C46.4672 45.9013 47.0123 45.8213 47.3612 45.7777C47.0499 45.4906 46.7756 45.3002 46.5968 44.9026C46.2508 44.1408 46.1769 42.8637 46.1769 42.0001C46.1769 40.6052 45.8715 39.2024 45.1614 37.9987C45.5204 38.0415 45.8505 38.1346 46.148 38.3563C46.3029 38.4733 46.6887 38.783 46.9001 38.6608C46.5092 38.3018 46.6373 37.6061 46.4383 37.1257C46.3702 36.9665 46.148 36.4649 46.148 36.4649C46.4346 36.51 46.7314 36.7404 46.992 36.8596C47.587 37.1359 48.4028 37.2129 49.0448 37.2427C50.1067 37.3023 51.1874 37.2914 52.1538 37.7755C52.2602 37.8271 52.7206 38.2109 52.7206 38.2109C52.7206 37.926 52.7227 37.633 52.6257 37.3655C52.3789 36.6656 51.8244 36.2432 51.2692 35.8115Z" fill="white"/>
<path d="M35.0339 25.5293C30.1906 25.5293 26.25 29.4864 26.25 34.35C26.25 39.2135 30.1906 43.1707 35.0339 43.1707C39.8772 43.1707 43.8178 39.2135 43.8178 34.35C43.8178 29.4864 39.8779 25.5293 35.0339 25.5293Z" fill="#E9862A"/>
<path d="M37.8782 41.5961C37.8934 41.5866 37.9115 41.5772 37.9246 41.5699C37.9361 41.4776 37.8992 41.5067 37.9854 41.41C38.2257 41.2872 38.4674 41.1614 38.7121 41.0364C38.8894 40.7943 38.9589 40.4316 39.0176 40.1431C39.0248 40.0791 39.0776 39.8021 39.0465 39.7375C39.0277 39.7375 39.011 39.7375 38.9922 39.7404C38.9329 39.845 38.9271 39.8719 38.9271 40.002C38.922 40.0049 38.9155 40.0071 38.9119 40.01C38.8989 39.8319 38.8236 39.9112 38.9032 39.6967C38.8315 39.7258 38.4913 39.8385 38.4631 39.8981C38.4631 39.986 38.3531 40.1598 38.2561 40.1111C38.2228 40.1111 38.2228 40.1111 37.7508 40.2179C37.7284 40.1867 37.7204 40.1532 37.677 40.1532C37.4345 40.2179 37.1898 40.2891 36.943 40.3349V40.3517C37.0111 40.3786 37.0834 40.4018 37.1537 40.4287C37.1442 40.4869 37.137 40.5457 37.1305 40.6061C36.9083 40.6526 36.7403 40.5545 36.5681 40.4171C36.1251 40.4803 35.6785 40.5152 35.2289 40.537C35.2289 40.7224 35.2876 42.0613 35.2217 42.2932C36.2727 42.2677 37.2753 42.0351 38.188 41.6361C38.272 41.5728 38.3531 41.5059 38.432 41.4318C38.3183 41.3795 38.0773 41.6949 37.8782 41.5961ZM35.1609 40.5385C34.9495 40.5348 34.7411 40.5312 34.5311 40.529C33.2108 40.4164 32.0831 40.1191 30.8764 39.5855C30.812 40.2354 31.0024 40.9419 31.4381 41.4253C32.5181 41.9835 33.7407 42.2961 35.0349 42.2961C35.0849 42.2961 35.1363 42.2953 35.1855 42.2939C35.0986 42.0715 35.1609 40.7238 35.1609 40.5385ZM41.9195 38.2582C42.3379 37.5226 42.6412 36.7122 42.8055 35.8515C42.5985 36.3742 42.3263 36.8365 41.9948 37.29C41.9854 37.6266 41.9702 37.9348 41.9195 38.2582ZM41.9101 37.3976C41.4345 37.9522 40.9343 38.4189 40.3531 38.8565C40.3719 38.8586 40.3719 38.8586 40.4168 38.8325C40.4204 38.8412 40.4233 38.8463 40.4284 38.8565C40.3951 38.8805 40.3951 38.8805 40.2778 38.9379C40.2742 38.9313 40.2742 38.9313 40.2944 38.9001C39.9224 39.1436 39.538 39.3704 39.1464 39.5783C39.124 39.6698 39.1189 39.7375 39.1891 39.8C39.0559 39.9221 39.0248 40.4396 38.9654 40.6497C38.943 40.7136 38.8482 40.9012 38.8482 40.9637C39.074 40.7544 39.318 40.452 39.5959 40.3117C39.7566 40.4033 39.8949 40.159 39.9694 40.0173C40.0425 39.9562 40.2192 39.8479 40.2278 39.7571C40.3024 39.7091 40.3799 39.6589 40.458 39.611C40.458 39.6655 40.3545 39.7389 40.3987 39.7971C40.7801 39.7971 40.9604 39.297 41.1037 39.036C41.1109 39.0862 41.1044 39.1509 41.1746 39.1043C41.1898 39.1291 41.1442 39.1865 41.1739 39.2156C41.0957 39.4445 40.6549 39.8065 40.4841 39.9991C39.884 40.5508 39.2854 40.9448 38.5796 41.3671C38.534 41.4231 38.4486 41.4871 38.3762 41.5496C39.7993 40.8808 40.9937 39.7971 41.8037 38.4589C41.9021 38.1151 41.9195 37.748 41.9246 37.3933C41.9195 37.3925 41.9159 37.3954 41.9101 37.3976ZM40.3067 39.0862C40.3176 39.0702 40.3314 39.0578 40.3458 39.0433C40.348 39.0629 40.3205 39.0803 40.3067 39.0862ZM40.4841 38.9902C40.4602 38.9546 40.4602 38.9546 40.4399 38.9444C40.5072 38.9415 40.5072 38.9415 40.5666 38.9473C40.5369 38.9597 40.5116 38.9735 40.4841 38.9902ZM41.344 38.4705C41.179 38.6144 41.1095 38.8325 40.9162 38.9582C40.8938 38.9161 40.8699 38.8754 40.8482 38.8347C40.77 38.8194 40.6636 38.8964 40.5927 38.9313C40.6766 38.8063 40.7657 38.6835 40.8518 38.5592C40.93 38.5177 41.4714 38.187 41.53 38.2037C41.5177 38.219 41.5177 38.219 41.5177 38.2503C41.559 38.2779 41.5995 38.2764 41.648 38.2713C41.5481 38.3789 41.4779 38.4152 41.344 38.4705ZM28.5217 38.8463C28.5319 38.8623 28.5471 38.8855 28.5746 38.927C28.5558 38.9015 28.5398 38.8739 28.5217 38.8463ZM41.0842 29.2348C40.3567 28.9535 39.5872 28.8924 38.8163 28.8611C38.8489 28.8873 38.8851 28.912 38.922 28.9418C38.8482 28.9418 38.7794 28.8611 38.6853 28.8611C38.6853 28.9418 38.7678 29.0298 38.8084 29.0981C38.7454 29.0828 38.6824 29.0618 38.6187 29.0618C38.61 29.0697 38.6043 29.077 38.5999 29.0908C38.6187 29.1199 38.6187 29.1199 38.6651 29.1584C38.647 29.1861 38.6426 29.1926 38.6426 29.2268C38.618 29.2224 38.5927 29.2195 38.5709 29.218C38.5253 29.1868 38.1482 28.819 38.1403 29.0421C38.2105 29.1802 38.2105 29.1802 38.2134 29.2086C38.1859 29.2086 38.1765 29.2086 38.1555 29.2289C38.091 29.1294 38.0266 29.032 37.9622 28.9346H37.9137C37.9043 28.9462 37.9043 28.9462 37.897 29.1119C37.8695 29.1373 37.8406 29.1643 37.8124 29.1868C37.677 29.1294 37.504 28.9963 37.399 28.8924C36.799 28.9251 36.2011 29.0167 35.6053 29.1039C35.5966 29.0887 35.588 29.0727 35.5786 29.0588C35.5807 29.0559 35.5843 29.0516 35.588 29.045C36.1866 28.9367 36.7917 28.8662 37.3969 28.8183C37.3556 28.6961 37.2984 28.5987 37.234 28.4853C37.3129 28.3669 37.8514 28.3254 37.9904 28.2309C37.9904 28.2062 37.9904 28.1815 37.9962 28.1575C38.0454 28.2208 38.0961 28.2818 38.1468 28.3472C38.1591 28.4047 38.1634 28.4621 38.2083 28.5035C38.2003 28.5355 38.1757 28.5355 38.1526 28.5588C38.1526 28.5711 38.1526 28.5806 38.1547 28.5944C38.175 28.6089 38.175 28.6089 38.715 28.7848C39.3491 28.8197 39.9644 28.8626 40.5854 29.0014C40.7678 29.0523 40.9169 29.1017 40.9814 29.1192C40.285 28.3218 39.4345 27.6647 38.4747 27.198C38.382 27.1988 38.285 27.2162 38.1974 27.2431C38.2206 27.2547 38.2416 27.2671 38.2633 27.2758C38.1974 27.2802 38.0158 27.2358 37.9767 27.318C37.9311 27.31 37.8862 27.339 37.8435 27.3558C37.8543 27.3703 37.8681 27.3827 37.8811 27.3979C37.8623 27.3979 37.8623 27.3979 36.4899 26.8171C35.9955 26.7357 35.4989 26.6543 35.0067 26.5766C35.0487 26.5751 35.0943 26.5751 35.1385 26.5751C35.1385 26.5177 35.1385 26.4617 35.1392 26.405C35.1044 26.4028 35.069 26.4028 35.0335 26.4028C33.7639 26.4028 32.5637 26.7067 31.4989 27.2431C32.4551 27.2751 33.3049 27.7868 34.099 28.2804C34.1895 28.276 34.2706 28.212 34.3618 28.2411C34.34 28.2506 34.3212 28.2586 34.3024 28.2716V28.3145C34.3538 28.345 34.424 28.3342 34.4798 28.3487C34.3111 28.4977 34.5854 28.7041 34.6672 28.6511C34.6643 28.59 34.6781 28.5471 34.6158 28.5311C34.6528 28.4461 34.6687 28.4432 34.7621 28.4061C34.7599 28.3872 34.7577 28.3734 34.7577 28.3567C34.7309 28.3429 34.7063 28.3291 34.681 28.3145C34.6926 28.2913 34.7041 28.2716 34.7157 28.2477C34.7599 28.2469 34.7932 28.2506 34.8243 28.2186C34.8446 28.2636 34.8446 28.2636 34.8446 28.2804C34.8272 28.2913 34.8091 28.3043 34.7932 28.3138C34.7874 28.4207 34.8062 28.4061 34.8569 28.489C34.8402 28.5042 34.8446 28.5348 34.854 28.5515C34.8793 28.5515 34.9054 28.5515 34.9314 28.5537C34.9423 28.5718 34.9517 28.5842 34.972 28.5944C34.9662 28.5944 34.9626 28.5973 34.9597 28.5987C34.9184 28.5842 34.8916 28.5653 34.846 28.5769C34.8446 28.5936 34.8424 28.6125 34.8395 28.6285C34.8055 28.6278 34.7917 28.6249 34.7678 28.6474C34.7678 28.6562 34.7693 28.6649 34.7729 28.6743C34.7353 28.6809 34.6991 28.6896 34.6643 28.6954C34.7498 28.7681 34.8337 28.8379 34.9191 28.9113C34.8996 28.9244 34.8793 28.9346 34.8605 28.9455C34.7686 28.8677 34.5217 28.6154 34.437 28.6154C34.437 28.6474 34.4436 28.6569 34.4595 28.6889C34.3907 28.811 34.2315 28.739 34.2315 28.8415C34.2554 28.8575 34.2792 28.8735 34.3053 28.8917C34.2792 28.9004 34.2532 28.9069 34.2532 28.9411C34.7295 29.0356 34.7295 29.0356 34.7447 29.0472C34.7331 29.0625 34.7259 29.0763 34.7164 29.0974C34.5036 29.061 34.3596 29.0022 34.1613 29.0763C34.1656 29.0509 34.1707 29.0232 34.1757 28.9956C34.1084 28.9862 34.0556 28.9963 33.994 28.9912C33.9861 29 33.9861 29 33.9767 29.037C33.9311 29.0203 33.8942 29.0065 33.8471 29.0065C33.8145 29.0661 33.8876 29.109 33.9318 29.1366C33.9253 29.1548 33.9195 29.173 33.9123 29.1919C33.8471 29.1577 33.8413 29.1214 33.8066 29.0676H33.7624C33.7559 29.077 33.7472 29.085 33.7422 29.0981C33.6314 29.0429 33.5395 28.9535 33.4251 29.0269C33.3961 28.8902 33.3491 28.9978 33.2564 28.9978V28.9593C33.2492 28.9527 33.2412 28.9462 33.2318 28.9418C33.1667 28.9636 33.1667 28.9636 33.1225 28.9687C33.1262 28.9353 33.1261 28.9215 33.0921 28.912C33.0849 28.8684 33.0849 28.8684 33.0748 28.8459C32.9242 28.8306 32.7744 28.8182 32.6281 28.8066C32.618 28.8248 32.618 28.8248 32.5999 28.8386C32.5927 28.8248 32.5825 28.8103 32.5731 28.8001C31.4519 28.7361 30.052 28.6329 29.0241 29.1926C27.8392 30.5824 27.1211 32.3821 27.1211 34.3505C27.1211 34.8993 27.1776 35.438 27.2869 35.9591C27.3549 36.1365 27.4338 36.3109 27.5272 36.4912C27.5272 36.4672 27.4736 36.2804 27.4736 36.2528C27.8225 37.0393 28.1417 37.841 28.4465 38.642C28.4544 38.6777 28.4609 38.7089 28.4682 38.7424C28.3987 38.5984 28.3379 38.4458 28.285 38.2924C28.0107 37.7996 27.8015 37.2929 27.6068 36.7631C27.5228 36.614 27.4439 36.4672 27.3686 36.3153C27.6017 37.2333 27.9999 38.0845 28.5225 38.8456C28.5138 38.8296 28.5058 38.8165 28.4971 38.8005C28.5427 38.7881 28.5283 38.7518 28.5507 38.7453C28.584 38.8092 28.7787 39.0207 28.6687 39.0527C29.3578 39.9882 30.2423 40.7725 31.2644 41.3329C30.8721 40.8314 30.8011 40.1947 30.8011 39.5543C30.2329 39.2512 29.6842 38.9161 29.1833 38.5141C29.1652 38.5119 29.1457 38.5054 29.1305 38.5032C28.9966 38.2924 28.6368 37.8926 28.6918 37.6382C28.8077 37.5539 28.7664 37.5539 28.7425 37.4013C28.9097 37.5808 29.1052 37.7647 29.2405 37.9668C29.2796 38.1347 29.3165 38.3033 29.3556 38.472C29.3201 38.4778 29.2832 38.4814 29.2485 38.4872C29.7414 38.8666 30.2503 39.1945 30.8062 39.4714C30.8431 38.8005 30.9604 38.1601 31.0943 37.4979C31.0552 37.4943 31.0161 37.4907 30.9785 37.4907C30.8837 37.5997 30.7715 37.5801 30.6484 37.5394C30.6383 37.4361 30.6281 37.3329 30.6195 37.2304C30.8518 37.2617 30.8518 37.2617 30.896 37.2595C31.0559 37.0778 31.0559 37.1229 31.0292 36.9128C31.0545 36.8815 31.0777 36.8503 31.1052 36.8219C31.1377 36.875 31.1703 36.9295 31.2065 36.9826H31.2203C31.2441 36.8983 31.2659 36.8132 31.2897 36.7282C31.2897 36.4549 31.166 36.4861 30.9372 36.412C30.8909 36.3364 30.8439 36.2564 30.7961 36.1794C30.7715 35.9678 30.7736 35.8552 30.6593 35.6909C30.6455 35.4808 30.6332 35.2729 30.6223 35.0665C30.6593 35.012 30.6991 34.9589 30.7403 34.9037C30.7338 34.7103 30.7251 34.6587 30.8366 34.501C30.9959 34.6493 31.2514 34.557 31.4294 34.6704C31.5626 35.0556 31.9846 35.318 32.0339 35.7331C31.9361 35.8007 31.9361 35.8007 31.8442 35.8763C31.7624 36.1096 31.7031 36.1227 31.8674 36.2935C31.8232 36.3458 31.7269 36.4127 31.7269 36.4832C31.8138 36.5355 31.8934 36.8096 31.9369 36.9092C31.7718 36.9092 31.8478 36.8183 31.7125 36.9862C31.6365 36.939 31.4294 36.774 31.3462 36.774C31.2941 36.9942 31.2514 37.048 31.3694 37.2384C31.3136 37.269 31.2601 37.3017 31.2065 37.3358C31.048 38.0525 30.8909 38.778 30.8743 39.5114C32.238 40.1714 33.6567 40.4534 35.1602 40.4716C35.1573 39.6146 35.1558 38.7605 35.1544 37.9057C35.1413 37.9057 35.1276 37.9079 35.1138 37.9108C35.0885 37.9551 35.0653 38.0009 35.0407 38.0467C34.9995 38.0533 34.9633 38.0584 34.9235 38.0613C34.8945 37.9057 34.8677 37.7552 34.8381 37.6026C34.8598 37.5553 34.8677 37.5052 34.8677 37.4536C34.8952 37.455 34.922 37.4609 34.9517 37.463C35.0147 37.6186 35.0335 37.5968 35.2072 37.6244C35.1826 37.6491 35.1544 37.676 35.1283 37.7044C35.1283 37.7742 35.2036 37.8236 35.2673 37.8236C35.2753 37.9064 35.3332 38.1449 35.475 38.0017C35.475 37.9297 35.475 37.8577 35.4765 37.7887C35.6104 37.7087 35.6531 37.551 35.7212 37.4107C35.7841 37.3511 35.8529 37.2908 35.9195 37.2333C35.9723 37.2479 35.9723 37.2479 36.044 37.274C36.0498 37.3889 35.9311 37.6244 35.9738 37.6949C36.0129 37.6978 36.0491 37.6978 36.091 37.7044C36.1765 37.8795 36.1482 37.9006 36.3328 37.9086C36.3183 38.0351 36.12 38.1456 36.0288 38.2161C35.9883 38.4298 36.1207 38.4879 36.0925 38.6857C36.0614 38.6769 35.9542 38.461 35.8797 38.5395C35.8529 38.6609 35.7639 38.7293 35.6307 38.7089C35.6372 38.4029 35.5757 38.3927 35.3505 38.1601C35.3288 38.1078 35.2782 37.9442 35.2275 37.9312C35.2275 38.7787 35.2275 39.6248 35.2297 40.4723C35.6495 40.4512 36.0664 40.412 36.4826 40.3524C36.2771 40.1947 36.0722 40.0326 35.8695 39.8719C36.12 39.8872 36.2561 39.9882 36.4718 40.1111C36.5319 40.1183 36.7157 40.1271 36.7548 40.1656C36.7411 40.1867 36.7411 40.2157 36.7548 40.2354C36.7953 40.2383 36.7953 40.2383 36.8337 40.2274C36.8352 40.2492 36.8381 40.2717 36.8417 40.2935C37.1138 40.2274 37.3925 40.1634 37.6611 40.0842C37.648 40.0616 37.6321 40.0369 37.614 40.0166C37.6372 39.9781 37.6611 39.9432 37.685 39.909H37.7139C38.0064 40.0653 38.3335 39.6459 38.479 39.4322C38.5681 39.3791 38.6513 39.4838 38.7208 39.5376C38.6325 39.5943 38.5833 39.6808 38.5442 39.7767C38.8192 39.656 38.8192 39.656 39.0675 39.5346C39.0632 39.0578 39.0241 38.5962 38.9618 38.1245C38.9539 38.1245 38.9452 38.1245 38.9372 38.1274C38.9148 38.0467 38.9148 38.0598 38.8229 38.054C38.812 38.0358 38.8069 38.0162 38.8011 37.9988C38.8786 37.9769 38.8243 37.7509 38.8229 37.7087C38.8395 37.6978 38.8569 37.6927 38.8779 37.6869C38.8779 37.6099 38.8069 37.064 38.7201 36.9542C38.7078 37.0356 38.6984 37.1156 38.6904 37.1963C38.6723 37.1716 38.6549 37.1505 38.6383 37.1287C38.6614 37.0727 38.6817 36.9724 38.7222 36.9331C38.673 36.7413 38.6245 36.5472 38.576 36.3567H38.5666C38.5586 36.5835 38.4117 36.7114 38.445 36.9346C38.3596 37.0727 38.272 37.2086 38.1888 37.346C38.1077 37.3962 38.0281 37.4456 37.9506 37.4958C37.9217 37.4725 37.9115 37.471 37.8753 37.471C37.8449 37.5234 37.8449 37.5234 37.8102 37.6062C37.7197 37.6549 37.5554 37.7058 37.5163 37.801C37.5054 37.7865 37.4975 37.7698 37.4873 37.7567C37.3976 37.7567 37.3093 37.7974 37.2239 37.8221C37.1261 37.7574 36.9836 37.6309 36.8685 37.612C36.7244 37.6804 36.5775 37.748 36.4276 37.8003C36.4247 37.8156 36.4233 37.8308 36.4204 37.8483C36.3552 37.8417 36.2916 37.8388 36.2286 37.8338C36.1685 37.7051 36.1714 37.636 36.0389 37.6273C36.0672 37.527 36.1526 37.3373 36.1055 37.2333C36.015 37.1926 35.9246 37.1527 35.8341 37.1127C35.8102 37.0822 35.7356 36.9499 35.7045 37.0415C35.7313 37.0923 35.8391 37.181 35.8449 37.2079C35.6727 37.3685 35.6068 37.4834 35.5076 37.6971C35.3614 37.7741 35.4114 37.7763 35.4114 37.9573H35.3455C35.3267 37.7698 35.3267 37.7698 35.3172 37.7545C35.2796 37.7502 35.2369 37.7545 35.2087 37.7269C35.2123 37.7145 35.2123 37.7145 35.3267 37.6113V37.5888C35.2651 37.5401 35.1341 37.5394 35.0552 37.5285C35.0357 37.4848 35.0176 37.4434 34.9988 37.4027C34.9872 37.4005 34.9734 37.3983 34.9618 37.3962C34.9973 37.3882 35.2716 37.3809 35.2897 37.3722C35.2897 37.2399 35.1153 37.149 34.998 37.1701C34.5927 37.3911 34.3509 36.9019 33.9796 36.8728C33.9188 36.835 33.8616 36.7958 33.7986 36.7572C33.7754 36.6518 33.7754 36.6518 33.7754 36.6119C33.884 36.6148 33.884 36.6148 33.8992 36.6031C33.8992 36.5261 33.8609 36.4556 33.8493 36.3793C33.9448 36.2775 34.0194 36.255 33.9231 36.1445C33.782 36.0573 33.6372 35.9686 33.4989 35.8763C33.4989 35.8334 33.4989 35.7949 33.5004 35.7549C33.47 35.7236 33.4403 35.696 33.4114 35.6691C33.4446 35.4808 33.5127 35.5375 33.7212 35.5085C33.8782 35.4561 34.0042 35.3209 34.1692 35.2969C34.1786 35.2795 34.1786 35.2795 34.2032 34.9575C34.4428 34.9022 34.4161 34.9408 34.474 34.7045C34.673 34.69 34.7302 34.7496 34.7649 34.5555C34.8055 34.5344 34.8533 34.4995 34.9003 34.4995C34.9546 34.5613 35.0103 34.6246 35.0661 34.69C35.15 35.0433 35.1471 34.9575 35.5286 35.0716C35.609 35.1385 35.6929 35.209 35.7754 35.2795C35.9094 35.2562 36.0425 35.2351 36.175 35.2155C36.2944 35.2497 36.4124 35.286 36.5319 35.3217C36.7461 35.3217 37.048 35.0207 37.1891 34.8659C37.1848 34.8194 37.1363 34.7452 37.1435 34.7176C37.1942 34.7045 37.2478 34.6944 37.3006 34.6856C37.3346 34.6457 37.7052 34.2713 37.7052 34.2401C37.5431 34.0721 37.5851 34.0649 37.3737 34.1339C37.3643 34.1238 37.3643 34.1238 37.3455 33.9849C37.5967 33.9122 37.42 33.6607 37.42 33.4892C37.4504 33.471 37.4504 33.471 37.5605 33.3758H37.8037C37.8855 33.4579 37.9644 33.5423 38.0447 33.628H38.3277C38.3516 33.6542 38.3748 33.6818 38.3994 33.7094H38.4385C38.4884 33.6295 38.5369 33.5531 38.5876 33.4783C38.6021 33.5052 38.6021 33.5052 38.7121 33.8999C38.5507 34.0721 38.5666 34.0394 38.6766 34.2502C38.5941 34.2829 38.5724 34.4697 38.5666 34.5519C38.3755 34.5904 38.4479 34.7685 38.3784 34.9349C38.2445 35.1029 38.2539 35.0651 38.3277 35.2657C38.7411 36.6017 39.116 37.9864 39.1421 39.3987C39.221 39.3573 39.2999 39.3195 39.3817 39.281C39.3882 39.2831 39.3882 39.2831 39.1457 39.4111V39.4976C40.2358 38.9393 41.1218 38.2234 41.9108 37.2893C41.9108 37.2617 41.9108 37.2377 41.9151 37.2101C41.7284 35.2519 40.8301 33.2828 39.441 31.8886C39.2854 31.7694 39.1247 31.6494 38.9662 31.531C38.8518 31.2671 38.6622 31.1355 38.4407 30.9371C38.3625 31.065 38.4407 31.3762 38.5977 31.4147C38.5883 31.4379 38.5811 31.4597 38.5731 31.4837C38.5094 31.4728 38.4334 31.5477 38.3784 31.5797C38.3806 31.6117 38.3835 31.6465 38.3849 31.6785C38.3118 31.7534 38.2402 31.8326 38.1707 31.9104C38.1721 32.183 38.175 32.4548 38.1779 32.7274C38.2105 32.7521 38.259 32.7311 38.2981 32.7274C38.3176 32.7521 38.3408 32.7747 38.3632 32.8016H38.4392C38.4761 32.7529 38.5022 32.6802 38.5254 32.6235C38.5442 32.6235 38.5673 32.6278 38.5883 32.6278C38.5854 32.6627 38.5514 32.6802 38.5731 32.7158C38.6281 32.7303 38.6853 32.7434 38.7396 32.7558C38.8113 32.8939 38.8844 33.0334 38.9589 33.1744C38.9792 33.4928 39.061 33.8606 38.9329 34.1492C38.8011 34.1492 38.783 34.1143 38.7534 34.2401C38.6426 34.0482 38.6325 34.083 38.7787 33.9246C38.7671 33.7465 38.7049 33.5219 38.6245 33.3605H38.5796C38.5254 33.4448 38.4674 33.5328 38.4124 33.6193C38.3929 33.5989 38.3762 33.5786 38.3574 33.5604H38.0795C37.9969 33.4747 37.9137 33.3911 37.8319 33.3082C37.5561 33.3082 37.5605 33.2886 37.3469 33.4645C37.3469 33.5808 37.4019 33.7341 37.4157 33.8592C37.3057 33.9551 37.1594 33.9231 37.0277 33.9588C36.6918 34.1928 36.6506 34.0889 36.2604 34.1041C36.1822 34.1507 36.1822 34.1506 36.1613 34.1565C36.0244 34.0096 35.9767 33.9973 35.7754 33.9522C35.6727 34.0518 35.6864 34.1528 35.6864 34.2851C35.5192 34.2822 35.3694 34.28 35.2043 34.2473C35.0856 34.2648 34.9589 34.3622 34.8482 34.4101C34.82 34.3796 34.7939 34.3491 34.7686 34.3215C34.6404 34.3215 34.6252 34.2822 34.5326 34.1899C34.4313 34.1528 34.3538 34.1899 34.2865 34.0976C34.251 34.0976 34.2402 34.1041 34.2076 34.115C34.1757 34.0133 34.1099 33.716 34.0425 33.6506C34.0107 33.6506 34.0107 33.6506 33.8102 33.6905C33.8066 33.6026 33.6922 33.6026 33.6227 33.5779C33.5735 33.4296 33.5735 33.4296 33.5605 33.4121C33.5286 33.402 33.5286 33.402 32.8562 33.3882C32.8381 33.4158 32.8424 33.4616 32.8424 33.4943C32.77 33.503 32.7411 33.4906 32.7295 33.5619C32.6969 33.5641 32.6832 33.567 32.6549 33.5822C32.6578 33.628 32.6651 33.6753 32.6708 33.724C32.6404 33.7218 32.6108 33.7211 32.5811 33.7174C32.5094 33.5502 32.4769 33.5822 32.2923 33.5677C32.2177 33.4703 32.1403 33.3751 32.065 33.2777C31.9781 33.2806 31.8486 33.2588 31.7747 33.298C31.7052 33.2282 31.5764 33.3787 31.517 33.4201C31.517 33.5306 31.5337 33.6622 31.4997 33.7683C31.4845 33.7618 31.4845 33.7618 31.4642 33.732C31.4027 33.732 31.2724 33.8592 31.2507 33.9231C31.2449 34.054 31.2398 34.1899 31.2369 34.3229C31.2181 34.3229 31.1971 34.3251 31.1812 34.328C30.9879 34.0009 30.812 33.7705 30.783 33.3889H30.841C30.8996 33.314 30.8808 33.2217 30.9727 33.1635C31.3411 33.0472 31.36 33.1883 31.1175 32.702C31.1327 32.5457 31.1949 32.4599 31.1015 32.3364C31.1095 32.316 31.1175 32.2949 31.1269 32.2767C31.3549 32.3705 31.3238 31.9933 31.3332 31.8435C31.4758 31.7985 31.6155 31.757 31.7552 31.7185C31.8768 31.6335 31.8066 31.4118 31.7979 31.302C31.8782 31.3362 31.9789 31.3921 32.0679 31.3921C32.1895 31.2628 32.3089 31.1363 32.4298 31.0105C32.3972 31.1922 32.3987 31.1966 32.2539 31.3238C32.2539 31.3936 32.2662 31.4757 32.2981 31.5382C32.3104 31.5382 32.3249 31.5382 32.3408 31.5419C32.3647 31.5055 32.3914 31.4677 32.419 31.4357C32.4399 31.4866 32.4617 31.5375 32.4855 31.5899C32.4986 31.5899 32.5109 31.5898 32.5254 31.5928C32.55 31.5462 32.5746 31.4975 32.5985 31.451C32.6441 31.443 32.6441 31.443 32.7244 31.443C32.7251 31.4961 32.715 31.5535 32.7816 31.5535C32.8163 31.5048 32.8518 31.4554 32.8902 31.4074C32.9003 31.5353 32.9003 31.5353 32.9068 31.5462C33.0378 31.5419 33.31 31.5077 33.3534 31.5113C33.3382 31.5375 33.3288 31.568 33.3534 31.5928C33.4019 31.5928 33.4439 31.5928 33.4902 31.5775C33.9209 30.8484 34.361 30.1368 34.8453 29.4405C34.8634 29.4303 34.9039 29.4514 34.9119 29.4674C34.7939 29.6331 34.6795 29.7981 34.5666 29.966C34.4284 30.1775 33.483 31.5462 33.5684 31.6727C33.6365 31.6618 33.685 31.6 33.7392 31.5535C33.8051 31.632 33.8051 31.632 33.9455 31.8283C34.0042 31.8363 34.0259 31.7985 34.065 31.7607C34.065 31.7083 34.0447 31.6734 34.0216 31.6247C34.0216 31.4823 34.141 31.3674 34.2481 31.2933C34.2633 31.3035 34.2858 31.3107 34.3039 31.3202C34.2539 31.5106 34.2032 31.6996 34.1533 31.893C34.141 31.906 34.0027 31.962 33.9455 31.9933C33.9455 32.0645 34.0259 32.1285 34.0932 32.1285C34.1345 32.0812 34.3024 31.8428 34.3567 31.8428C34.3545 31.8857 34.3545 31.9351 34.3545 31.9816C34.4037 32.0303 34.4884 32.0696 34.4884 31.9707C34.4747 31.9642 34.4631 31.9562 34.4537 31.9526C34.4573 31.9053 34.4617 31.8573 34.4653 31.8094C34.4153 31.7817 34.3625 31.7563 34.3111 31.7301C34.3046 31.6291 34.3299 31.4946 34.3914 31.4183C34.3914 31.5564 34.4009 31.5455 34.5268 31.6095C34.555 31.592 34.555 31.592 34.5644 31.5695C34.5442 31.5339 34.5268 31.499 34.5101 31.4626C34.5673 31.4081 34.652 31.4874 34.7041 31.5193C34.6781 31.5935 34.6064 31.7396 34.7469 31.7396C34.8706 31.6153 34.7758 31.4496 34.7186 31.3383C34.7208 31.3311 34.7251 31.3253 34.7288 31.3224C34.9314 31.2678 34.9379 31.3071 34.9654 31.1094C35.0183 31.0803 35.0726 31.0476 35.1276 31.0163C35.1283 30.5133 35.1319 30.0103 35.1356 29.5095H35.1964C35.1993 30.006 35.2007 30.5024 35.2058 30.9989C35.2854 30.9945 35.3809 31.0258 35.3809 30.9284C35.4128 30.9146 35.428 30.8797 35.4403 30.8426C35.4475 30.8506 35.4475 30.8506 35.5011 30.8506C35.5337 30.9531 35.6184 30.8462 35.6879 30.8462C35.8717 30.9524 35.7212 31.0869 35.6372 31.2344C35.7327 31.2962 35.8326 31.2889 35.8529 31.1428C35.8695 31.1646 35.8876 31.1886 35.9086 31.2126H35.9499C36.0527 31.0483 36.1736 31.1886 36.3089 31.0781C36.3089 31.036 36.2952 31.0105 36.3046 30.9691C36.0179 30.4632 35.719 29.9602 35.4056 29.471C35.4121 29.4594 35.4121 29.4594 35.4635 29.4361C35.7849 29.9304 36.1106 30.437 36.3762 30.9625C36.4559 31.0331 36.6281 31.2395 36.7621 31.1741C36.7671 31.1246 36.7454 31.0781 36.7324 31.0302C36.8395 31.0389 36.88 30.9684 36.9568 30.8971C36.9488 30.8215 36.9141 30.7968 36.8721 30.7336C36.8945 30.6856 37.0219 30.6275 37.0682 30.5977C37.0842 30.6107 37.0986 30.6224 37.1175 30.6369C37.1826 30.6289 37.1826 30.6289 37.3136 30.5977C37.3505 30.5308 37.3882 30.4632 37.4273 30.3992C37.551 30.4007 37.6727 30.469 37.6611 30.3149C37.0234 29.8686 36.3299 29.5524 35.5952 29.3016C35.6017 29.2776 35.6082 29.258 35.6176 29.2398C36.3567 29.4899 37.0349 29.8068 37.6879 30.2429C37.6879 30.2131 37.6907 30.1841 37.6958 30.1564C37.8044 30.1368 37.8044 30.1368 37.8348 30.123C37.8348 30.1063 37.8348 30.0932 37.837 30.0787C37.7899 30.0481 37.7421 30.0176 37.6951 29.9871C37.7624 29.7639 37.9289 29.6142 38.1591 29.5793C38.1714 29.5619 38.1714 29.5371 38.1634 29.5161C38.1395 29.5095 38.1084 29.5095 38.0983 29.4892C38.112 29.4688 38.1229 29.4485 38.1366 29.4281C38.1888 29.4281 38.2865 29.5255 38.3285 29.5597C38.2836 29.604 38.2583 29.6593 38.23 29.7203C38.1989 29.7152 38.1518 29.6949 38.1265 29.7203C38.1265 29.7334 38.1294 29.7458 38.1308 29.7647C38.1815 29.7981 38.23 29.8315 38.2807 29.865C38.3212 29.9871 38.3212 29.9871 38.335 30.0016C38.4095 30.0038 38.4892 30.006 38.5666 30.0111C38.5724 30.0307 38.5637 30.0351 38.5514 30.0496C38.5514 30.1892 38.7483 30.4261 38.8229 30.549C38.7454 30.5984 38.7454 30.5984 38.7324 30.6195C38.7664 30.7874 38.7237 31.1748 39.0118 31.1232C39.0451 31.1435 39.0791 31.1646 39.1131 31.1857C39.1124 31.2039 39.1088 31.2242 39.1066 31.2446C39.2941 31.4074 39.3136 31.5026 39.3903 31.7403C40.6679 33.0698 41.5148 34.6471 41.892 36.4599C41.9499 36.8452 41.981 37.1519 41.9897 37.1781C42.3943 36.601 42.6911 36.0427 42.8815 35.3754C42.9242 35.0389 42.9473 34.6951 42.9473 34.3462C42.9481 32.404 42.2452 30.6187 41.0842 29.2348ZM29.8717 40.0166C29.9043 39.9926 29.9398 40.0078 29.9803 40.0122C29.9962 39.9955 29.9962 39.9955 30.0042 39.973C30.0216 39.9715 30.0382 39.9708 30.0549 39.9708C30.0773 39.989 30.0773 39.9889 30.1482 40.114C30.1019 40.2121 30.1642 40.3262 30.1497 40.4302C29.968 40.2637 29.829 40.1721 29.7443 39.9402C29.7653 39.9461 29.7653 39.9461 29.8717 40.0166ZM38.3632 39.3864C38.4066 39.3268 38.5051 39.1559 38.5724 39.1349C38.6238 39.1857 38.6477 39.1828 38.723 39.1894C38.6043 39.2999 38.6028 39.3311 38.4464 39.3667C38.3704 39.4736 38.2952 39.5848 38.2192 39.6953C38.1026 39.7505 37.9897 39.8065 37.8724 39.8625C37.9998 39.6713 38.1649 39.4961 38.3632 39.3864ZM36.0802 38.3935C36.0881 38.2226 36.2213 38.0249 36.3842 38.1572C36.4037 38.2335 36.3842 38.3295 36.4139 38.3964C36.5355 38.3964 36.6499 38.3055 36.77 38.2873C36.888 38.3964 36.9792 38.4523 36.9676 38.6355C36.6824 38.6631 36.5956 38.6922 36.6477 39.0113H36.631C36.5065 38.9059 36.3813 38.8419 36.3205 38.9938C36.1757 38.7801 36.1757 38.7801 36.1555 38.7293C36.1873 38.5519 36.1859 38.5323 36.0802 38.3935ZM36.2387 39.2504C36.2409 39.1894 36.2459 39.153 36.2814 39.1036C36.285 39.1138 36.285 39.1138 36.2387 39.2504ZM36.2604 39.0215C36.2416 39.0505 36.2416 39.0506 36.2163 39.0702C36.1576 38.9008 36.1576 38.9008 36.1547 38.8623C36.1873 38.9161 36.2242 38.967 36.2604 39.0215ZM36.2047 39.5201C36.2047 39.4714 36.2047 39.4714 36.2351 39.3319C36.285 39.4053 36.398 39.5201 36.4175 39.6015C36.335 39.5848 36.2771 39.5579 36.2047 39.5201ZM36.4551 39.6459C36.4501 39.6393 36.4486 39.632 36.4465 39.627C36.4624 39.6255 36.4624 39.6255 36.4798 39.6357C36.4718 39.6401 36.4624 39.64 36.4551 39.6459ZM36.8315 40.0486C36.6021 39.9715 36.5847 39.941 36.4761 39.7229C36.5862 39.6277 36.6962 39.6902 36.8084 39.7818C36.8134 39.9024 36.8214 39.9279 36.8981 40.0173C36.8909 40.0435 36.8576 40.0471 36.8315 40.0486ZM37.6024 37.974C37.5822 38.0467 37.5568 38.0838 37.5098 38.1427C37.4917 38.1427 37.4729 38.1449 37.4555 38.1456C37.3621 38.0758 37.5474 37.998 37.6024 37.974ZM37.4164 38.5475C37.4432 38.6624 37.4692 38.7751 37.4989 38.8921C37.386 38.9989 37.2897 39.1777 37.1283 39.1661C37.0957 39.2148 37.0957 39.2148 37.0624 39.2504C37.0595 39.2047 37.0596 39.2046 37.0487 39.1748C37.0111 39.1618 36.8902 39.1509 36.8873 39.1421C37.284 38.8347 37.2839 38.8347 37.2948 38.8172V38.5686C37.2347 38.4632 37.2347 38.4632 37.2304 38.44C37.2897 38.4734 37.3505 38.5119 37.4164 38.5475ZM37.2347 38.6021C37.2275 38.666 37.2224 38.73 37.2224 38.7976C37.0834 38.9037 36.9459 39.0069 36.8091 39.1145C36.7838 39.0811 36.7606 39.0636 36.7251 39.044C36.6535 38.7096 36.7411 38.7293 37.0704 38.6871C37.1826 38.621 37.1826 38.621 37.2347 38.6021ZM37.1855 37.8745C37.1855 37.974 37.0183 38.1063 36.9814 38.2146C36.7997 38.0954 36.8873 38.1645 36.8873 38.0191C36.8026 37.9733 36.6412 37.9086 36.6412 37.793C36.9524 37.652 36.8793 37.676 37.1855 37.8745ZM36.4059 37.9224C36.4341 37.9188 36.4667 37.9152 36.4993 37.9093C36.5123 37.8883 36.5058 37.8614 36.4993 37.8417C36.5232 37.8374 36.5492 37.8316 36.5746 37.8301C36.6477 37.9522 36.6846 37.974 36.8084 38.0467C36.8084 38.0867 36.7809 38.1151 36.7838 38.1608C36.8576 38.2066 37.2347 38.4116 37.1899 38.5439C37.137 38.5686 37.09 38.5962 37.04 38.6231C37.0031 38.3862 36.972 38.3782 36.7765 38.2088C36.6701 38.2328 36.5695 38.2771 36.4682 38.3193C36.4638 38.2561 36.4617 38.1965 36.4551 38.1347C36.4168 38.1034 36.3741 38.0685 36.3495 38.0286C36.3697 37.9922 36.3842 37.9566 36.4059 37.9224ZM35.2108 37.3118C35.1167 37.3148 35.0226 37.3213 34.9322 37.3271C34.8844 37.1592 35.2 37.3068 35.2108 37.3118ZM39.2079 38.6995C39.2318 38.6689 39.2543 38.6406 39.2789 38.6108C39.2854 38.6108 39.289 38.6108 39.2926 38.6137C39.2637 38.6406 39.234 38.6697 39.2079 38.6995ZM39.5858 38.5439C39.4794 38.5257 39.4924 38.658 39.491 38.7278C39.4606 38.7293 39.4345 38.7314 39.4077 38.7336C39.4077 38.6856 39.4077 38.6464 39.3737 38.6137C39.3969 38.5875 39.3969 38.5875 39.4968 38.3927C39.5156 38.3956 39.5322 38.4 39.5525 38.4065C39.5691 38.4487 39.6111 38.5039 39.5858 38.5439ZM39.6111 33.4143C39.6278 33.4187 39.6502 33.4245 39.6698 33.4281C39.593 33.6324 39.6813 33.6636 39.4685 33.7712C39.4729 33.732 39.4801 33.6942 39.4873 33.6578C39.4664 33.6157 39.3889 33.5015 39.3998 33.4587C39.5069 33.4681 39.5228 33.4746 39.6111 33.4143ZM39.5004 33.8628C39.5004 33.8781 39.5004 33.8781 39.491 33.8817C39.4866 33.8752 39.4801 33.8686 39.4758 33.8628H39.5004ZM39.5995 34.8921C39.5995 34.8056 39.5995 34.8056 39.5872 34.6842C39.5995 34.6834 39.6111 34.6827 39.6227 34.6827C39.7602 34.4392 39.6111 34.2233 39.6278 33.9711C39.7964 34.0961 39.8543 34.3636 39.8782 34.5701C39.8116 34.5701 39.7964 34.7474 39.7798 34.8005C39.5633 34.8579 39.7132 34.871 39.6734 35.0265C39.6669 35.0265 39.6625 35.0294 39.6589 35.0302C39.6408 35.0113 39.6256 34.9866 39.6111 34.9662H39.5706C39.4917 35.0454 39.4128 35.1268 39.3353 35.2068C39.3853 35.036 39.4577 35.0047 39.5995 34.8921ZM39.2687 35.4074C39.3078 35.414 39.3078 35.414 39.3578 35.4401C39.3563 35.4852 39.3534 35.5354 39.3513 35.5848C39.3469 35.5848 39.3433 35.5848 39.3419 35.5877C39.3194 35.5114 39.31 35.4867 39.2543 35.4321C39.2593 35.4227 39.2637 35.414 39.2687 35.4074ZM39.2181 38.0693C39.2181 38.0758 39.2217 38.0787 39.2239 38.0867H39.2022C39.1942 38.0823 39.1891 38.078 39.1869 38.0758C39.2079 38.0671 39.2079 38.0671 39.2181 38.0693ZM39.103 38.3629H39.1247C39.116 38.3716 39.1095 38.3818 39.103 38.3935V38.3629ZM38.8019 34.9836C38.82 34.9902 38.82 34.9902 38.9973 35.1777C38.9734 35.3144 38.9597 35.3936 38.8388 35.4757C38.7794 35.2722 38.728 35.1828 38.8019 34.9836ZM38.7461 34.3222C38.7418 34.3956 38.7418 34.3956 38.7519 34.5897C38.6593 34.7881 38.5767 34.8012 38.7461 34.9248C38.6991 35.0861 38.707 35.0825 38.5543 35.1268C38.5543 35.0302 38.5731 34.9248 38.4573 34.932C38.479 34.8288 38.4978 34.7263 38.5174 34.626C38.5536 34.6188 38.589 34.6158 38.6245 34.6122C38.6527 34.5177 38.6528 34.4225 38.6889 34.328C38.707 34.3266 38.7273 34.3251 38.7461 34.3222ZM34.9495 34.445C35.0255 34.4043 35.1008 34.3658 35.1804 34.3251C35.3621 34.3375 35.5409 34.3527 35.7269 34.3527C35.7921 34.2662 35.7364 34.1368 35.7986 34.0329C35.8681 34.0409 35.8681 34.0409 35.989 34.0721C36.1395 34.2313 36.1135 34.2888 36.2937 34.1608C36.4211 34.1717 36.6889 34.2422 36.8033 34.203C36.9915 34.0678 37.0523 34.022 37.2789 33.9951C37.323 34.2815 37.2861 34.2124 37.5351 34.1615C37.5619 34.1892 37.5865 34.2168 37.614 34.2437C37.6024 34.2815 37.5438 34.3135 37.512 34.3382C37.4273 34.4341 37.3462 34.5337 37.2644 34.6326C37.1949 34.6427 37.1218 34.6471 37.0596 34.6784C37.0596 34.7343 37.0907 34.7772 37.1175 34.8259C37.1175 34.9618 36.6448 35.2431 36.542 35.2613C36.2821 35.1072 36.0722 35.1661 35.8015 35.2155C35.711 35.1421 35.6227 35.0716 35.5344 35.004C35.2275 34.9139 35.2275 34.9139 35.1884 34.8957C35.1479 34.7132 35.1066 34.5831 34.9495 34.461V34.445V34.445ZM33.4186 29.8788C33.4063 29.881 33.3925 29.8817 33.3802 29.8839C33.3853 29.8751 33.3853 29.8751 33.4186 29.8788ZM31.8174 29.0007C31.871 28.9658 31.918 28.912 31.976 28.8946C31.9745 28.9898 31.9912 28.9346 32.0165 28.9847C31.9796 29.024 31.9637 29.024 31.9702 29.0828C31.997 29.0908 31.997 29.0908 32.031 29.085C32.0122 29.141 31.9123 29.1882 31.858 29.2129C31.8406 29.2042 31.8261 29.1962 31.8095 29.1868C31.8116 29.1243 31.8138 29.061 31.8174 29.0007ZM32.0874 30.3825V30.3927C32.0346 30.405 31.9832 30.4225 31.9325 30.4363C31.9043 30.4181 31.8782 30.3985 31.8529 30.3803C31.9325 30.3796 32.01 30.3796 32.0874 30.3825ZM31.0393 30.445C31.1081 30.4377 31.2738 30.4581 31.2738 30.3672C31.2608 30.3585 31.2485 30.3498 31.2369 30.3425C31.2376 30.336 31.2449 30.3316 31.2485 30.3294C31.2572 30.3309 31.2666 30.3316 31.2738 30.3345C31.2905 30.3774 31.2905 30.3774 31.31 30.4028C31.3187 30.4028 31.3281 30.4043 31.3397 30.4101C31.3462 30.4021 31.3563 30.3934 31.3643 30.389C31.3563 30.3534 31.3491 30.3185 31.3419 30.2829C31.3491 30.2829 31.3571 30.2873 31.3643 30.2895C31.3657 30.2938 31.3701 30.3018 31.3737 30.3134C31.4794 30.3156 31.5134 30.3069 31.5865 30.3796C31.4396 30.5555 31.4512 30.5831 31.234 30.6071C31.2282 30.594 31.2253 30.5853 31.2203 30.578C31.1703 30.578 31.1493 30.5788 31.0994 30.5969C31.069 30.578 31.0386 30.5548 31.0053 30.5395C31.006 30.5053 31.0219 30.4792 31.0393 30.445ZM30.938 29.8839C30.9343 29.8911 30.93 29.8977 30.9293 29.9064C30.9162 29.9028 30.909 29.8969 30.901 29.8962C30.9119 29.8904 30.9242 29.8875 30.938 29.8839ZM30.6701 30.8244C30.7317 30.7757 30.804 30.6929 30.8866 30.7285V30.7438C30.8062 30.8041 30.7722 30.815 30.6701 30.8244ZM30.7657 31.5063C30.7939 31.5063 30.8207 31.5084 30.8482 31.5106C30.8482 31.6182 30.9792 31.5019 31.0277 31.4924C31.0581 31.5717 31.0892 31.6495 31.1218 31.7287C31.0567 31.8428 30.9459 31.7374 30.8887 31.6923C30.8004 31.7381 30.7114 31.8799 30.6506 31.962C30.6108 31.9765 30.6108 31.9765 30.3943 32.0093C30.3176 31.8217 30.3299 31.6008 30.398 31.411C30.4588 31.3602 30.5203 31.3122 30.5804 31.2664C30.7454 31.3085 30.6998 31.398 30.7657 31.5063ZM30.8424 29.9129C30.8279 29.9522 30.82 29.9893 30.8113 30.0263C30.6933 30.0343 30.7027 30.0372 30.6043 30.0867C30.6021 30.0634 30.6021 30.0423 30.6021 30.0227C30.6933 29.9856 30.749 29.9362 30.8424 29.9129ZM30.3328 31.3841C30.3017 31.6262 30.2387 31.7963 30.322 32.0194C30.3046 32.0202 30.2894 32.0231 30.2749 32.0267C30.1555 31.7847 30.2156 31.7716 30.1728 31.5113C30.2156 31.4016 30.2431 31.3013 30.2662 31.1864C30.3625 31.1697 30.5015 31.0607 30.5681 31.0607C30.5724 31.0643 30.5775 31.068 30.5847 31.0759C30.5623 31.238 30.4544 31.2875 30.3328 31.3841ZM29.7204 31.6829C29.4852 31.6829 29.4128 32.2586 29.3911 32.433C29.3744 32.433 29.3571 32.4352 29.3411 32.4388C29.3107 32.4817 29.2745 32.5493 29.2246 32.5595C29.3781 32.3502 29.3882 32.1335 29.4389 31.877C29.4903 31.7956 29.6408 31.5884 29.5503 31.4961C29.6285 31.3987 29.7089 31.3064 29.7878 31.2111C29.8167 31.2082 29.8464 31.2068 29.8761 31.2032C29.8761 31.3035 29.8963 31.3623 29.8261 31.4314C29.8406 31.5317 29.8565 31.6298 29.8717 31.7287C29.842 31.741 29.8167 31.7556 29.7878 31.7745C29.7878 31.8094 29.7878 31.8428 29.7921 31.8813C29.8051 31.8908 29.8167 31.9002 29.8326 31.9119C29.8232 31.9969 29.7834 31.9613 29.7443 32.0187C29.7117 32.1256 29.6596 32.2317 29.6488 32.3443C29.6654 32.3567 29.6864 32.3662 29.7067 32.3778C29.7067 32.6293 29.6111 32.4897 29.7364 32.7412H29.7204C29.6488 32.6874 29.622 32.6649 29.538 32.6511C29.6285 32.4999 29.6285 32.3502 29.6495 32.1728C29.7125 31.9867 29.8247 31.8573 29.7204 31.6829ZM29.3701 33.0829H29.3571C29.3455 33.1337 29.3238 33.1519 29.2963 33.1955C29.2963 33.1439 29.3035 33.1257 29.3238 33.0734C29.3701 33.0749 29.3701 33.0749 29.3701 33.0829ZM29.1406 31.1588C29.1747 31.1036 29.2883 30.9611 29.3571 30.8499H29.4034C29.3571 30.972 29.3491 31.0592 29.3368 31.1922C29.3057 31.2104 29.2753 31.2279 29.2463 31.2482C29.2123 31.2075 29.1899 31.1748 29.1406 31.1588ZM29.9173 31.9199C29.9188 31.9976 29.9463 32.0914 29.9463 32.1539C29.9 32.1997 29.8102 32.3182 29.7494 32.3305C29.7422 32.324 29.7335 32.3196 29.7248 32.3153C29.7248 32.236 29.7776 32.1343 29.8022 32.058C29.8703 32.0471 29.8884 31.9795 29.9173 31.9199ZM29.7146 32.582C29.7602 32.4512 29.8695 32.2411 30.0035 32.1961C29.9694 32.3189 29.8804 32.4999 29.8804 32.6198C29.8869 32.6249 29.8956 32.6344 29.9021 32.6409C29.8616 32.6824 29.8616 32.6823 29.8015 32.726C29.774 32.6758 29.7443 32.63 29.7146 32.582ZM29.9289 32.646C29.9941 32.7449 30.0577 32.8437 30.1251 32.9426C30.1041 32.9862 29.9904 32.9847 29.9419 33.0313C29.8507 32.9542 29.7986 32.9237 29.7986 32.7965C29.8312 32.7543 29.8804 32.6627 29.9289 32.646ZM29.968 32.5849C29.968 32.441 30.1316 32.2455 30.0317 32.1328C30.0208 32.0761 30.0208 32.0761 30.0136 31.8842C30.0759 31.869 30.0758 31.869 30.128 31.8719C30.2184 32.0543 30.2887 32.2273 30.4146 32.3894C30.5051 32.5704 30.4595 32.6162 30.3907 32.811C30.322 32.8466 30.2539 32.8815 30.1866 32.9186C30.1142 32.8095 30.0411 32.6954 29.968 32.5849ZM30.209 31.1363C30.133 31.2933 30.1091 31.5462 30.149 31.7185C30.1395 31.7432 30.1396 31.7432 30.1012 31.7956C30.0455 31.8021 29.9948 31.8072 29.9419 31.8108C29.9325 31.8232 29.9202 31.89 29.9144 31.89V31.8762C29.8963 31.8661 29.8768 31.8573 29.8594 31.8479V31.8086C29.8869 31.7948 29.913 31.7803 29.9376 31.7716C29.9325 31.6829 29.9325 31.6829 29.8963 31.4546C29.9629 31.3725 29.9463 31.3158 29.9484 31.2075C30.0657 31.137 30.0693 31.1261 30.1091 30.9953C30.204 30.932 30.3046 30.8426 30.4305 30.8586C30.4153 30.892 30.4132 30.9008 30.4262 30.9378C30.4826 30.9378 30.5275 30.9059 30.5789 30.8782C30.4769 31.06 30.4088 31.0847 30.209 31.1363ZM30.3285 30.8005C30.3422 30.7903 30.3596 30.7801 30.3755 30.7736C30.3762 30.7801 30.3784 30.7852 30.3813 30.7954C30.3632 30.7968 30.3458 30.7983 30.3285 30.8005ZM30.1171 30.2662C30.1642 30.3018 30.183 30.3258 30.2394 30.3193C30.2525 30.264 30.2626 30.2124 30.2749 30.1601C30.3473 30.1739 30.419 30.1884 30.4928 30.2001C30.3886 30.3055 30.314 30.3563 30.2749 30.4973C30.2351 30.5068 30.196 30.5148 30.1591 30.5279C30.1171 30.3011 30.1171 30.3011 30.1171 30.2662ZM29.4931 30.8041C29.5511 30.7794 29.609 30.7539 29.6654 30.7285C29.7262 30.658 29.7935 30.4792 29.8601 30.4443C29.8601 30.4792 29.8623 30.5126 29.8638 30.5482C29.8956 30.5788 29.9195 30.5555 29.9492 30.5344C29.9723 30.6936 29.9492 30.6485 30.1453 30.7081C30.1678 30.7387 30.1938 30.7692 30.2163 30.8034C30.2279 30.8034 30.2945 30.7852 30.2945 30.8114C30.0368 30.8652 30.0925 31.0512 29.9419 31.1326C29.8833 31.1363 29.8239 31.137 29.7653 31.1399C29.6748 31.2475 29.5815 31.3522 29.491 31.459C29.4671 31.4437 29.4454 31.4285 29.4251 31.4147C29.441 31.1792 29.3911 31.0418 29.4931 30.8041ZM29.2231 30.4443C29.2246 30.4661 29.2246 30.4661 29.2174 30.5061C29.1443 30.5301 29.0719 30.5555 29.0009 30.5846C29.0675 30.5112 29.1312 30.485 29.2231 30.4443ZM28.9184 30.6827C29.0335 30.642 29.15 30.6013 29.2688 30.562C29.2912 30.4923 29.3086 30.3309 29.4171 30.3309C29.3846 30.5853 29.2811 31.0854 28.9865 31.1748C28.972 31.2002 28.9561 31.2286 28.9249 31.2359C28.8916 31.2228 28.8627 31.2082 28.8344 31.1966C28.8221 31.137 28.8113 31.073 28.8033 31.012C28.825 30.895 28.9047 30.8034 28.9184 30.6827ZM28.7346 36.8452C28.6976 36.8459 28.6709 36.8459 28.6462 36.8706C28.6976 37.2879 28.6976 37.2879 28.6962 37.3118C28.5 37.0429 28.3987 36.8954 28.2612 36.5857C28.2061 36.3967 28.1504 36.2077 28.0976 36.0224C28.0939 35.8028 28.0932 35.5899 28.0896 35.3754C28.1301 35.3449 28.1707 35.3187 28.2105 35.2926C28.2373 35.3238 28.2423 35.3318 28.2858 35.3362C28.3328 35.217 28.3784 35.1021 28.4255 34.9866C28.4566 35.012 28.466 35.0178 28.5007 35.0236C28.5362 34.9815 28.5688 34.9371 28.6028 34.8957C29.0045 35.4692 29.0045 35.4692 29.0813 35.5688C29.1182 35.5724 29.1544 35.5768 29.1935 35.5804C29.1935 35.6793 29.2203 35.7738 29.2261 35.8712C29.2152 35.9235 29.1935 36.2702 29.137 36.3029C29.0711 36.4185 29.0067 36.5341 28.9416 36.6497C28.8815 36.6497 28.8214 36.6497 28.7613 36.6533C28.7237 36.6896 28.7375 36.7914 28.7346 36.8452ZM27.5735 33.6309H27.5416C27.4917 33.7211 27.4468 33.8134 27.3991 33.9079C27.394 33.9079 27.3911 33.9108 27.3853 33.9144C27.3563 33.8032 27.3267 33.6971 27.3021 33.588C27.4729 33.4201 27.5076 33.3925 27.5619 33.1585C27.6032 33.3736 27.6053 33.3831 27.7552 33.2137C28.0447 33.4339 28.1446 33.4957 28.1786 33.8635C28.0939 34.0271 28.01 34.1921 27.9246 34.3542C27.8044 34.3927 27.8044 34.3927 27.7668 34.3963C27.7146 34.3258 27.664 34.2539 27.6148 34.1834C27.5655 34.0096 27.6785 33.7719 27.5735 33.6309ZM27.5264 33.7981C27.5373 34.1347 27.5293 34.1761 27.7103 34.4327C27.6944 34.589 27.6821 34.7416 27.5532 34.8419C27.5395 34.775 27.5395 34.775 27.5236 34.7518C27.5127 34.7474 27.5026 34.7474 27.4924 34.7474C27.4635 34.3956 27.3679 34.1078 27.5264 33.7981ZM27.706 34.9248C27.7284 34.7641 27.7827 34.6129 27.8109 34.4559C27.8601 34.4421 27.9086 34.4319 27.9608 34.421C28.0462 34.2553 28.133 34.0889 28.2199 33.926C28.2264 33.9413 28.23 33.958 28.2344 33.9769C28.0939 34.0038 28.3466 34.8237 28.3726 34.9313C28.3372 35.0316 28.3024 35.1363 28.2662 35.2366C28.0187 35.1043 28.0237 35.4736 28.0208 35.5855H27.9904C27.8782 35.5601 27.7863 35.4227 27.7067 35.3435V34.9248H27.706ZM28.4732 34.895C28.3169 34.7881 28.2474 34.2531 28.2119 34.0445C28.3553 34.0227 28.1461 33.5015 28.162 33.4165C28.17 33.4114 28.1779 33.4063 28.1873 33.4034C28.1946 33.3482 28.2083 33.0574 28.217 33.0356C28.3379 32.8953 28.4349 32.7325 28.6057 32.6584C28.618 32.7383 28.618 32.7383 28.6462 33.5444C28.6774 33.5713 28.7063 33.5902 28.7425 33.6077C28.783 33.5873 28.812 33.5313 28.841 33.4965C28.9488 33.4965 29.0046 33.8657 29.0046 33.9646C28.4892 34.8833 28.4892 34.8833 28.4732 34.895ZM28.5 32.63C28.5666 32.5014 28.6318 32.3756 28.7005 32.252C28.791 32.252 28.8069 32.252 28.8743 32.1902C28.9488 32.2666 28.8279 32.3567 28.7838 32.4076C28.6144 32.4076 28.6491 32.4199 28.6144 32.5849C28.5775 32.6009 28.5398 32.6133 28.5 32.63ZM28.542 30.9473C28.5869 31.0294 28.6057 31.0374 28.6962 31.0192C28.6759 31.1334 28.6694 31.4067 28.5608 31.4721C28.5442 31.3885 28.542 31.3965 28.4566 31.382C28.424 31.3064 28.327 31.1334 28.3444 31.052C28.3972 31.0236 28.4783 30.9473 28.542 30.9473ZM28.4906 31.4612C28.4964 31.5281 28.4819 31.5811 28.5521 31.5811C28.5978 31.5331 28.6448 31.4859 28.6911 31.4394C28.7968 31.6298 28.812 31.8762 28.8562 32.0921C28.8033 32.1517 28.7099 32.1481 28.6549 32.1881C28.4964 32.4941 28.3755 32.7325 28.1562 32.9906C28.1164 33.1105 28.1084 33.25 28.0896 33.3743C28.086 33.378 28.0809 33.3787 28.0795 33.3816C27.9955 33.3169 27.9137 33.2508 27.8319 33.1883C27.8319 32.558 28.0867 31.8966 28.2814 31.3078C28.3024 31.294 28.3176 31.2802 28.3408 31.2802C28.382 31.3776 28.3784 31.4612 28.4906 31.4612ZM28.3053 31.1828C28.2887 31.1922 28.2735 31.2061 28.2575 31.2199C28.2626 31.1842 28.2706 31.1501 28.2792 31.1137H28.2887C28.293 31.137 28.2995 31.1588 28.3053 31.1828ZM28.1157 30.9655C28.1699 30.9473 28.2228 30.9298 28.2792 30.9131C28.2836 30.9691 28.293 31.0091 28.2655 31.06C28.1917 31.06 28.1236 31.1552 28.0708 31.2017C28.086 31.1225 28.0997 31.0418 28.1157 30.9655ZM28.0194 31.0876C28.0064 31.1617 27.9948 31.2351 27.9832 31.3085C28.0766 31.395 28.1193 31.1952 28.1946 31.1952C28.1873 31.2475 28.1699 31.2925 28.175 31.3427C28.1808 31.3456 28.1873 31.3522 28.1967 31.358C28.162 31.4547 28.1309 31.5499 28.0997 31.6451C28.0693 31.6298 28.0295 31.5986 27.9948 31.6204C27.8942 31.8239 27.7935 32.0347 27.6929 32.2411C27.6502 32.026 27.6502 32.026 27.6437 31.9358C27.7501 31.6291 27.8659 31.3725 28.0194 31.0876ZM27.5945 32.1016C27.6133 32.1953 27.5887 32.3843 27.7096 32.3683C28.0071 31.7403 28.0071 31.7403 28.0411 31.688C28.0454 31.6967 28.0534 31.7032 28.0628 31.7105C27.9152 32.1743 27.8384 32.622 27.7545 33.1047C27.6625 33.2202 27.6625 33.2202 27.6452 33.2282C27.5996 33.0015 27.5996 33.0014 27.5822 32.9615H27.5388C27.4837 33.2108 27.4859 33.3271 27.2984 33.4943C27.3585 33.0356 27.4251 32.5319 27.5945 32.1016ZM27.2709 35.0389C27.2463 34.6129 27.2434 34.1834 27.2724 33.753C27.3542 34.062 27.4533 34.4218 27.4164 34.7423C27.31 34.9379 27.31 34.9379 27.2709 35.0389ZM27.3817 35.8639C27.3549 35.6793 27.3187 35.4939 27.3057 35.3064C27.478 35.3951 27.478 35.499 27.5395 35.6836C27.4939 35.7345 27.4171 35.8014 27.3983 35.8646H27.3817V35.8639ZM27.4287 35.9482C27.4468 35.8574 27.5496 35.7738 27.6061 35.7047C27.5909 35.5804 27.5301 35.4532 27.4888 35.3347C27.1993 35.1792 27.2955 35.1712 27.3983 34.9051C27.3983 34.9873 27.373 35.1537 27.42 35.2184H27.4497C27.4931 35.1625 27.4714 34.8964 27.4714 34.8223H27.4874C27.4895 34.8586 27.4932 34.8964 27.5156 34.9277C27.5655 34.9277 27.6046 34.8928 27.6423 34.8586C27.6401 35.0302 27.6372 35.1988 27.6372 35.3711C27.7682 35.4961 27.8457 35.6328 28.0281 35.6538C28.0281 35.7789 28.0281 35.901 28.031 36.026C28.1511 36.4403 28.1511 36.4403 28.1453 36.4483C27.9948 36.2564 27.9166 36.1169 27.8261 35.8908C27.6734 35.8646 27.6459 36.042 27.6148 36.1525H27.601C27.5416 36.0812 27.4845 36.0129 27.4287 35.9482ZM29.2478 39.422C29.2434 39.4227 29.2391 39.4263 29.2369 39.4285C29.1515 39.3827 29.0581 39.3151 28.9655 39.3006C28.8156 39.1102 28.6651 38.9117 28.5362 38.7031C28.2192 37.8396 27.8724 36.9797 27.4946 36.1387C27.533 36.1677 27.6097 36.2564 27.6249 36.2673C27.7277 36.215 27.6459 35.9773 27.7856 35.9642C27.892 36.2368 28.01 36.3894 28.2025 36.6162C28.3777 37.0015 28.4276 36.9789 28.3046 37.3511C28.3162 37.5554 28.2973 37.5321 28.5007 37.5713C28.5 37.6004 28.4971 37.6302 28.4964 37.6615C28.4508 37.6426 28.3726 37.5808 28.3277 37.6091C28.3733 38.0678 28.715 38.5439 29.0342 38.8456C29.1146 39.036 29.1841 39.225 29.2478 39.422ZM29.0697 38.5439C28.9814 38.5883 29.0125 38.6253 28.9633 38.6915C28.7707 38.5119 28.3618 37.937 28.4204 37.7022C28.4631 37.7225 28.4913 37.7465 28.5406 37.7465C28.5739 37.7051 28.5645 37.5852 28.5645 37.5277C28.5529 37.5168 28.5529 37.5168 28.3791 37.4783C28.3726 37.33 28.4124 37.2421 28.4631 37.1003C28.5818 37.2617 28.6629 37.3584 28.6984 37.5517C28.3632 37.796 28.9959 38.2742 29.0697 38.5439ZM28.7729 37.3344C28.7186 36.963 28.7186 36.9629 28.7222 36.9172C28.8424 36.8903 28.8033 36.8408 28.8069 36.7158C29.0827 36.7158 29.0313 36.6199 29.1841 36.3567C29.1899 36.356 29.1971 36.3516 29.2036 36.3516C29.2087 36.3778 29.2087 36.3778 29.2246 36.7747C29.3107 36.9586 29.4338 37.1229 29.4128 37.3286C29.3534 37.3526 29.5576 37.6549 29.5938 37.7094C29.6763 37.8083 29.761 37.9093 29.8449 38.014C29.7581 38.0256 29.6719 38.0416 29.588 38.0598C29.1964 37.8934 29.0755 37.6797 28.7729 37.3344ZM29.7935 38.4262C29.669 38.4407 29.5467 38.4545 29.4244 38.4669C29.3882 38.3208 29.3534 38.171 29.3194 38.0256C29.4128 38.0256 29.5091 38.1092 29.609 38.1194C30.0614 38.0547 29.9767 38.0758 29.6929 37.7204C29.8095 37.7691 30.0541 37.8883 30.2322 37.9617C30.209 38.1797 29.9586 38.2931 29.7935 38.4262ZM30.3943 37.5655C30.0896 37.5168 29.8544 37.4151 29.5677 37.29C29.5699 37.1345 29.5742 36.9811 29.5807 36.827C29.795 36.8619 29.8732 36.9252 29.9275 37.1432C30.0085 37.1963 30.1367 37.0531 30.2315 37.0531C30.3328 37.0996 30.4342 37.1497 30.5362 37.1985C30.5521 37.2966 30.5724 37.4071 30.5645 37.5088C30.5051 37.5321 30.458 37.5561 30.3943 37.5655ZM31.1081 36.694C31.1059 36.7114 30.985 36.8648 30.9741 36.8714C30.9452 36.8459 30.9162 36.8205 30.8858 36.7958C30.8858 36.7696 31.0813 36.7049 31.1081 36.694ZM30.5587 35.0389C30.5587 35.2664 30.5854 35.4932 30.5811 35.7193C30.5666 35.7134 30.5536 35.7084 30.5391 35.7047C30.5145 35.7193 30.5116 35.7222 30.5073 35.7534H30.4942C30.4276 35.6829 30.3603 35.6088 30.2952 35.5412C30.2163 35.3304 30.0049 35.0047 30.0483 34.7758C30.3263 34.7554 30.2923 34.7932 30.4385 34.5701C30.5369 34.5635 30.5666 34.5802 30.652 34.6318C30.6752 34.855 30.6889 34.8732 30.5587 35.0389ZM29.7791 34.9168C29.7284 34.9248 29.6799 34.9364 29.63 34.948C29.5503 34.7714 29.601 34.6384 29.7646 34.5308C29.7668 34.5773 29.7711 34.6224 29.7769 34.6718C29.8247 34.6878 29.8761 34.7074 29.9275 34.7234C29.9369 34.7874 29.9369 34.7874 29.9369 34.8245C29.8442 34.7932 29.8442 34.7932 29.7487 34.7714C29.7451 34.7816 29.7364 34.7874 29.7327 34.8005C29.7458 34.8405 29.7631 34.8768 29.7791 34.9168ZM29.842 34.6282C29.8406 34.5955 29.8392 34.5621 29.8392 34.5315C29.8833 34.5315 29.9282 34.5315 29.9723 34.533C30.0628 34.3934 29.8876 34.2379 30.1627 34.243C30.2532 34.3266 30.3429 34.4087 30.437 34.4915C30.4313 34.5025 30.4313 34.5025 30.3849 34.5221C30.2148 34.8136 30.209 34.5795 29.9933 34.7234C29.9803 34.6529 29.9043 34.6478 29.842 34.6282ZM29.8876 34.4603C29.8971 34.4465 29.905 34.4363 29.9144 34.4247C29.9173 34.4392 29.9188 34.4545 29.9202 34.4705H29.892C29.8884 34.4661 29.8876 34.4625 29.8876 34.4603ZM30.6984 34.5781C30.4682 34.4487 30.2973 34.1855 30.0382 34.1754C29.9593 34.1303 29.8782 34.0896 29.8001 34.0467C29.7248 33.8795 29.8095 33.873 29.6256 33.8141C29.6068 33.7676 29.5887 33.7196 29.5699 33.6731C29.5807 33.6695 29.593 33.6665 29.6061 33.6636C29.6061 33.6215 29.6068 33.6157 29.5807 33.5815H29.5619C29.5308 33.6309 29.1124 34.1761 29.1587 34.3251C29.2224 34.3636 29.2905 34.392 29.3107 34.4087C29.3484 34.4792 29.4649 34.6994 29.5503 34.6813C29.5511 34.6936 29.5511 34.6936 29.5084 34.8325C29.5655 34.9611 29.5655 34.9611 29.5988 35.0156C29.6814 35.0156 29.7791 34.9829 29.8594 34.9611C29.8594 34.9262 29.8507 34.903 29.8384 34.8659C29.8855 34.8812 29.9311 34.8972 29.9796 34.9153C30.0997 35.2235 30.183 35.6168 30.4732 35.8123C30.5044 36.0703 30.5246 36.3422 30.5348 36.5995C30.6455 36.6904 31.2413 37.0364 30.8547 37.2021C30.6224 37.1614 30.4421 37.0771 30.2257 36.9797C30.141 36.9957 30.0621 37.0436 29.9839 37.0771C29.9224 36.8408 29.7762 36.8009 29.5626 36.7594C29.5236 36.5646 29.4845 36.3662 29.4468 36.1699C29.4541 36.0725 29.4845 35.8719 29.4924 35.76C29.4323 35.1414 29.4323 35.1414 29.428 35.0331C29.4656 34.9815 29.4895 34.9589 29.4953 34.8928C29.4512 34.8688 29.4114 34.9175 29.3773 34.9386C29.3875 34.7685 29.3875 34.7685 29.3853 34.6573H29.3382C29.2782 34.9335 29.247 35.2301 29.2065 35.515C29.1732 35.5114 29.1428 35.5063 29.111 35.5026C28.6252 34.8172 28.6253 34.8172 28.6158 34.7925C28.7541 34.5395 28.8996 34.2866 29.0407 34.0336C29.0965 34.1725 29.0965 34.1725 29.1073 34.1848C29.3238 33.8235 29.5489 33.4681 29.7863 33.125C29.7675 33.0647 29.7465 32.9905 29.7016 32.9448C29.6719 32.9513 29.6423 32.96 29.6126 32.9651C29.6126 32.9324 29.6256 32.8924 29.6068 32.8655H29.5597C29.5351 32.9113 29.5098 32.9557 29.4881 33.0022C29.4143 32.9942 29.4171 33.0153 29.4121 33.0829C29.4019 33.0792 29.3947 33.0756 29.3853 33.0734C29.399 33.0516 29.3933 33.0058 29.3853 32.9804C29.4331 32.8408 29.4266 32.7696 29.567 32.7201C29.7009 32.7965 29.7212 32.819 29.7602 32.9687C29.8066 33.0073 29.8558 33.048 29.9043 33.0894C29.8978 33.1279 29.8927 33.1665 29.8847 33.205C29.8703 33.1817 29.8616 33.1781 29.8413 33.1723C29.7689 33.2755 29.7689 33.2755 29.7602 33.3031C29.8189 33.3525 29.8855 33.4296 29.9694 33.4056C30.0056 33.4936 30.1034 33.4914 30.1859 33.5088C30.4052 33.7138 30.3314 34.0685 30.7085 34.0518C30.7317 34.0184 30.7317 34.0183 30.7389 34.0183C30.7671 34.0605 30.7932 34.1063 30.8236 34.1492C30.8142 34.1557 30.8048 34.1615 30.8004 34.1645C30.8134 34.3723 30.8113 34.4087 30.6984 34.5781ZM30.4769 33.1207H30.5442V33.2624H30.5217C30.5073 33.258 30.4957 33.2515 30.4819 33.2471C30.4798 33.2064 30.4769 33.1614 30.4769 33.1207ZM30.7027 33.3889C30.7165 33.4579 30.7331 33.5248 30.7382 33.5975C30.7251 33.5284 30.7136 33.4579 30.7027 33.3889ZM31.9434 36.271C31.9021 36.2295 31.863 36.1852 31.8232 36.1452C31.8594 36.0304 31.9079 35.8087 32.0766 35.8087C32.2307 35.8821 32.3285 35.8901 32.4544 35.7491C32.5948 35.7927 32.7367 35.8377 32.8786 35.8828C32.9314 35.8552 32.9843 35.8268 33.0386 35.8014C33.0552 35.9308 33.0552 35.9308 33.0675 35.9591C33.0965 35.9642 33.0965 35.9642 33.3759 35.97C33.2977 36.0464 33.0769 35.9831 33.0045 36.0812C33.0045 36.1634 33.0031 36.199 32.9575 36.2637H32.8286C32.7968 36.3298 32.7657 36.3974 32.7331 36.4636C32.5044 36.4723 32.5044 36.4723 32.4117 36.4788C32.3842 36.5268 32.3567 36.5741 32.3292 36.6191C32.3176 36.6191 32.306 36.6228 32.2981 36.6257C32.1366 36.5712 31.9759 36.5166 31.8174 36.4636C31.8174 36.396 31.9434 36.3589 31.9434 36.271ZM32.2662 37.1803C32.1048 37.1243 31.9448 37.0676 31.7856 37.0138C31.7856 36.883 32.002 37.0494 32.002 36.8997C31.9434 36.742 31.9434 36.742 31.8572 36.5523C32.002 36.5973 32.2069 36.6933 32.356 36.6933C32.3842 36.6453 32.411 36.5973 32.4407 36.5457C32.7707 36.4818 32.736 36.6249 32.8648 36.3371C32.9047 36.3342 32.9437 36.332 32.9857 36.3291C33.048 36.2419 33.0733 36.215 33.0762 36.1103C33.3824 36.0456 33.3144 36.0216 33.2181 36.3102C33.2159 36.3371 33.2123 36.3604 33.2123 36.3843C33.2318 36.4112 33.3672 36.5523 33.3556 36.5763C33.3288 36.5552 33.2919 36.4992 33.2543 36.5363C33.2572 36.5821 33.2847 36.6584 33.2637 36.6962C33.1573 36.782 33.0509 36.8641 32.943 36.9506C32.8641 36.9651 32.8019 36.8997 32.7165 36.8997C32.5377 37.104 32.6897 37.1556 32.7555 37.4151H32.7411C32.6672 37.3765 32.5825 37.3198 32.5 37.3068C32.4689 37.3373 32.4378 37.3656 32.4066 37.3976C32.3574 37.3824 32.2945 37.2297 32.2662 37.1803ZM33.8695 39.6895C33.8326 39.6946 33.8001 39.6982 33.7675 39.7062C33.7523 39.6924 33.7371 39.6808 33.7255 39.6699C33.7327 39.4925 33.7327 39.4925 33.7422 39.4285C33.7885 39.4794 33.8391 39.5317 33.8869 39.5819C33.879 39.6182 33.8732 39.6531 33.8695 39.6895ZM34.5326 37.2559C34.5941 37.2566 34.6535 37.2631 34.7164 37.2661C34.707 37.3148 34.6708 37.3511 34.6419 37.3853C34.3632 37.2704 34.1236 37.2086 33.8934 37.0204C34.0614 36.7907 34.3857 37.1468 34.5326 37.2559ZM33.6242 36.0311C33.7146 36.0871 33.8167 36.1423 33.8956 36.215C33.8956 36.2637 33.8073 36.3378 33.7762 36.3742C33.8131 36.5057 33.8131 36.5057 33.816 36.5464H33.7139C33.6727 36.6017 33.7183 36.7514 33.7508 36.8074C33.8862 36.8895 33.8862 36.8895 33.8949 36.8997C33.8616 36.9462 33.8124 36.9826 33.8124 37.0415C34.0715 37.2406 34.3024 37.3206 34.6122 37.4405C34.7063 37.4296 34.7353 37.3606 34.7874 37.2806C34.8265 37.2733 34.8265 37.2733 34.8634 37.2799C34.8605 37.3111 34.8591 37.3446 34.8591 37.3787C34.6846 37.4187 34.8453 38.0104 34.8554 38.0743C34.8323 38.0656 34.82 38.0307 34.8098 38.006H34.7751C34.5427 38.2582 34.3104 38.4138 34.0216 38.6006C33.7566 38.6784 33.7566 38.6784 33.7458 38.69C33.656 39.2352 33.656 39.2352 33.6437 39.2715C33.5568 39.3239 33.4729 39.3762 33.3889 39.4271C33.1623 39.2352 33.0726 38.8361 32.9662 38.5548C32.9372 38.3949 32.9112 38.2364 32.8829 38.0772C32.917 37.9108 33.0306 37.7589 32.8315 37.708C32.7859 37.7436 32.7773 37.7894 32.7563 37.8447C32.7063 37.841 32.6571 37.8381 32.61 37.8359C32.5833 37.788 32.5565 37.7443 32.5326 37.6978C32.5869 37.6978 32.6636 37.6404 32.6636 37.5852C32.6274 37.5495 32.534 37.5554 32.487 37.5503C32.466 37.5161 32.4414 37.4907 32.4414 37.4492C32.5927 37.3111 32.6962 37.5168 32.8178 37.4361C32.8178 37.2886 32.7121 37.1607 32.6947 37.0167C32.7896 36.9215 32.8323 37.0291 32.9495 37.0291C33.0777 36.9237 33.2108 36.819 33.3411 36.7165C33.3411 36.678 33.3411 36.6446 33.3303 36.6068C33.399 36.6031 33.399 36.6031 33.4302 36.593C33.4302 36.5065 33.3353 36.4251 33.2796 36.3611C33.302 36.284 33.3245 36.207 33.3448 36.1278C33.5872 36.082 33.5872 36.082 33.6119 36.0696C33.6162 36.058 33.6184 36.0413 33.6242 36.0311ZM33.5105 36.0231C33.4924 36.0325 33.4924 36.0325 33.3723 36.0507C33.4034 36.0296 33.4323 35.9802 33.4707 35.9802C33.4845 35.9955 33.4982 36.0078 33.5105 36.0231ZM33.4266 35.8879C33.3238 35.8901 33.2217 35.8915 33.1218 35.8937C33.1124 35.8334 33.1066 35.7738 33.0986 35.7156C32.9597 35.7156 32.9365 35.8334 32.778 35.7818C32.8619 35.6189 32.8685 35.6299 32.8229 35.4532C32.9864 35.382 32.9944 35.4634 33.1348 35.5841C33.2058 35.5906 33.2774 35.6 33.3505 35.6088C33.3484 35.6415 33.3484 35.6713 33.3484 35.7047C33.4244 35.7738 33.441 35.7825 33.4266 35.8879ZM33.7219 35.443C33.3925 35.4961 33.3925 35.4961 33.3759 35.5056C33.3715 35.5172 33.3679 35.5295 33.3657 35.5441H33.3267C33.1754 35.5295 33.0031 35.4583 32.9546 35.2977C33.0082 35.2977 33.1182 35.4292 33.1558 35.4656C33.205 35.4641 33.3107 35.4656 33.352 35.4401C33.352 35.3551 33.2543 35.262 33.2123 35.1981C33.2123 35.1857 33.2159 35.177 33.2181 35.1661C33.4352 35.0709 33.36 35.2119 33.491 35.1872C33.6727 35.0607 33.8261 35.2177 34.0216 35.273C34.0216 35.278 34.0245 35.2824 34.0259 35.2853C33.9246 35.3369 33.8218 35.39 33.7219 35.443ZM33.0342 35.2621C33.0364 35.2533 33.0393 35.2497 33.0407 35.2417C33.0733 35.2286 33.1117 35.217 33.1442 35.2039C33.1797 35.2599 33.2463 35.3304 33.2601 35.3951C33.2326 35.3987 33.2058 35.3987 33.179 35.4023C33.1305 35.3551 33.0813 35.3086 33.0342 35.2621ZM32.1873 33.8628C32.2105 33.7872 32.2351 33.7131 32.2583 33.6404C32.4624 33.6513 32.4653 33.6178 32.5391 33.7879C32.5818 33.8054 32.7078 33.8054 32.7447 33.7836C32.7389 33.7334 32.736 33.6854 32.7309 33.6346C32.7512 33.6324 32.7715 33.6273 32.7917 33.6229C32.7997 33.6069 32.8084 33.5888 32.8171 33.5728C32.9177 33.5648 32.9054 33.5546 32.9119 33.4594C33.1124 33.4623 33.3115 33.4688 33.5163 33.4754C33.5322 33.5299 33.5532 33.583 33.572 33.6389C33.6292 33.6571 33.685 33.6745 33.7429 33.6934C33.7458 33.7211 33.7523 33.745 33.7733 33.7669C33.9781 33.7276 33.9781 33.7276 34.0042 33.7298C34.0541 33.881 34.1055 34.0293 34.1547 34.1797C34.1859 34.2117 34.2228 34.1863 34.264 34.1863C34.306 34.2444 34.4204 34.2393 34.4877 34.2451C34.5854 34.3396 34.6151 34.3942 34.749 34.4014C34.7613 34.4167 34.7772 34.4349 34.7925 34.4538C34.7678 34.5294 34.7034 34.4894 34.6853 34.6282C34.5999 34.6347 34.5116 34.6406 34.4262 34.6478C34.4081 34.6864 34.4081 34.6864 34.3705 34.855C34.0606 34.9219 34.1403 34.8884 34.1135 35.2308H34.099C33.9774 35.1915 33.6763 35.0324 33.5605 35.0563C33.4693 35.1298 33.475 35.1189 33.3947 35.0411C33.2535 35.0411 33.1269 35.1668 32.9821 35.1843C32.9459 35.1523 32.9162 35.1356 32.8721 35.1152C32.8431 34.9836 32.8171 34.855 32.7888 34.7227C32.6976 34.698 32.5217 34.6864 32.4993 34.5875C32.6216 34.4152 32.6173 34.4436 32.5492 34.2357C32.4696 34.2357 32.3951 34.2684 32.3183 34.2902C32.2409 34.2684 32.1634 34.2444 32.0853 34.2255C32.0266 34.0329 32.0628 33.9711 32.1873 33.8628ZM32.086 34.3062C32.1424 34.3062 32.2011 34.3222 32.2583 34.3353C32.1714 34.6166 32.1808 34.5482 32.453 34.6529C32.4595 34.6682 32.466 34.6813 32.4718 34.6973C32.5608 34.7205 32.6477 34.7452 32.7331 34.7685C32.7584 34.8957 32.7845 35.0207 32.8106 35.1479C32.8323 35.1668 32.901 35.1988 32.943 35.2272C32.8439 35.2388 32.8916 35.2693 32.8916 35.3529C32.7121 35.4358 32.7389 35.4256 32.799 35.6044C32.7722 35.6495 32.7454 35.6953 32.7193 35.7432C32.707 35.744 32.6947 35.7498 32.6824 35.7541C32.6687 35.7469 32.6571 35.7432 32.6448 35.7389C32.6368 35.4699 32.5196 35.3856 32.3596 35.1654C32.3285 35.0244 32.3343 34.9691 32.2199 34.8892C32.2199 34.7859 32.2836 34.7801 32.1388 34.6835C32.0686 34.6813 31.9991 34.6813 31.9354 34.6813C31.9839 34.5548 32.0346 34.4298 32.086 34.3062ZM31.7762 34.9197C31.8153 34.8564 31.8153 34.8565 31.8594 34.7605C31.947 34.7554 32.0339 34.7525 32.1185 34.7474C32.2003 34.8288 32.1359 34.8056 32.1359 34.9015C32.1736 34.9306 32.2148 34.9597 32.2546 34.9873C32.3096 35.2766 32.5644 35.4329 32.5753 35.7076C32.4038 35.6596 32.3762 35.7527 32.2061 35.8028C32.1736 35.7839 32.1403 35.7651 32.1062 35.7491C32.0469 35.4067 31.8319 35.1857 31.6357 34.9008C31.6647 34.8986 31.7313 34.9211 31.7762 34.9197ZM31.1377 34.392C31.4186 34.4167 31.3136 34.1754 31.3216 33.9377C31.3563 33.8984 31.3954 33.8606 31.4316 33.825C31.4649 33.8388 31.4627 33.8752 31.5004 33.8817C31.5272 34.1877 31.5272 34.1877 31.5272 34.2764C31.4591 34.3796 31.3657 34.4617 31.3969 34.589H31.3824C31.3462 34.5773 31.3462 34.5773 30.9959 34.5134V34.3222C31.0523 34.3375 31.111 34.3375 31.1377 34.392ZM31.061 34.2619C31.0509 34.2662 30.9742 34.2335 30.9452 34.2335C30.901 34.2946 30.9235 34.416 30.9235 34.4908C30.859 34.4276 30.8786 34.3055 30.8714 34.2161C31.0451 34.1979 30.7374 34.0104 30.791 33.9013C30.7896 33.8599 30.7867 33.8228 30.7852 33.7828C30.8757 33.9428 30.9662 34.1027 31.061 34.2619ZM31.2123 33.0545C31.0842 33.0974 30.9589 33.1374 30.8337 33.1817C30.7505 33.1417 30.6853 33.1301 30.6238 33.1105C30.5956 33.0116 30.4819 33.0153 30.5659 32.9048C30.5391 32.8655 30.5058 32.8524 30.4667 32.8292C30.4667 32.7485 30.5261 32.6475 30.5543 32.569C30.5543 32.3916 30.3487 32.2818 30.3299 32.1321C30.3777 32.1205 30.4066 32.1205 30.4182 32.071C30.508 32.0609 30.5963 32.0492 30.6875 32.0376C30.8757 32.3313 30.8757 32.3313 30.9083 32.3727C31.1645 32.4076 31.0791 32.4803 31.053 32.7187C31.171 32.9593 31.171 32.9593 31.2123 33.0545ZM31.2058 32.2317C31.0842 32.1932 31.0827 32.1932 31.0407 32.3225H31.006C30.875 32.292 30.7954 32.0819 30.7251 31.9715C30.7758 31.9031 30.833 31.8377 30.896 31.7737C31.0986 31.9387 31.0957 31.7112 31.2731 31.7999C31.2485 31.8348 31.2224 32.1474 31.2058 32.2317ZM31.2637 31.728C31.2369 31.7214 31.2094 31.7156 31.1841 31.7127C31.158 31.6494 31.082 31.5063 31.0921 31.4408C31.1066 31.4307 31.1196 31.4227 31.1327 31.4147C31.1348 31.4459 31.1392 31.4786 31.1443 31.5106C31.2043 31.4539 31.2043 31.4539 31.2376 31.4299C31.268 31.4845 31.3665 31.6087 31.3665 31.6691C31.3303 31.6996 31.3057 31.7134 31.2637 31.728ZM31.7132 31.233C31.7298 31.411 31.7964 31.5041 31.7074 31.6698C31.5887 31.704 31.4714 31.7374 31.3527 31.7737C31.3665 31.7294 31.4302 31.7163 31.4533 31.6713C31.4114 31.5978 31.2963 31.4481 31.2963 31.3652C31.3932 31.2926 31.4736 31.2264 31.5185 31.1188C31.7175 30.9982 31.9086 30.8622 32.0983 30.7249C32.0968 30.7198 32.0939 30.7176 32.0939 30.7176C32.0795 30.7154 32.0635 30.7176 32.0476 30.7198C31.8182 30.8426 31.5395 30.6805 31.2963 30.8521C31.2963 30.9008 31.3107 30.9095 31.3563 30.9291C31.3491 30.9466 31.3397 30.9647 31.3317 30.9822C31.2709 30.9822 31.226 30.9822 31.1739 30.9466C30.9705 30.9466 30.9691 31.1792 30.7903 31.0171C30.9155 30.9037 31.048 30.791 31.1754 30.6805C31.263 30.6703 31.352 30.658 31.4403 30.6471C31.504 30.5744 31.567 30.5053 31.6307 30.4319C31.7009 30.4319 31.698 30.4661 31.7081 30.3774C31.7754 30.4181 31.8413 30.4581 31.9072 30.4995C32.1301 30.4995 32.175 30.3665 32.3943 30.4632C32.403 30.4923 32.403 30.4923 32.3987 30.5424C32.2503 30.6529 32.1012 30.7656 31.9535 30.879C31.9014 30.9662 31.7993 31.1828 31.7132 31.233ZM32.6151 31.3093C32.576 31.2017 32.534 31.097 32.495 30.9931C32.4834 30.988 32.4711 30.9829 32.4624 30.98C32.5152 30.9095 32.6014 30.7801 32.6846 30.7605C32.7469 30.8244 32.7592 31.1465 32.7657 31.2591C32.7157 31.3027 32.6846 31.3027 32.6151 31.3093ZM32.9264 31.3601C32.9423 31.3398 32.9553 31.3151 32.9713 31.2955C32.9893 31.3115 32.9893 31.3115 32.998 31.3296C32.9865 31.3434 32.9865 31.3434 32.9264 31.3601ZM33.7805 29.9064C33.7675 29.9057 33.7559 29.9028 33.7436 29.8998V29.8839C33.7624 29.8904 33.7805 29.894 33.7986 29.8977C33.7928 29.8999 33.7841 29.9028 33.7805 29.9064ZM34.7143 29.3213C33.9651 29.6244 33.2543 30.0598 32.571 30.4923C32.5666 30.5003 32.5666 30.5082 32.5666 30.5177C32.6325 30.5562 32.6289 30.5751 32.7165 30.5918C32.7121 30.602 32.7085 30.6144 32.707 30.6253C32.5174 30.807 32.2163 31.2591 32.0201 31.3245C32.0056 31.3115 32.0056 31.3115 31.8087 31.2417C31.8095 31.2257 31.8095 31.2257 31.9673 30.9742C32.1185 30.9742 32.1432 30.9415 32.1815 30.7852C32.2756 30.711 32.3726 30.6405 32.4689 30.5693C32.466 30.533 32.466 30.4995 32.466 30.4661C33.0183 30.155 33.5539 29.8177 34.1142 29.5204C34.1909 29.4863 34.6419 29.2348 34.7049 29.2537C34.7099 29.2791 34.7251 29.2965 34.7143 29.3213ZM37.9658 27.4772C37.9564 27.4808 37.9484 27.4866 37.9383 27.4902C37.934 27.5578 37.934 27.5578 37.9434 27.6022C37.9325 27.6051 37.9224 27.6058 37.9108 27.6087C37.9079 27.5462 37.9043 27.4859 37.9028 27.4212C37.9123 27.419 37.9122 27.419 37.9658 27.4772ZM37.8934 27.7832C37.8616 27.7832 37.8522 27.7934 37.8333 27.8202C37.7798 27.7803 37.8304 27.7592 37.8703 27.7243C37.8818 27.7316 37.8819 27.7316 37.8934 27.7832ZM33.2166 26.8317C33.1392 26.8637 33.0487 26.916 32.9655 26.932C33.1978 26.8317 33.1978 26.8317 33.2166 26.8317ZM32.2981 27.2896C32.2887 27.278 32.2887 27.278 32.259 27.2685C32.2727 27.2627 32.2887 27.2562 32.3046 27.2518C32.3017 27.2627 32.2995 27.2751 32.2981 27.2896ZM34.6788 27.7556C34.5948 27.7556 34.5311 27.8137 34.4544 27.8137C34.3951 27.7345 34.1801 27.7592 34.0845 27.7526C34.0845 27.6 33.6864 27.664 33.5952 27.664V27.6029C33.6944 27.6 33.7928 27.5942 33.892 27.5906C33.9021 27.5746 33.9021 27.5746 33.9021 27.5426C33.892 27.5317 33.892 27.5317 33.5786 27.4415C33.5786 27.4285 33.58 27.4183 33.5844 27.4088C33.7798 27.3819 33.9021 27.371 34.0932 27.4256C34.0932 27.435 34.0954 27.443 34.0968 27.4532C34.1091 27.4612 34.1178 27.4677 34.1338 27.4743C34.1338 27.5135 34.0968 27.5273 34.0968 27.5724C34.2655 27.6676 34.4291 27.7417 34.6195 27.6727C34.77 27.6821 34.77 27.6821 34.7881 27.6909C34.7932 27.7439 34.7961 27.797 34.8019 27.8515C34.7794 27.858 34.7592 27.866 34.7382 27.8719C34.7186 27.8311 34.6969 27.7919 34.6788 27.7556ZM34.8873 27.4125C34.8308 27.4604 34.7664 27.4975 34.7367 27.5637C34.6962 27.5433 34.6781 27.4975 34.6441 27.4641C34.7208 27.4183 34.7954 27.4125 34.8873 27.4125ZM34.6571 27.286C34.7063 27.278 34.7563 27.2714 34.8062 27.2685C34.7954 27.286 34.7925 27.3107 34.7686 27.318C34.7309 27.3085 34.6926 27.2976 34.6571 27.286ZM34.8873 28.0121V28.0194C34.8135 28.0289 34.8134 28.0289 34.7686 28.0434C34.7563 28.0281 34.7563 28.0281 34.7548 28.0129H34.8873V28.0121ZM34.8496 28.167C34.8388 28.1793 34.8301 28.1939 34.82 28.2062C34.8091 28.1684 34.7794 28.1684 34.7505 28.1466C34.8142 28.1466 35.0031 28.1212 34.8496 28.167ZM34.9379 27.8348C34.9379 27.7839 34.8844 27.7316 34.8511 27.6974C34.9155 27.6952 34.9155 27.6952 34.9828 27.7039C35.006 27.7367 34.9944 27.7745 34.9843 27.8144C34.9712 27.8202 34.9546 27.8268 34.9379 27.8348ZM35.3621 28.3189C35.3585 28.3131 35.3527 28.3094 35.3476 28.308C35.3556 28.308 35.3636 28.3094 35.373 28.3123C35.3679 28.3131 35.3628 28.3167 35.3621 28.3189ZM35.428 28.9367C35.4128 28.9251 35.4128 28.9251 35.3708 28.9171C35.3708 28.8066 36.1547 28.2556 36.2561 28.1757C36.1504 28.1699 36.128 28.1662 36.0621 28.0856C36.1439 28.0703 36.3552 28.0434 36.4059 28.0681C36.5818 27.9489 36.5818 27.9489 36.6064 27.9249C36.5044 27.8624 36.4016 27.7999 36.3002 27.7403C36.3755 27.6378 36.12 27.6378 36.0527 27.5935C35.9644 27.4459 35.9622 27.5011 35.8022 27.5847C35.6676 27.4866 35.572 27.4684 35.3983 27.4568C35.3947 27.4612 35.3918 27.4619 35.3875 27.4677C35.3064 27.3972 35.2782 27.4415 35.2007 27.507C35.2007 27.5826 35.2383 27.5942 35.2912 27.6451C35.2912 27.6771 35.2651 27.6952 35.2449 27.7192C35.2311 27.7061 35.2166 27.6923 35.2036 27.6814C35.2007 28.0768 35.1935 28.4781 35.1935 28.8793H35.1254C35.1254 28.7354 35.1211 28.5973 35.1196 28.4541C35.1044 28.4715 35.0979 28.4723 35.0777 28.4781C35.0444 28.4425 35.0111 28.4061 34.9799 28.372C34.9821 28.3574 34.9821 28.3574 35.0067 28.3436C35.0118 28.356 35.0197 28.3676 35.0277 28.3814C35.0581 28.3858 35.0885 28.3908 35.1196 28.3967C35.129 28.2796 35.129 28.2796 35.129 27.5273C35.0994 27.5106 35.0813 27.4866 35.053 27.4779C35.0349 27.4953 35.0161 27.5142 34.9901 27.5142C34.9618 27.4779 34.9351 27.4415 34.9104 27.4023C34.9611 27.3979 35.0096 27.395 35.0581 27.3892C35.069 27.3732 35.069 27.3732 35.069 27.342C35.0581 27.3318 35.0581 27.3318 34.9351 27.2976C35.0009 27.2933 35.0675 27.2867 35.1341 27.2867C35.1341 27.1443 35.1377 27.0061 35.1377 26.8666C34.4928 26.8317 34.4928 26.8317 34.4486 26.8215C34.3133 26.7205 34.3133 26.7205 34.2836 26.7096C34.1424 26.7481 33.8565 26.7903 34.1251 26.876C34.0758 26.9 34.0273 26.9269 33.9803 26.9524C33.9803 27.0316 34.086 27.0287 34.1504 27.0476V27.0607C34.0628 27.0963 34.2047 27.1544 34.2235 27.1588C34.2235 27.1748 34.2257 27.19 34.2278 27.206C34.0881 27.2133 33.9513 27.2198 33.8131 27.2286C33.8131 27.2133 33.8131 27.1973 33.8153 27.1835C33.7943 27.161 33.7552 27.1668 33.7269 27.161V27.1304C33.6929 27.0955 33.6459 27.1304 33.6097 27.1428C33.5149 27.0476 33.3679 27.206 33.3455 27.3049C33.2716 27.2983 33.1964 27.2918 33.1233 27.286C33.1052 27.2685 33.1131 27.246 33.0986 27.2278C32.9959 27.2278 32.8793 27.2656 32.7801 27.286C32.7946 27.2736 32.8113 27.262 32.8272 27.2511V27.2133C32.8192 27.206 32.8091 27.1995 32.8004 27.1951C32.5217 27.2918 32.5217 27.2918 32.5073 27.2889C32.7208 27.0476 33.0827 27.0316 33.3317 26.8484V26.8179C33.3209 26.8084 33.31 26.799 33.2999 26.7932C34.3017 26.3919 35.4642 26.7132 36.4638 26.8753C36.9227 27.0679 37.3824 27.2649 37.8391 27.4597C37.8391 27.6313 37.837 27.656 37.719 27.7737C37.719 27.8522 37.8334 27.8595 37.8449 27.954C37.8594 27.9569 37.8775 27.9649 37.8949 27.9714C37.9065 28.0427 37.9202 28.1183 37.934 28.191C37.7798 28.2382 37.331 28.4294 37.1869 28.4039C37.0248 28.0761 37.0328 28.1175 36.6788 28.0645C36.6752 28.0361 36.6723 28.0071 36.6723 27.978C36.2373 28.2796 35.829 28.5936 35.428 28.9367ZM35.3932 27.8115C35.4063 27.8137 35.4265 27.8159 35.4432 27.8202C35.4468 27.8311 35.4541 27.8428 35.4598 27.8559C35.441 27.8573 35.4236 27.8602 35.4056 27.866C35.4012 27.8464 35.3969 27.829 35.3932 27.8115ZM36.1077 27.8791C36.0939 27.8871 36.0845 27.8951 36.0722 27.9053V27.9373C36.0845 27.946 36.0939 27.9554 36.1077 27.9664C36.0845 27.9787 36.0845 27.9787 36.0462 27.9816C36.0179 27.914 35.9108 27.9242 35.8471 27.9155C35.8391 27.8748 35.8391 27.8377 35.8138 27.8064C35.7726 27.8064 35.7487 27.837 35.7161 27.8624C35.7002 27.7497 35.7067 27.7432 35.6227 27.6858C35.6227 27.6792 35.6227 27.672 35.6256 27.6654C35.6451 27.6567 35.6632 27.648 35.685 27.64C35.8406 27.7308 35.9803 27.6945 36.1439 27.741C36.1547 27.7606 36.1605 27.7832 36.1736 27.805C36.1258 27.7919 36.0411 27.7556 36.0006 27.7861C35.9991 27.7999 35.9977 27.8144 35.9977 27.8275C36.0324 27.845 36.0708 27.8624 36.1077 27.8791ZM35.8406 28.2026C35.8283 28.2026 35.8174 28.2055 35.808 28.2062C35.7979 28.1946 35.7899 28.1844 35.7805 28.1757C35.7979 28.1793 35.8174 28.1844 35.8348 28.188C35.8362 28.1939 35.8391 28.1975 35.8406 28.2026ZM35.6408 28.0994C35.6372 28.1139 35.6372 28.127 35.6372 28.1386H35.6227C35.6184 28.1314 35.6133 28.1248 35.609 28.119C35.6162 28.1052 35.6271 28.0928 35.6408 28.0994ZM35.0436 28.01C35.0545 28.0085 35.0675 28.0063 35.082 28.0063C35.082 28.0129 35.082 28.0194 35.0849 28.0281C35.0805 28.0289 35.074 28.0325 35.074 28.0325C35.0617 28.0259 35.0516 28.0165 35.0436 28.01ZM38.3531 27.137C37.394 26.6899 36.3321 26.429 35.2145 26.4036C35.2108 26.461 35.2079 26.5177 35.2065 26.5736C36.2155 26.6303 37.1233 26.8113 38.0664 27.1944C38.1591 27.174 38.2568 27.1551 38.3531 27.137ZM32.5427 28.7238C32.5529 28.6896 32.5652 28.6525 32.576 28.6169C32.6238 28.5973 32.7049 28.5806 32.6636 28.5151C32.6354 28.5093 32.6086 28.5086 32.584 28.5072C32.563 28.4694 32.542 28.4323 32.5225 28.3967C32.542 28.3654 32.584 28.3647 32.6108 28.3356C32.6093 28.3225 32.6093 28.3131 32.6093 28.3022C32.5934 28.2905 32.5811 28.2804 32.5666 28.2716C32.5869 28.2346 32.5934 28.199 32.5963 28.159C32.5435 28.1372 32.4957 28.1146 32.4457 28.0943C32.4457 27.9802 32.2756 28.0238 32.2756 27.9765C32.534 27.8551 33.0313 27.7505 33.2731 27.9569C33.2543 28.0092 33.2449 28.0383 33.2449 28.0914C33.2644 28.0979 33.3752 28.0914 33.3831 28.0979C33.3715 28.1161 33.3802 28.1299 33.3831 28.1488C33.4591 28.1764 33.5793 28.1888 33.6386 28.1299C33.6495 28.1328 33.6495 28.1328 33.7002 28.1989C33.9644 28.2869 33.9644 28.2869 33.9781 28.2833C33.2275 27.7824 32.2626 27.2562 31.3252 27.334C30.5022 27.7759 29.7675 28.3574 29.1486 29.0465C29.192 29.0283 29.2543 29.0014 29.3411 28.9644C30.369 28.6329 31.4772 28.6787 32.5427 28.7238ZM32.0245 27.3827C32.0158 27.3863 32.0071 27.3907 31.9991 27.395C32.015 27.3812 32.015 27.3812 32.0245 27.3827Z" fill="white"/>
</svg>
